M48
;Layer_Color=9474304
;FILE_FORMAT=2:4
INCH,TZ
;TYPE=PLATED
T1F00S00C0.0157
T2F00S00C0.0236
T3F00S00C0.0276
T4F00S00C0.0315
T5F00S00C0.0551
T6F00S00C0.1024
;TYPE=NON_PLATED
T7F00S00C0.0591
T8F00S00C0.0925
%
T01
X6102Y12594
X7047Y12315
X7402Y12638
X7323Y13858
T02
X4134Y3740
Y5315
X5906Y3740
X11220Y2559
Y394
X12205
X13189
X14075Y1673
X14665
X15256
Y3839
Y4429
X14665
Y3839
X14075
Y4429
X19193
Y3839
X19783
X20374
Y4429
X19783
Y1673
X20374
X19193
X24311
X24902
X25492
Y3839
X24902
X24311
Y4429
X24902
X25492
X29429
Y3839
X30020
X30610
Y4429
X30020
Y1673
X29429
X30610
X34547
X35138
X35728
Y3839
X35138
X34547
Y4429
X35138
X35728
X37795Y15354
X38976
X36614
X35433
X34252
X33071
X31890
X30709
Y14567
Y13780
X30315Y14173
Y13386
X30709Y12992
X29921
Y12205
X30709
X30315Y11811
X30709Y11417
X30315Y11024
X30709Y10630
X29921
Y11417
X29528Y11024
Y11811
Y13386
Y14173
X29921Y13780
Y14567
X29528Y15354
X28346
X27165
X25984
X24803
Y14567
X25591
Y13780
X25197Y14173
X24803Y13780
X25197Y13386
X24803Y12992
X25591
Y12205
Y11417
X24803
X25197Y11024
X24803Y10630
X25591
X25492Y9350
X24902
X24311
X24409Y11024
Y11811
X25197
X24803Y12205
X24409Y13386
Y14173
X23622Y15354
X22441
X21260
X24311Y7185
Y6594
X24902
X25492
Y7185
X24902
X29429
Y6594
X30020
X30610
Y7185
X30020
Y9350
X29429
X30610
X34547
X35138
X35728
X35827Y10630
Y11417
Y12205
X35433Y11811
X35039Y12205
Y11417
X35433Y11024
X35039Y10630
X34646Y11024
Y11811
X35039Y12992
X35827
Y13780
Y14567
X35433Y14173
Y13386
X35039Y13780
Y14567
X34646Y14173
Y13386
X34547Y7185
Y6594
X35138
X35728
Y7185
X35138
X20374
Y6594
X19783
Y7185
X19193
Y6594
Y9350
X19783
X20374
X20472Y10630
X20079Y11024
X20472Y11417
Y12205
X20079Y11811
X19685Y12205
Y11417
Y10630
X19291Y11024
Y11811
X19685Y12992
X19291Y13386
X20079
Y14173
X20472Y13780
Y14567
X19685
Y13780
X19291Y14173
X18898Y15354
X20079
X17717
X16535
X15354
Y14567
Y13780
X14961Y14173
Y13386
X15354Y12992
Y12205
Y11417
X14567
X14961Y11024
X14567Y10630
X15354
X15256Y9350
X14665
X14075
X14173Y11024
Y11811
X14961
X14567Y12205
X14567Y12992
Y13780
Y14567
X14173Y14173
Y13386
X13189Y12992
X12402
X11713Y13189
X11122
Y13780
X10532
X10059
Y13287
X10532
Y12795
X10059
X10020Y14272
X10532
X10433Y14665
X10138Y15059
X9646Y14567
X11122Y14370
X11713
Y13780
X12402Y14173
X13189
X12795Y13583
Y12402
X11713Y12598
X13189Y11220
X9843Y10236
X8268Y9252
X8465Y7087
X5709Y6890
X6496Y10039
X12402Y7677
X14075Y7185
Y6594
X14665
Y7185
X15256
Y6594
X20472Y12992
X4429Y12795
Y13287
X3937
Y12795
Y13780
X4429
X4528Y14272
X3937
X4232Y14665
X4626Y15059
X5020Y14567
X3937Y15354
X394
X4921Y12008
X4724Y10827
X3346Y10236
T03
X748Y1575
Y2362
Y3150
Y3937
Y4724
Y5512
X1535Y5118
Y4331
Y3543
Y2756
Y1969
X2520
Y2756
Y3543
Y4331
Y5118
X3307Y5512
Y4724
Y3937
Y3150
Y2362
Y1575
X15945
Y2362
Y3150
Y3937
Y4724
Y5512
X16732Y5118
Y4331
Y3543
Y2756
Y1969
X17717
Y2756
Y3543
Y4331
Y5118
X18504Y5512
Y4724
Y3937
Y3150
Y2362
Y1575
X21063
Y2362
Y3150
Y3937
Y4724
Y5512
X21850Y5118
Y4331
Y3543
Y2756
Y1969
X22835
Y2756
Y3543
Y4331
Y5118
X23622Y5512
Y4724
Y3937
Y3150
Y2362
Y1575
X26181
Y2362
Y3150
Y3937
Y4724
Y5512
X26969Y5118
Y4331
Y3543
Y2756
Y1969
X27953
Y2756
Y3543
Y4331
Y5118
X28740Y5512
Y4724
Y3937
Y3150
Y2362
Y1575
X31299
Y2362
Y3150
Y3937
Y4724
Y5512
X32087Y5118
Y4331
Y3543
Y2756
Y1969
X33071
Y2756
Y3543
Y4331
Y5118
X33858Y5512
Y4724
Y3937
Y3150
Y2362
Y1575
X36417
Y2362
Y3150
Y3937
Y4724
Y5512
X37205Y5118
Y4331
Y3543
Y2756
Y1969
X38189
Y2756
Y3543
Y4331
Y5118
X38976Y5512
Y4724
Y3937
Y3150
Y2362
Y1575
Y6299
Y7087
Y7874
Y8661
Y9449
X38189Y9055
Y8268
Y7480
Y6693
Y5906
X37205
Y6693
Y7480
Y8268
Y9055
Y10630
Y11417
Y12205
Y12992
Y13780
Y14567
X38189
Y13780
Y12992
Y12205
Y11417
Y10630
X38976Y11024
Y11811
Y12598
Y13386
Y14173
X36417
Y13386
Y12598
Y11811
Y11024
Y9449
Y8661
Y7874
Y7087
Y6299
X33858
Y7087
Y7874
Y8661
Y9449
X33071Y9055
Y8268
Y7480
Y6693
Y5906
X32087
Y6693
Y7480
Y8268
Y9055
X31299Y9449
Y8661
Y7874
Y7087
Y6299
X28740
Y7087
Y7874
Y8661
Y9449
X27953Y9055
Y8268
Y7480
Y6693
Y5906
X26969
Y6693
Y7480
Y8268
Y9055
X26181Y9449
Y8661
Y7874
Y7087
Y6299
X23622
Y7087
Y7874
Y8661
Y9449
X22835Y9055
Y8268
Y7480
Y6693
Y5906
X21850
Y6693
Y7480
Y8268
Y9055
Y10630
Y11417
Y12205
Y12992
Y13780
Y14567
X22835
Y13780
Y12992
Y12205
Y11417
Y10630
X23622Y11024
Y11811
Y12598
Y13386
Y14173
X26181
Y13386
Y12598
Y11811
Y11024
X26969Y11417
Y12205
Y12992
Y13780
Y14567
X27953
Y13780
Y12992
Y12205
Y11417
Y10630
X26969
X28740Y11024
Y11811
Y12598
Y13386
Y14173
X31299
Y13386
Y12598
Y11811
Y11024
X32087Y11417
Y12205
Y12992
Y13780
Y14567
X33071
Y13780
Y12992
Y12205
Y11417
Y10630
X32087
X33858Y11024
Y11811
Y12598
Y13386
Y14173
X21063
Y13386
Y12598
Y11811
Y11024
Y9449
Y8661
Y7874
Y7087
Y6299
X18504
Y7087
Y7874
Y8661
Y9449
X17717Y9055
Y8268
Y7480
Y6693
Y5906
X16732
Y6693
Y7480
Y8268
Y9055
X15945Y9449
Y8661
Y7874
Y7087
Y6299
Y11024
Y11811
Y12598
Y13386
Y14173
X16732Y14567
Y13780
Y12992
Y12205
Y11417
Y10630
X17717
Y11417
Y12205
Y12992
Y13780
Y14567
X18504Y14173
Y13386
Y12598
Y11811
Y11024
X3307
Y11811
Y12598
Y13386
Y14173
X2520Y14567
Y13780
Y12992
Y12205
Y11417
Y10630
X1535
Y11417
Y12205
Y12992
Y13780
Y14567
X748Y14173
Y13386
Y12598
Y11811
Y11024
Y9449
Y8661
Y7874
Y7087
Y6299
X1535Y5906
Y6693
Y7480
Y8268
Y9055
X2520
Y8268
Y7480
Y6693
Y5906
X3307Y6299
Y7087
Y7874
Y8661
Y9449
T04
X5539Y1520
X5039Y2520
X5528Y4921
X6528
X7528
X8528
X9528
X9606Y3701
X9039Y2520
X8039
X7039
X6039
X6539Y1520
X7539
X8539
X9539
X7638Y3701
X12520Y3622
Y2622
Y4622
Y5622
Y6622
Y8622
Y9622
Y10622
Y11622
X11181Y12559
X11181Y10591
X10449Y9488
X9449
X9949Y8488
X10949
X7500
X6500
X7000Y9488
X6000
X6028Y5921
X7028
X8028
X9028
X5028
X5500Y8488
X5000Y9488
T05
X6693Y15157
X8071
X9449
X11417
X12795
X5315
T06
X14606Y2756
Y5512
X19724
Y2756
X24843
Y5512
X29961
X29961Y2756
X35079
Y5512
Y8268
X29961
X24843
X19724Y8268
X14606Y8268
T07
X4488Y1811
X10079Y5630
X8898Y8780
X4449
T08
X2028Y866
X17224
X22343
X27461
X32579
X37697
Y9980
X32579
X27461
X22343
X17224
X2028
M30
