M48
;Layer_Color=9474304
;FILE_FORMAT=2:4
INCH,TZ
;TYPE=PLATED
T1F00S00C0.0157
T2F00S00C0.0236
T3F00S00C0.0315
T4F00S00C0.0551
T5F00S00C0.1024
;TYPE=NON_PLATED
T6F00S00C0.0276
T7F00S00C0.0315
T8F00S00C0.0591
T9F00S00C0.0925
%
T01
X2559Y12594
X3504Y12315
X3858Y12638
X3780Y13858
T02
X394Y394
Y1575
Y2756
Y3937
X1575Y394
X2756
X10039Y5118
X14075Y4429
Y3839
X14665
Y4429
X15256
Y3839
Y1673
X14665
X14075
X19193
X19783
X20374
Y3839
X19783
Y4429
X20374
X19193
Y3839
X24311
X24902
X25492
Y4429
X24902
X24311
Y1673
X24902
X25492
X29429
X30020
X30610
Y3839
X30020
X29429
Y4429
X30020
X30610
X34547
Y3839
X35138
X35728
Y4429
X35138
Y1673
X34547
X35728
X37795Y15354
X38976
X36614
X35433
X34252
X33071
X31890
X30709
Y14567
Y13780
X30315Y14173
Y13386
X30709Y12992
X29921
Y12205
X30709
X30315Y11811
X30709Y11417
X30315Y11024
X30709Y10630
X29921
Y11417
X29528Y11024
Y11811
Y13386
Y14173
X29921Y13780
Y14567
X29528Y15354
X28346
X27165
X25984
X24803
Y14567
X25591
Y13780
X25197Y14173
X24803Y13780
X25197Y13386
X24803Y12992
X25591
Y12205
Y11417
X24803
X25197Y11024
X24803Y10630
X25591
X25492Y9350
X24902
X24311
X24409Y11024
Y11811
X25197
X24803Y12205
X24409Y13386
Y14173
X23622Y15354
X22441
X21260
X24311Y7185
Y6594
X24902
X25492
Y7185
X24902
X29429
Y6594
X30020
X30610
Y7185
X30020
Y9350
X29429
X30610
X34547
X35138
X35728
X35827Y10630
Y11417
Y12205
X35433Y11811
X35039Y12205
Y11417
X35433Y11024
X35039Y10630
X34646Y11024
Y11811
X35039Y12992
X35827
Y13780
Y14567
X35433Y14173
Y13386
X35039Y13780
Y14567
X34646Y14173
Y13386
X34547Y7185
Y6594
X35138
X35728
Y7185
X35138
X20374
Y6594
X19783
Y7185
X19193
Y6594
Y9350
X19783
X20374
X20472Y10630
X20079Y11024
X20472Y11417
Y12205
X20079Y11811
X19685Y12205
Y11417
Y10630
X19291Y11024
Y11811
X19685Y12992
X19291Y13386
X20079
Y14173
X20472Y13780
Y14567
X19685
Y13780
X19291Y14173
X18898Y15354
X20079
X17717
X16535
X15354
Y14567
Y13780
X14961Y14173
Y13386
X15354Y12992
Y12205
Y11417
X14567
X14961Y11024
X14567Y10630
X15354
X15256Y9350
X14665
X14075
X14173Y11024
Y11811
X14961
X14567Y12205
X14567Y12992
Y13780
Y14567
X14173Y14173
Y13386
Y15354
X13189
X12205
X11220
X10236
X8858Y14173
Y13189
Y12205
X10039Y11220
X7677Y10039
X6299
X6594Y12795
X6988
Y13287
X6594
Y13780
X6988
Y14272
X6594
X6890Y14665
X6594Y15059
X6102Y14567
X9055Y6496
X14075Y6594
X14665
Y7185
X14075
X15256
Y6594
X20472Y12992
X3937Y10039
X5118Y8465
X4331Y7087
X3150Y7283
X1575
X2756Y5906
X5118Y6299
X394Y10630
Y11811
Y12795
X886
Y13287
X394
Y13780
X886
X984Y14272
X394
X689Y14665
X1083Y15059
X1476Y14567
T03
X1535Y2622
Y3622
Y4622
Y5622
X2362Y3346
X4331Y3346
X4528Y1969
X5528
X5028Y969
Y4315
X5528Y5315
X4528
X6528
X7528
X8028Y4315
X7028
X6028
X6528Y1969
X7528
X8028Y969
X7028
X6028
X7035Y7701
X8035
X9035
X8535Y8701
X7535
X6535
X7323Y11614
X9291Y11614
X1535Y11622
Y10622
Y9622
Y8622
X3150Y8701
X4150
X3650Y7701
X4650
X1535Y6622
T04
X5906Y15157
X7874
X9252
X4528
X3150
X1772
T05
X14606Y2756
Y5512
X19724
Y2756
X24843
Y5512
X29961
X29961Y2756
X35079
Y5512
Y8268
X29961
X24843
X19724Y8268
X14606Y8268
T06
X10827Y1575
Y2362
Y3150
Y3937
Y4724
Y5512
X11614Y5118
Y4331
Y3543
Y2756
Y1969
X12598
Y2756
Y3543
Y4331
Y5118
X13386Y5512
Y4724
Y3937
Y3150
Y2362
Y1575
X15945
Y2362
Y3150
Y3937
Y4724
Y5512
X16732Y5118
Y4331
Y3543
Y2756
Y1969
X17717
Y2756
Y3543
Y4331
Y5118
X18504Y5512
Y4724
Y3937
Y3150
Y2362
Y1575
X21063
Y2362
Y3150
Y3937
Y4724
Y5512
X21850Y5118
Y4331
Y3543
Y2756
Y1969
X22835
Y2756
Y3543
Y4331
Y5118
X23622Y5512
Y4724
Y3937
Y3150
Y2362
Y1575
X26181
Y2362
Y3150
Y3937
Y4724
Y5512
X26969Y5118
Y4331
Y3543
Y2756
Y1969
X27953
Y2756
Y3543
Y4331
Y5118
X28740Y5512
Y4724
Y3937
Y3150
Y2362
Y1575
X31299
Y2362
Y3150
Y3937
Y4724
Y5512
X32087Y5118
Y4331
Y3543
Y2756
Y1969
X33071
Y2756
Y3543
Y4331
Y5118
X33858Y5512
Y4724
Y3937
Y3150
Y2362
Y1575
X36417
Y2362
Y3150
Y3937
Y4724
Y5512
X37205Y5118
Y4331
Y3543
Y2756
Y1969
X38189
Y2756
Y3543
Y4331
Y5118
X38976Y5512
Y4724
Y3937
Y3150
Y2362
Y1575
Y6299
Y7087
Y7874
Y8661
Y9449
X38189Y9055
Y8268
Y7480
Y6693
Y5906
X37205
Y6693
Y7480
Y8268
Y9055
Y10630
Y11417
Y12205
Y12992
Y13780
Y14567
X38189
Y13780
Y12992
Y12205
Y11417
Y10630
X38976Y11024
Y11811
Y12598
Y13386
Y14173
X36417
Y13386
Y12598
Y11811
Y11024
Y9449
Y8661
Y7874
Y7087
Y6299
X33858
Y7087
Y7874
Y8661
Y9449
X33071Y9055
Y8268
Y7480
Y6693
Y5906
X32087
Y6693
Y7480
Y8268
Y9055
X31299Y9449
Y8661
Y7874
Y7087
Y6299
X28740
Y7087
Y7874
Y8661
Y9449
X27953Y9055
Y8268
Y7480
Y6693
Y5906
X26969
Y6693
Y7480
Y8268
Y9055
X26181Y9449
Y8661
Y7874
Y7087
Y6299
X23622
Y7087
Y7874
Y8661
Y9449
X22835Y9055
Y8268
Y7480
Y6693
Y5906
X21850
Y6693
Y7480
Y8268
Y9055
Y10630
Y11417
Y12205
Y12992
Y13780
Y14567
X22835
Y13780
Y12992
Y12205
Y11417
Y10630
X23622Y11024
Y11811
Y12598
Y13386
Y14173
X26181
Y13386
Y12598
Y11811
Y11024
X26969Y11417
Y12205
Y12992
Y13780
Y14567
X27953
Y13780
Y12992
Y12205
Y11417
Y10630
X26969
X28740Y11024
Y11811
Y12598
Y13386
Y14173
X31299
Y13386
Y12598
Y11811
Y11024
X32087Y11417
Y12205
Y12992
Y13780
Y14567
X33071
Y13780
Y12992
Y12205
Y11417
Y10630
X32087
X33858Y11024
Y11811
Y12598
Y13386
Y14173
X21063
Y13386
Y12598
Y11811
Y11024
Y9449
Y8661
Y7874
Y7087
Y6299
X18504
Y7087
Y7874
Y8661
Y9449
X17717Y9055
Y8268
Y7480
Y6693
Y5906
X16732
Y6693
Y7480
Y8268
Y9055
X15945Y9449
Y8661
Y7874
Y7087
Y6299
X13386
Y7087
Y7874
Y8661
Y9449
X12598Y9055
Y8268
Y7480
Y6693
Y5906
X11614
Y6693
Y7480
Y8268
Y9055
X10827Y9449
Y8661
Y7874
Y7087
Y6299
Y11024
Y11811
Y12598
Y13386
Y14173
X11614Y14567
Y13780
Y12992
Y12205
Y11417
Y10630
X12598
Y11417
Y12205
Y12992
Y13780
Y14567
X13386Y14173
Y13386
Y12598
Y11811
Y11024
X15945
Y11811
Y12598
Y13386
Y14173
X16732Y14567
Y13780
Y12992
Y12205
Y11417
Y10630
X17717
Y11417
Y12205
Y12992
Y13780
Y14567
X18504Y14173
Y13386
Y12598
Y11811
Y11024
T07
X9028Y969
X8528Y1969
X9028Y4315
X8528Y5315
T08
X3976Y1260
Y4606
X5984Y7992
X2598
T09
X12106Y866
X17224
X22343
X27461
X32579
X37697
Y9980
X32579
X27461
X22343
X17224
X12106
M30
