G04 Layer_Color=16711935*
%FSLAX24Y24*%
%MOIN*%
G70*
G01*
G75*
%ADD37R,0.0610X0.0610*%
%ADD38C,0.0610*%
%ADD39C,0.1024*%
%ADD40R,0.0610X0.0610*%
%ADD41C,0.1732*%
%ADD42C,0.0591*%
%ADD43C,0.0079*%
%ADD44C,0.0551*%
%ADD45O,0.0780X0.0362*%
%ADD46R,0.0780X0.0362*%
%ADD47R,0.1654X0.1890*%
D37*
X9606Y3701D02*
D03*
D38*
X7638Y3701D02*
D03*
X11181Y10591D02*
D03*
D39*
X11417Y15157D02*
D03*
X12795D02*
D03*
X5315D02*
D03*
X8071D02*
D03*
X9449D02*
D03*
X6693D02*
D03*
D40*
X11181Y12559D02*
D03*
D41*
X14606Y2756D02*
D03*
Y5512D02*
D03*
Y8268D02*
D03*
X19724Y2756D02*
D03*
Y5512D02*
D03*
X19724Y8268D02*
D03*
X24843Y2756D02*
D03*
Y5512D02*
D03*
Y8268D02*
D03*
X29961Y2756D02*
D03*
X29961Y5512D02*
D03*
X29961Y8268D02*
D03*
X35079Y2756D02*
D03*
Y5512D02*
D03*
Y8268D02*
D03*
D42*
X12520Y2622D02*
D03*
Y3622D02*
D03*
Y4622D02*
D03*
Y5622D02*
D03*
Y6622D02*
D03*
Y8622D02*
D03*
Y9622D02*
D03*
Y10622D02*
D03*
Y11622D02*
D03*
X7500Y8488D02*
D03*
X7000Y9488D02*
D03*
X6500Y8488D02*
D03*
X6000Y9488D02*
D03*
X5500Y8488D02*
D03*
X5000Y9488D02*
D03*
X9449D02*
D03*
X9949Y8488D02*
D03*
X10449Y9488D02*
D03*
X10949Y8488D02*
D03*
X6028Y5921D02*
D03*
X6528Y4921D02*
D03*
X7028Y5921D02*
D03*
X7528Y4921D02*
D03*
X8028Y5921D02*
D03*
X8528Y4921D02*
D03*
X9028Y5921D02*
D03*
X9528Y4921D02*
D03*
X5528D02*
D03*
X5028Y5921D02*
D03*
X8539Y1520D02*
D03*
X8039Y2520D02*
D03*
X7539Y1520D02*
D03*
X7039Y2520D02*
D03*
X6539Y1520D02*
D03*
X6039Y2520D02*
D03*
X5539Y1520D02*
D03*
X5039Y2520D02*
D03*
X9039D02*
D03*
X9539Y1520D02*
D03*
D43*
X4449Y8780D02*
D03*
X8898D02*
D03*
X17224Y9980D02*
D03*
Y866D02*
D03*
X22343Y9980D02*
D03*
Y866D02*
D03*
X27461Y9980D02*
D03*
Y866D02*
D03*
X32579Y9980D02*
D03*
Y866D02*
D03*
X37697Y9980D02*
D03*
Y866D02*
D03*
X2028Y9980D02*
D03*
Y866D02*
D03*
X10079Y5630D02*
D03*
X4488Y1811D02*
D03*
D44*
X17717Y6693D02*
D03*
X16732D02*
D03*
X17717Y14567D02*
D03*
X18504Y14173D02*
D03*
X17717Y13780D02*
D03*
X18504Y13386D02*
D03*
X17717Y12992D02*
D03*
X18504Y12598D02*
D03*
X17717Y12205D02*
D03*
X18504Y11811D02*
D03*
X17717Y11417D02*
D03*
X18504Y11024D02*
D03*
X17717Y10630D02*
D03*
X18504Y9449D02*
D03*
X17717Y9055D02*
D03*
X18504Y8661D02*
D03*
X17717Y8268D02*
D03*
X18504Y7874D02*
D03*
X17717Y7480D02*
D03*
X18504Y7087D02*
D03*
Y6299D02*
D03*
X17717Y5906D02*
D03*
X18504Y5512D02*
D03*
X17717Y5118D02*
D03*
X18504Y4724D02*
D03*
X17717Y4331D02*
D03*
X18504Y3937D02*
D03*
X17717Y3543D02*
D03*
X18504Y3150D02*
D03*
X17717Y2756D02*
D03*
X18504Y2362D02*
D03*
X17717Y1969D02*
D03*
X18504Y1575D02*
D03*
X16732Y14567D02*
D03*
X15945Y14173D02*
D03*
X16732Y13780D02*
D03*
X15945Y13386D02*
D03*
X16732Y12992D02*
D03*
X15945Y12598D02*
D03*
X16732Y12205D02*
D03*
X15945Y11811D02*
D03*
X16732Y11417D02*
D03*
X15945Y11024D02*
D03*
X16732Y10630D02*
D03*
X15945Y9449D02*
D03*
X16732Y9055D02*
D03*
X15945Y8661D02*
D03*
X16732Y8268D02*
D03*
X15945Y7874D02*
D03*
X16732Y7480D02*
D03*
X15945Y7087D02*
D03*
Y6299D02*
D03*
X16732Y5906D02*
D03*
X15945Y5512D02*
D03*
X16732Y5118D02*
D03*
X15945Y4724D02*
D03*
X16732Y4331D02*
D03*
X15945Y3937D02*
D03*
X16732Y3543D02*
D03*
X15945Y3150D02*
D03*
X16732Y2756D02*
D03*
X15945Y2362D02*
D03*
X16732Y1969D02*
D03*
X15945Y1575D02*
D03*
X22835Y6693D02*
D03*
X21850D02*
D03*
X22835Y14567D02*
D03*
X23622Y14173D02*
D03*
X22835Y13780D02*
D03*
X23622Y13386D02*
D03*
X22835Y12992D02*
D03*
X23622Y12598D02*
D03*
X22835Y12205D02*
D03*
X23622Y11811D02*
D03*
X22835Y11417D02*
D03*
X23622Y11024D02*
D03*
X22835Y10630D02*
D03*
X23622Y9449D02*
D03*
X22835Y9055D02*
D03*
X23622Y8661D02*
D03*
X22835Y8268D02*
D03*
X23622Y7874D02*
D03*
X22835Y7480D02*
D03*
X23622Y7087D02*
D03*
Y6299D02*
D03*
X22835Y5906D02*
D03*
X23622Y5512D02*
D03*
X22835Y5118D02*
D03*
X23622Y4724D02*
D03*
X22835Y4331D02*
D03*
X23622Y3937D02*
D03*
X22835Y3543D02*
D03*
X23622Y3150D02*
D03*
X22835Y2756D02*
D03*
X23622Y2362D02*
D03*
X22835Y1969D02*
D03*
X23622Y1575D02*
D03*
X21850Y14567D02*
D03*
X21063Y14173D02*
D03*
X21850Y13780D02*
D03*
X21063Y13386D02*
D03*
X21850Y12992D02*
D03*
X21063Y12598D02*
D03*
X21850Y12205D02*
D03*
X21063Y11811D02*
D03*
X21850Y11417D02*
D03*
X21063Y11024D02*
D03*
X21850Y10630D02*
D03*
X21063Y9449D02*
D03*
X21850Y9055D02*
D03*
X21063Y8661D02*
D03*
X21850Y8268D02*
D03*
X21063Y7874D02*
D03*
X21850Y7480D02*
D03*
X21063Y7087D02*
D03*
Y6299D02*
D03*
X21850Y5906D02*
D03*
X21063Y5512D02*
D03*
X21850Y5118D02*
D03*
X21063Y4724D02*
D03*
X21850Y4331D02*
D03*
X21063Y3937D02*
D03*
X21850Y3543D02*
D03*
X21063Y3150D02*
D03*
X21850Y2756D02*
D03*
X21063Y2362D02*
D03*
X21850Y1969D02*
D03*
X21063Y1575D02*
D03*
X27953Y6693D02*
D03*
X26969D02*
D03*
X27953Y14567D02*
D03*
X28740Y14173D02*
D03*
X27953Y13780D02*
D03*
X28740Y13386D02*
D03*
X27953Y12992D02*
D03*
X28740Y12598D02*
D03*
X27953Y12205D02*
D03*
X28740Y11811D02*
D03*
X27953Y11417D02*
D03*
X28740Y11024D02*
D03*
X27953Y10630D02*
D03*
X28740Y9449D02*
D03*
X27953Y9055D02*
D03*
X28740Y8661D02*
D03*
X27953Y8268D02*
D03*
X28740Y7874D02*
D03*
X27953Y7480D02*
D03*
X28740Y7087D02*
D03*
Y6299D02*
D03*
X27953Y5906D02*
D03*
X28740Y5512D02*
D03*
X27953Y5118D02*
D03*
X28740Y4724D02*
D03*
X27953Y4331D02*
D03*
X28740Y3937D02*
D03*
X27953Y3543D02*
D03*
X28740Y3150D02*
D03*
X27953Y2756D02*
D03*
X28740Y2362D02*
D03*
X27953Y1969D02*
D03*
X28740Y1575D02*
D03*
X26969Y14567D02*
D03*
X26181Y14173D02*
D03*
X26969Y13780D02*
D03*
X26181Y13386D02*
D03*
X26969Y12992D02*
D03*
X26181Y12598D02*
D03*
X26969Y12205D02*
D03*
X26181Y11811D02*
D03*
X26969Y11417D02*
D03*
X26181Y11024D02*
D03*
X26969Y10630D02*
D03*
X26181Y9449D02*
D03*
X26969Y9055D02*
D03*
X26181Y8661D02*
D03*
X26969Y8268D02*
D03*
X26181Y7874D02*
D03*
X26969Y7480D02*
D03*
X26181Y7087D02*
D03*
Y6299D02*
D03*
X26969Y5906D02*
D03*
X26181Y5512D02*
D03*
X26969Y5118D02*
D03*
X26181Y4724D02*
D03*
X26969Y4331D02*
D03*
X26181Y3937D02*
D03*
X26969Y3543D02*
D03*
X26181Y3150D02*
D03*
X26969Y2756D02*
D03*
X26181Y2362D02*
D03*
X26969Y1969D02*
D03*
X26181Y1575D02*
D03*
X33071Y6693D02*
D03*
X32087D02*
D03*
X33071Y14567D02*
D03*
X33858Y14173D02*
D03*
X33071Y13780D02*
D03*
X33858Y13386D02*
D03*
X33071Y12992D02*
D03*
X33858Y12598D02*
D03*
X33071Y12205D02*
D03*
X33858Y11811D02*
D03*
X33071Y11417D02*
D03*
X33858Y11024D02*
D03*
X33071Y10630D02*
D03*
X33858Y9449D02*
D03*
X33071Y9055D02*
D03*
X33858Y8661D02*
D03*
X33071Y8268D02*
D03*
X33858Y7874D02*
D03*
X33071Y7480D02*
D03*
X33858Y7087D02*
D03*
Y6299D02*
D03*
X33071Y5906D02*
D03*
X33858Y5512D02*
D03*
X33071Y5118D02*
D03*
X33858Y4724D02*
D03*
X33071Y4331D02*
D03*
X33858Y3937D02*
D03*
X33071Y3543D02*
D03*
X33858Y3150D02*
D03*
X33071Y2756D02*
D03*
X33858Y2362D02*
D03*
X33071Y1969D02*
D03*
X33858Y1575D02*
D03*
X32087Y14567D02*
D03*
X31299Y14173D02*
D03*
X32087Y13780D02*
D03*
X31299Y13386D02*
D03*
X32087Y12992D02*
D03*
X31299Y12598D02*
D03*
X32087Y12205D02*
D03*
X31299Y11811D02*
D03*
X32087Y11417D02*
D03*
X31299Y11024D02*
D03*
X32087Y10630D02*
D03*
X31299Y9449D02*
D03*
X32087Y9055D02*
D03*
X31299Y8661D02*
D03*
X32087Y8268D02*
D03*
X31299Y7874D02*
D03*
X32087Y7480D02*
D03*
X31299Y7087D02*
D03*
Y6299D02*
D03*
X32087Y5906D02*
D03*
X31299Y5512D02*
D03*
X32087Y5118D02*
D03*
X31299Y4724D02*
D03*
X32087Y4331D02*
D03*
X31299Y3937D02*
D03*
X32087Y3543D02*
D03*
X31299Y3150D02*
D03*
X32087Y2756D02*
D03*
X31299Y2362D02*
D03*
X32087Y1969D02*
D03*
X31299Y1575D02*
D03*
X38189Y6693D02*
D03*
X37205D02*
D03*
X38189Y14567D02*
D03*
X38976Y14173D02*
D03*
X38189Y13780D02*
D03*
X38976Y13386D02*
D03*
X38189Y12992D02*
D03*
X38976Y12598D02*
D03*
X38189Y12205D02*
D03*
X38976Y11811D02*
D03*
X38189Y11417D02*
D03*
X38976Y11024D02*
D03*
X38189Y10630D02*
D03*
X38976Y9449D02*
D03*
X38189Y9055D02*
D03*
X38976Y8661D02*
D03*
X38189Y8268D02*
D03*
X38976Y7874D02*
D03*
X38189Y7480D02*
D03*
X38976Y7087D02*
D03*
Y6299D02*
D03*
X38189Y5906D02*
D03*
X38976Y5512D02*
D03*
X38189Y5118D02*
D03*
X38976Y4724D02*
D03*
X38189Y4331D02*
D03*
X38976Y3937D02*
D03*
X38189Y3543D02*
D03*
X38976Y3150D02*
D03*
X38189Y2756D02*
D03*
X38976Y2362D02*
D03*
X38189Y1969D02*
D03*
X38976Y1575D02*
D03*
X37205Y14567D02*
D03*
X36417Y14173D02*
D03*
X37205Y13780D02*
D03*
X36417Y13386D02*
D03*
X37205Y12992D02*
D03*
X36417Y12598D02*
D03*
X37205Y12205D02*
D03*
X36417Y11811D02*
D03*
X37205Y11417D02*
D03*
X36417Y11024D02*
D03*
X37205Y10630D02*
D03*
X36417Y9449D02*
D03*
X37205Y9055D02*
D03*
X36417Y8661D02*
D03*
X37205Y8268D02*
D03*
X36417Y7874D02*
D03*
X37205Y7480D02*
D03*
X36417Y7087D02*
D03*
Y6299D02*
D03*
X37205Y5906D02*
D03*
X36417Y5512D02*
D03*
X37205Y5118D02*
D03*
X36417Y4724D02*
D03*
X37205Y4331D02*
D03*
X36417Y3937D02*
D03*
X37205Y3543D02*
D03*
X36417Y3150D02*
D03*
X37205Y2756D02*
D03*
X36417Y2362D02*
D03*
X37205Y1969D02*
D03*
X36417Y1575D02*
D03*
X2520Y6693D02*
D03*
X1535D02*
D03*
X2520Y14567D02*
D03*
X3307Y14173D02*
D03*
X2520Y13780D02*
D03*
X3307Y13386D02*
D03*
X2520Y12992D02*
D03*
X3307Y12598D02*
D03*
X2520Y12205D02*
D03*
X3307Y11811D02*
D03*
X2520Y11417D02*
D03*
X3307Y11024D02*
D03*
X2520Y10630D02*
D03*
X3307Y9449D02*
D03*
X2520Y9055D02*
D03*
X3307Y8661D02*
D03*
X2520Y8268D02*
D03*
X3307Y7874D02*
D03*
X2520Y7480D02*
D03*
X3307Y7087D02*
D03*
Y6299D02*
D03*
X2520Y5906D02*
D03*
X3307Y5512D02*
D03*
X2520Y5118D02*
D03*
X3307Y4724D02*
D03*
X2520Y4331D02*
D03*
X3307Y3937D02*
D03*
X2520Y3543D02*
D03*
X3307Y3150D02*
D03*
X2520Y2756D02*
D03*
X3307Y2362D02*
D03*
X2520Y1969D02*
D03*
X3307Y1575D02*
D03*
X1535Y14567D02*
D03*
X748Y14173D02*
D03*
X1535Y13780D02*
D03*
X748Y13386D02*
D03*
X1535Y12992D02*
D03*
X748Y12598D02*
D03*
X1535Y12205D02*
D03*
X748Y11811D02*
D03*
X1535Y11417D02*
D03*
X748Y11024D02*
D03*
X1535Y10630D02*
D03*
X748Y9449D02*
D03*
X1535Y9055D02*
D03*
X748Y8661D02*
D03*
X1535Y8268D02*
D03*
X748Y7874D02*
D03*
X1535Y7480D02*
D03*
X748Y7087D02*
D03*
Y6299D02*
D03*
X1535Y5906D02*
D03*
X748Y5512D02*
D03*
X1535Y5118D02*
D03*
X748Y4724D02*
D03*
X1535Y4331D02*
D03*
X748Y3937D02*
D03*
X1535Y3543D02*
D03*
X748Y3150D02*
D03*
X1535Y2756D02*
D03*
X748Y2362D02*
D03*
X1535Y1969D02*
D03*
X748Y1575D02*
D03*
D45*
X4260Y12594D02*
D03*
Y13094D02*
D03*
Y13594D02*
D03*
Y14094D02*
D03*
X6102Y12594D02*
D03*
Y13094D02*
D03*
Y13594D02*
D03*
X10307Y14098D02*
D03*
Y13598D02*
D03*
Y13098D02*
D03*
Y12598D02*
D03*
X8465Y14098D02*
D03*
Y13598D02*
D03*
Y13098D02*
D03*
D46*
X6102Y14094D02*
D03*
X8465Y12598D02*
D03*
D47*
X14764Y13780D02*
D03*
X19882D02*
D03*
X25000D02*
D03*
X30118D02*
D03*
X35236D02*
D03*
X14764Y11417D02*
D03*
X19882D02*
D03*
X25000D02*
D03*
X30118D02*
D03*
X35236D02*
D03*
M02*
