G04 Layer_Physical_Order=2*
G04 Layer_Color=16711680*
%FSLAX24Y24*%
%MOIN*%
G70*
G01*
G75*
%ADD14C,0.0157*%
%ADD15C,0.0197*%
%ADD16C,0.0118*%
%ADD17R,0.0532X0.0532*%
%ADD18C,0.0532*%
%ADD19C,0.0945*%
%ADD20C,0.0472*%
%ADD21C,0.1654*%
%ADD22C,0.0512*%
%ADD23C,0.0276*%
%ADD24C,0.0394*%
%ADD25O,0.0701X0.0283*%
%ADD26R,0.0701X0.0283*%
%ADD27R,0.1575X0.1811*%
%ADD28C,0.0394*%
%ADD29C,0.0630*%
G36*
X28543Y6693D02*
X29134D01*
Y5886D01*
X29120Y5860D01*
X29068Y5689D01*
X29051Y5512D01*
X29068Y5334D01*
X29120Y5164D01*
X29134Y5138D01*
Y4411D01*
X28543D01*
X28513Y4405D01*
X28487Y4387D01*
X28487Y4387D01*
X28116Y4017D01*
X26805D01*
X26435Y4387D01*
X26409Y4405D01*
X26378Y4411D01*
X25984D01*
X25984Y4411D01*
X25954Y4405D01*
X25927Y4387D01*
X25754Y4214D01*
X24096D01*
Y4331D01*
X24090Y4361D01*
X24084Y4371D01*
X24090Y4380D01*
X24096Y4411D01*
Y5138D01*
X24095Y5142D01*
X24096Y5146D01*
X24092Y5157D01*
X24090Y5168D01*
X24088Y5172D01*
X24087Y5176D01*
X24076Y5194D01*
X24029Y5350D01*
X24016Y5487D01*
Y5537D01*
X24029Y5674D01*
X24076Y5829D01*
X24087Y5848D01*
X24088Y5852D01*
X24090Y5855D01*
X24092Y5867D01*
X24096Y5878D01*
X24095Y5882D01*
X24096Y5886D01*
Y6693D01*
X24090Y6724D01*
X24084Y6733D01*
X24090Y6742D01*
X24096Y6773D01*
Y6890D01*
X25787D01*
X25984Y6693D01*
X26378D01*
X26772Y7087D01*
X28150D01*
X28543Y6693D01*
D02*
G37*
G36*
X33661D02*
X34252D01*
Y5886D01*
X34238Y5860D01*
X34186Y5689D01*
X34169Y5512D01*
X34186Y5334D01*
X34238Y5164D01*
X34252Y5138D01*
Y4411D01*
X33661D01*
X33661Y4411D01*
X33631Y4405D01*
X33605Y4387D01*
X33605Y4387D01*
X33234Y4017D01*
X31923D01*
X31553Y4387D01*
X31527Y4405D01*
X31496Y4411D01*
X31102D01*
X31102Y4411D01*
X31072Y4405D01*
X31046Y4387D01*
X30872Y4214D01*
X29214D01*
Y4331D01*
X29208Y4361D01*
X29202Y4371D01*
X29208Y4380D01*
X29214Y4411D01*
Y5138D01*
X29213Y5142D01*
X29214Y5146D01*
X29210Y5157D01*
X29208Y5168D01*
X29206Y5172D01*
X29205Y5176D01*
X29195Y5194D01*
X29147Y5350D01*
X29134Y5487D01*
Y5537D01*
X29147Y5674D01*
X29195Y5829D01*
X29205Y5848D01*
X29206Y5852D01*
X29208Y5855D01*
X29210Y5867D01*
X29214Y5878D01*
X29213Y5882D01*
X29214Y5886D01*
Y6693D01*
X29208Y6724D01*
X29202Y6733D01*
X29208Y6742D01*
X29214Y6773D01*
Y6890D01*
X30906D01*
X31102Y6693D01*
X31496D01*
X31890Y7087D01*
X33268D01*
X33661Y6693D01*
D02*
G37*
G36*
X18307D02*
X18898D01*
Y5886D01*
X18884Y5860D01*
X18832Y5689D01*
X18815Y5512D01*
X18832Y5334D01*
X18884Y5164D01*
X18898Y5138D01*
Y4411D01*
X18307D01*
X18276Y4405D01*
X18250Y4387D01*
X18250Y4387D01*
X17880Y4017D01*
X16569D01*
X16199Y4387D01*
X16172Y4405D01*
X16142Y4411D01*
X15748D01*
X15748Y4411D01*
X15717Y4405D01*
X15691Y4387D01*
X15518Y4214D01*
X13780D01*
Y6890D01*
X15551D01*
X15748Y6693D01*
X16142D01*
X16535Y7087D01*
X17913D01*
X18307Y6693D01*
D02*
G37*
G36*
X23425D02*
X24016D01*
Y5886D01*
X24002Y5860D01*
X23950Y5689D01*
X23933Y5512D01*
X23950Y5334D01*
X24002Y5164D01*
X24016Y5138D01*
Y4411D01*
X23425D01*
X23394Y4405D01*
X23368Y4387D01*
X23368Y4387D01*
X22998Y4017D01*
X21687D01*
X21317Y4387D01*
X21291Y4405D01*
X21260Y4411D01*
X20866D01*
X20835Y4405D01*
X20809Y4387D01*
X20809Y4387D01*
X20636Y4214D01*
X18978D01*
Y4331D01*
X18972Y4361D01*
X18966Y4371D01*
X18972Y4380D01*
X18978Y4411D01*
Y5138D01*
X18977Y5142D01*
X18978Y5146D01*
X18974Y5157D01*
X18972Y5168D01*
X18970Y5172D01*
X18968Y5176D01*
X18958Y5194D01*
X18911Y5350D01*
X18898Y5487D01*
Y5537D01*
X18911Y5674D01*
X18958Y5829D01*
X18968Y5848D01*
X18970Y5852D01*
X18972Y5855D01*
X18974Y5867D01*
X18978Y5878D01*
X18977Y5882D01*
X18978Y5886D01*
Y6693D01*
X18972Y6724D01*
X18966Y6733D01*
X18972Y6742D01*
X18978Y6773D01*
Y6890D01*
X20669D01*
X20866Y6693D01*
X21260D01*
X21654Y7087D01*
X23031D01*
X23425Y6693D01*
D02*
G37*
G36*
X13111Y7715D02*
X13161Y7649D01*
X13227Y7599D01*
X13304Y7567D01*
X13386Y7556D01*
X13468Y7567D01*
X13504Y7582D01*
X13603Y7532D01*
X13622Y7509D01*
Y6664D01*
X13603Y6641D01*
X13504Y6591D01*
X13468Y6606D01*
X13386Y6617D01*
X13304Y6606D01*
X13227Y6574D01*
X13161Y6524D01*
X13111Y6458D01*
X13079Y6381D01*
X13068Y6299D01*
X13079Y6217D01*
X13111Y6140D01*
X13161Y6075D01*
X13227Y6024D01*
X13304Y5992D01*
X13386Y5982D01*
X13468Y5992D01*
X13582Y5931D01*
X13589Y5906D01*
X13582Y5880D01*
X13468Y5819D01*
X13386Y5829D01*
X13304Y5819D01*
X13227Y5787D01*
X13161Y5736D01*
X13111Y5671D01*
X13079Y5594D01*
X13068Y5512D01*
X13079Y5430D01*
X13111Y5353D01*
X13161Y5287D01*
X13227Y5237D01*
X13304Y5205D01*
X13386Y5194D01*
X13468Y5205D01*
X13582Y5144D01*
X13589Y5118D01*
X13582Y5092D01*
X13468Y5031D01*
X13386Y5042D01*
X13304Y5031D01*
X13227Y5000D01*
X13161Y4949D01*
X13111Y4883D01*
X13079Y4807D01*
X13068Y4724D01*
X13079Y4642D01*
X13111Y4566D01*
X13161Y4500D01*
X13227Y4449D01*
X13304Y4418D01*
X13386Y4407D01*
X13468Y4418D01*
X13582Y4356D01*
X13589Y4331D01*
X13582Y4305D01*
X13468Y4244D01*
X13386Y4255D01*
X13304Y4244D01*
X13227Y4212D01*
X13161Y4162D01*
X13111Y4096D01*
X13079Y4019D01*
X13068Y3937D01*
X12780D01*
X12756Y4055D01*
X12757Y4056D01*
X12823Y4106D01*
X12874Y4172D01*
X12905Y4248D01*
X12916Y4331D01*
X12905Y4413D01*
X12874Y4490D01*
X12823Y4555D01*
X12757Y4606D01*
X12681Y4638D01*
X12598Y4648D01*
X12516Y4638D01*
X12473Y4620D01*
X12372Y4679D01*
Y4770D01*
X12473Y4829D01*
X12516Y4811D01*
X12598Y4800D01*
X12681Y4811D01*
X12757Y4843D01*
X12823Y4893D01*
X12874Y4959D01*
X12905Y5036D01*
X12916Y5118D01*
X12905Y5200D01*
X12874Y5277D01*
X12823Y5343D01*
X12757Y5393D01*
X12681Y5425D01*
X12598Y5436D01*
X12516Y5425D01*
X12473Y5407D01*
X12372Y5466D01*
Y5558D01*
X12473Y5617D01*
X12516Y5599D01*
X12598Y5588D01*
X12681Y5599D01*
X12757Y5630D01*
X12823Y5681D01*
X12874Y5747D01*
X12905Y5823D01*
X12916Y5906D01*
X12905Y5988D01*
X12874Y6064D01*
X12823Y6130D01*
X12757Y6181D01*
X12681Y6212D01*
X12598Y6223D01*
X12516Y6212D01*
X12463Y6190D01*
X12388Y6222D01*
X12345Y6257D01*
Y7028D01*
X12498Y7181D01*
X12516Y7173D01*
X12598Y7163D01*
X12681Y7173D01*
X12757Y7205D01*
X12823Y7256D01*
X12874Y7321D01*
X12905Y7398D01*
X12916Y7480D01*
X12905Y7563D01*
X12883Y7615D01*
X12915Y7691D01*
X12950Y7734D01*
X13103D01*
X13111Y7715D01*
D02*
G37*
G36*
X6447Y10423D02*
X6855Y10016D01*
Y7984D01*
X6797Y7939D01*
X6743Y7870D01*
X6709Y7788D01*
X6698Y7701D01*
X6709Y7613D01*
X6739Y7542D01*
X6725Y7502D01*
X6677Y7424D01*
X5913D01*
X5801Y7535D01*
X5868Y7635D01*
X5887Y7628D01*
X5984Y7615D01*
X6082Y7628D01*
X6173Y7665D01*
X6251Y7725D01*
X6311Y7804D01*
X6349Y7894D01*
X6361Y7992D01*
X6349Y8090D01*
X6311Y8181D01*
X6251Y8259D01*
X6173Y8319D01*
X6082Y8357D01*
X5984Y8369D01*
X5887Y8357D01*
X5796Y8319D01*
X5717Y8259D01*
X5658Y8181D01*
X5620Y8090D01*
X5607Y7992D01*
X5620Y7894D01*
X5628Y7876D01*
X5527Y7809D01*
X5143Y8194D01*
X5097Y8224D01*
X5043Y8235D01*
X4814D01*
X4464Y8585D01*
X4476Y8613D01*
X4487Y8701D01*
X4476Y8788D01*
X4442Y8870D01*
X4388Y8939D01*
X4318Y8993D01*
X4237Y9027D01*
X4150Y9038D01*
X4062Y9027D01*
X3981Y8993D01*
X3948Y8968D01*
X3832Y9017D01*
X3830Y9019D01*
Y9508D01*
X3816Y9577D01*
X3777Y9636D01*
X3091Y10322D01*
X3137Y10431D01*
X6442D01*
X6447Y10423D01*
D02*
G37*
G36*
X38780Y6693D02*
X39250D01*
Y4411D01*
X38780D01*
X38749Y4405D01*
X38723Y4387D01*
X38723Y4387D01*
X38353Y4017D01*
X37041D01*
X36671Y4387D01*
X36645Y4405D01*
X36614Y4411D01*
X36220D01*
X36220Y4411D01*
X36190Y4405D01*
X36164Y4387D01*
X35990Y4214D01*
X34332D01*
Y4331D01*
X34326Y4361D01*
X34320Y4371D01*
X34326Y4380D01*
X34332Y4411D01*
Y5138D01*
X34331Y5142D01*
X34332Y5146D01*
X34328Y5157D01*
X34326Y5168D01*
X34324Y5172D01*
X34323Y5176D01*
X34313Y5194D01*
X34265Y5350D01*
X34252Y5487D01*
Y5537D01*
X34265Y5674D01*
X34313Y5829D01*
X34323Y5848D01*
X34324Y5852D01*
X34326Y5855D01*
X34328Y5867D01*
X34332Y5878D01*
X34331Y5882D01*
X34332Y5886D01*
Y6693D01*
X34326Y6724D01*
X34320Y6733D01*
X34326Y6742D01*
X34332Y6773D01*
Y6890D01*
X36024D01*
X36220Y6693D01*
X36614D01*
X37008Y7087D01*
X38386D01*
X38780Y6693D01*
D02*
G37*
G36*
X981Y12212D02*
X788Y12019D01*
X744Y11961D01*
X716Y11894D01*
X706Y11823D01*
Y10288D01*
X473Y10055D01*
X429Y9997D01*
X401Y9930D01*
X391Y9858D01*
Y4488D01*
X401Y4416D01*
X429Y4349D01*
X473Y4292D01*
X1206Y3558D01*
X1209Y3535D01*
X1243Y3453D01*
X1297Y3383D01*
X1367Y3330D01*
X1448Y3296D01*
X1535Y3285D01*
X1623Y3296D01*
X1704Y3330D01*
X1774Y3383D01*
X1828Y3453D01*
X1861Y3535D01*
X1873Y3622D01*
X1861Y3709D01*
X1828Y3791D01*
X1774Y3861D01*
X1704Y3914D01*
X1623Y3948D01*
X1599Y3951D01*
X947Y4603D01*
Y9650D01*
X1065Y9699D01*
X1206Y9558D01*
X1209Y9535D01*
X1243Y9453D01*
X1297Y9383D01*
X1367Y9330D01*
X1448Y9296D01*
X1535Y9285D01*
X1623Y9296D01*
X1704Y9330D01*
X1774Y9383D01*
X1828Y9453D01*
X1861Y9535D01*
X1873Y9622D01*
X1861Y9709D01*
X1828Y9791D01*
X1774Y9861D01*
X1704Y9914D01*
X1623Y9948D01*
X1599Y9951D01*
X1262Y10288D01*
Y11261D01*
X1329Y11305D01*
X1380Y11324D01*
X1448Y11296D01*
X1471Y11293D01*
X2252Y10512D01*
X2310Y10468D01*
X2377Y10440D01*
X2449Y10431D01*
X2471D01*
X3469Y9433D01*
Y7984D01*
X3411Y7939D01*
X3357Y7870D01*
X3324Y7788D01*
X3312Y7701D01*
X3324Y7613D01*
X3357Y7532D01*
X3411Y7462D01*
X3481Y7408D01*
X3489Y7405D01*
Y7050D01*
X3371Y6986D01*
X3323Y7006D01*
X3220Y7019D01*
X1535D01*
X1433Y7006D01*
X1337Y6966D01*
X1255Y6903D01*
X1192Y6821D01*
X1152Y6725D01*
X1138Y6622D01*
X1152Y6519D01*
X1192Y6424D01*
X1255Y6341D01*
X1337Y6278D01*
X1433Y6238D01*
X1535Y6225D01*
X3056D01*
X4247Y5034D01*
X4311Y4970D01*
X4233Y4881D01*
X4165Y4933D01*
X4074Y4971D01*
X3976Y4984D01*
X3879Y4971D01*
X3788Y4933D01*
X3710Y4873D01*
X3650Y4795D01*
X3612Y4704D01*
X3599Y4606D01*
X3612Y4509D01*
X3650Y4418D01*
X3710Y4340D01*
X3788Y4280D01*
X3879Y4242D01*
X3976Y4229D01*
X4074Y4242D01*
X4165Y4280D01*
X4243Y4340D01*
X4303Y4418D01*
X4341Y4509D01*
X4354Y4606D01*
X4341Y4704D01*
X4303Y4795D01*
X4251Y4863D01*
X4340Y4941D01*
X4630Y4650D01*
Y4208D01*
X4360Y3937D01*
X3543D01*
Y120D01*
X120D01*
Y12321D01*
X936D01*
X981Y12212D01*
D02*
G37*
G36*
X24016Y3130D02*
X24002Y3104D01*
X23950Y2933D01*
X23933Y2756D01*
X23950Y2578D01*
X24002Y2408D01*
X24016Y2382D01*
Y1181D01*
X23425D01*
X23031Y1575D01*
X21654D01*
X21260Y1181D01*
X20866D01*
X20669Y1378D01*
X18978D01*
Y2382D01*
X18977Y2386D01*
X18978Y2390D01*
X18974Y2401D01*
X18972Y2412D01*
X18970Y2416D01*
X18968Y2420D01*
X18958Y2439D01*
X18911Y2594D01*
X18898Y2731D01*
Y2781D01*
X18911Y2918D01*
X18958Y3073D01*
X18968Y3092D01*
X18970Y3096D01*
X18972Y3099D01*
X18974Y3111D01*
X18978Y3122D01*
X18977Y3126D01*
X18978Y3130D01*
Y4134D01*
X20669D01*
X20866Y4331D01*
X21260D01*
X21654Y3937D01*
X23031D01*
X23425Y4331D01*
X24016D01*
Y3130D01*
D02*
G37*
G36*
X29134Y3130D02*
X29120Y3104D01*
X29068Y2933D01*
X29051Y2756D01*
X29068Y2578D01*
X29120Y2408D01*
X29134Y2382D01*
Y1181D01*
X28543D01*
X28150Y1575D01*
X26772D01*
X26378Y1181D01*
X25984D01*
X25787Y1378D01*
X24096D01*
Y2382D01*
X24095Y2386D01*
X24096Y2390D01*
X24092Y2401D01*
X24090Y2412D01*
X24088Y2416D01*
X24087Y2420D01*
X24076Y2439D01*
X24029Y2594D01*
X24016Y2731D01*
Y2781D01*
X24029Y2918D01*
X24076Y3073D01*
X24087Y3092D01*
X24088Y3096D01*
X24090Y3099D01*
X24092Y3111D01*
X24096Y3122D01*
X24095Y3126D01*
X24096Y3130D01*
Y4134D01*
X25787D01*
X25984Y4331D01*
X26378D01*
X26772Y3937D01*
X28150D01*
X28543Y4331D01*
X29134D01*
Y3130D01*
D02*
G37*
G36*
X5863Y5337D02*
Y5157D01*
X5863Y5157D01*
X5875Y5096D01*
X5910Y5044D01*
X6339Y4615D01*
X6391Y4580D01*
X6453Y4568D01*
X6453Y4568D01*
X6651D01*
X6678Y4541D01*
X6721Y4450D01*
X6702Y4402D01*
X6690Y4315D01*
X6702Y4228D01*
X6735Y4146D01*
X6789Y4076D01*
X6816Y4055D01*
X6776Y3937D01*
X5530D01*
X5425Y4043D01*
Y4315D01*
Y4815D01*
X5411Y4918D01*
X5371Y5014D01*
X5308Y5096D01*
X4926Y5478D01*
X4971Y5587D01*
X5613D01*
X5863Y5337D01*
D02*
G37*
G36*
X18898Y3130D02*
X18884Y3104D01*
X18832Y2933D01*
X18815Y2756D01*
X18832Y2578D01*
X18884Y2408D01*
X18898Y2382D01*
Y1181D01*
X18307D01*
X17913Y1575D01*
X16535D01*
X16142Y1181D01*
X15748D01*
X15551Y1378D01*
X13780D01*
Y4134D01*
X15551D01*
X15748Y4331D01*
X16142D01*
X16535Y3937D01*
X17913D01*
X18307Y4331D01*
X18898D01*
Y3130D01*
D02*
G37*
G36*
X8701Y4664D02*
X8747Y4634D01*
X8800Y4623D01*
X9154D01*
X9546Y4231D01*
X9592Y4201D01*
X9646Y4190D01*
X10361D01*
X10415Y4131D01*
X10429Y4072D01*
X10418Y4062D01*
X8404D01*
X8377Y4089D01*
X8334Y4180D01*
X8354Y4228D01*
X8365Y4315D01*
X8354Y4402D01*
X8320Y4484D01*
X8266Y4554D01*
X8196Y4607D01*
X8158Y4623D01*
X8181Y4741D01*
X8624D01*
X8701Y4664D01*
D02*
G37*
G36*
X3981Y8408D02*
X4062Y8375D01*
X4150Y8363D01*
X4237Y8375D01*
X4265Y8386D01*
X4516Y8136D01*
X4488Y7996D01*
X4481Y7993D01*
X4411Y7939D01*
X4357Y7870D01*
X4324Y7788D01*
X4312Y7701D01*
X4324Y7613D01*
X4357Y7532D01*
X4411Y7462D01*
X4481Y7408D01*
X4562Y7375D01*
X4650Y7363D01*
X4737Y7375D01*
X4818Y7408D01*
X4888Y7462D01*
X4942Y7532D01*
X4954Y7560D01*
X5100D01*
X5673Y6987D01*
X5719Y6957D01*
X5773Y6946D01*
X9126D01*
X9899Y6173D01*
Y5770D01*
X9910Y5717D01*
X9940Y5671D01*
X10552Y5059D01*
X10572Y5015D01*
X10569Y4906D01*
X10552Y4883D01*
X10520Y4807D01*
X10509Y4724D01*
X10494Y4707D01*
X9746D01*
X9393Y5060D01*
X9348Y5090D01*
X9294Y5101D01*
X8940D01*
X8842Y5199D01*
X8854Y5228D01*
X8865Y5315D01*
X8854Y5402D01*
X8820Y5484D01*
X8766Y5554D01*
X8696Y5607D01*
X8615Y5641D01*
X8528Y5652D01*
X8440Y5641D01*
X8359Y5607D01*
X8289Y5554D01*
X8235Y5484D01*
X8202Y5402D01*
X8190Y5315D01*
X8202Y5228D01*
X8235Y5146D01*
X8240Y5140D01*
X8181Y5022D01*
X7462D01*
X7440Y5044D01*
X7395Y5075D01*
X7341Y5085D01*
X6956D01*
X6842Y5199D01*
X6854Y5228D01*
X6865Y5315D01*
X6854Y5402D01*
X6820Y5484D01*
X6766Y5554D01*
X6696Y5607D01*
X6615Y5641D01*
X6528Y5652D01*
X6440Y5641D01*
X6359Y5607D01*
X6289Y5554D01*
X6270Y5530D01*
X6152Y5518D01*
X6149Y5519D01*
X6126Y5528D01*
X5793Y5862D01*
X5741Y5896D01*
X5679Y5909D01*
X5679Y5909D01*
X4829D01*
X3810Y6928D01*
Y7405D01*
X3818Y7408D01*
X3888Y7462D01*
X3942Y7532D01*
X3976Y7613D01*
X3987Y7701D01*
X3976Y7788D01*
X3942Y7870D01*
X3888Y7939D01*
X3830Y7984D01*
Y8383D01*
X3832Y8384D01*
X3948Y8433D01*
X3981Y8408D01*
D02*
G37*
G36*
X34252Y3130D02*
X34238Y3104D01*
X34186Y2933D01*
X34169Y2756D01*
X34186Y2578D01*
X34238Y2408D01*
X34252Y2382D01*
Y1181D01*
X33661D01*
X33268Y1575D01*
X31890D01*
X31496Y1181D01*
X31102D01*
X30906Y1378D01*
X29214D01*
Y2382D01*
X29213Y2386D01*
X29214Y2390D01*
X29210Y2401D01*
X29208Y2412D01*
X29206Y2416D01*
X29205Y2420D01*
X29195Y2439D01*
X29147Y2594D01*
X29134Y2731D01*
Y2781D01*
X29147Y2918D01*
X29195Y3073D01*
X29205Y3092D01*
X29206Y3096D01*
X29208Y3099D01*
X29210Y3111D01*
X29214Y3122D01*
X29213Y3126D01*
X29214Y3130D01*
Y4134D01*
X30906D01*
X31102Y4331D01*
X31496D01*
X31890Y3937D01*
X33268D01*
X33661Y4331D01*
X34252D01*
Y3130D01*
D02*
G37*
G36*
X39250Y1181D02*
X38780D01*
X38386Y1575D01*
X37008D01*
X36614Y1181D01*
X36220D01*
X36024Y1378D01*
X34332D01*
Y2382D01*
X34331Y2386D01*
X34332Y2390D01*
X34328Y2401D01*
X34326Y2412D01*
X34324Y2416D01*
X34323Y2420D01*
X34313Y2439D01*
X34265Y2594D01*
X34252Y2731D01*
Y2781D01*
X34265Y2918D01*
X34313Y3073D01*
X34323Y3092D01*
X34324Y3096D01*
X34326Y3099D01*
X34328Y3111D01*
X34332Y3122D01*
X34331Y3126D01*
X34332Y3130D01*
Y4134D01*
X36024D01*
X36220Y4331D01*
X36614D01*
X37008Y3937D01*
X38386D01*
X38780Y4331D01*
X39250D01*
Y1181D01*
D02*
G37*
G36*
X38659Y12518D02*
X38670Y12516D01*
X38701Y12440D01*
X38752Y12374D01*
X38818Y12323D01*
X38894Y12292D01*
X38976Y12281D01*
X39059Y12292D01*
X39135Y12323D01*
X39171Y12351D01*
X39250Y12313D01*
Y10236D01*
X38177D01*
X38170Y10253D01*
X38083Y10366D01*
X37970Y10453D01*
X37838Y10508D01*
X37697Y10526D01*
X37556Y10508D01*
X37424Y10453D01*
X37311Y10366D01*
X37224Y10253D01*
X37217Y10236D01*
X33059D01*
X33052Y10253D01*
X32965Y10366D01*
X32852Y10453D01*
X32720Y10508D01*
X32579Y10526D01*
X32437Y10508D01*
X32306Y10453D01*
X32193Y10366D01*
X32106Y10253D01*
X32099Y10236D01*
X27941D01*
X27933Y10253D01*
X27847Y10366D01*
X27734Y10453D01*
X27602Y10508D01*
X27461Y10526D01*
X27319Y10508D01*
X27188Y10453D01*
X27075Y10366D01*
X26988Y10253D01*
X26981Y10236D01*
X22822D01*
X22815Y10253D01*
X22729Y10366D01*
X22616Y10453D01*
X22484Y10508D01*
X22343Y10526D01*
X22201Y10508D01*
X22070Y10453D01*
X21956Y10366D01*
X21870Y10253D01*
X21863Y10236D01*
X17704D01*
X17697Y10253D01*
X17610Y10366D01*
X17497Y10453D01*
X17366Y10508D01*
X17224Y10526D01*
X17083Y10508D01*
X16951Y10453D01*
X16838Y10366D01*
X16752Y10253D01*
X16744Y10236D01*
X13976D01*
Y12462D01*
X14032Y12518D01*
X15627D01*
X15638Y12516D01*
X15670Y12440D01*
X15720Y12374D01*
X15786Y12323D01*
X15863Y12292D01*
X15945Y12281D01*
X16027Y12292D01*
X16104Y12323D01*
X16170Y12374D01*
X16220Y12440D01*
X16252Y12516D01*
X16263Y12518D01*
X18186D01*
X18197Y12516D01*
X18229Y12440D01*
X18279Y12374D01*
X18345Y12323D01*
X18422Y12292D01*
X18504Y12281D01*
X18586Y12292D01*
X18663Y12323D01*
X18729Y12374D01*
X18779Y12440D01*
X18811Y12516D01*
X18822Y12518D01*
X20745D01*
X20756Y12516D01*
X20788Y12440D01*
X20838Y12374D01*
X20904Y12323D01*
X20981Y12292D01*
X21063Y12281D01*
X21145Y12292D01*
X21222Y12323D01*
X21288Y12374D01*
X21338Y12440D01*
X21370Y12516D01*
X21381Y12518D01*
X23304D01*
X23315Y12516D01*
X23347Y12440D01*
X23397Y12374D01*
X23463Y12323D01*
X23540Y12292D01*
X23622Y12281D01*
X23704Y12292D01*
X23781Y12323D01*
X23847Y12374D01*
X23897Y12440D01*
X23929Y12516D01*
X23940Y12518D01*
X25863D01*
X25874Y12516D01*
X25906Y12440D01*
X25956Y12374D01*
X26022Y12323D01*
X26099Y12292D01*
X26181Y12281D01*
X26263Y12292D01*
X26340Y12323D01*
X26406Y12374D01*
X26456Y12440D01*
X26488Y12516D01*
X26499Y12518D01*
X28422D01*
X28433Y12516D01*
X28465Y12440D01*
X28516Y12374D01*
X28581Y12323D01*
X28658Y12292D01*
X28740Y12281D01*
X28822Y12292D01*
X28899Y12323D01*
X28965Y12374D01*
X29015Y12440D01*
X29047Y12516D01*
X29058Y12518D01*
X30982D01*
X30992Y12516D01*
X31024Y12440D01*
X31075Y12374D01*
X31140Y12323D01*
X31217Y12292D01*
X31299Y12281D01*
X31381Y12292D01*
X31458Y12323D01*
X31524Y12374D01*
X31574Y12440D01*
X31606Y12516D01*
X31617Y12518D01*
X33541D01*
X33551Y12516D01*
X33583Y12440D01*
X33634Y12374D01*
X33699Y12323D01*
X33776Y12292D01*
X33858Y12281D01*
X33940Y12292D01*
X34017Y12323D01*
X34083Y12374D01*
X34133Y12440D01*
X34165Y12516D01*
X34176Y12518D01*
X36100D01*
X36110Y12516D01*
X36142Y12440D01*
X36193Y12374D01*
X36258Y12323D01*
X36335Y12292D01*
X36417Y12281D01*
X36500Y12292D01*
X36576Y12323D01*
X36642Y12374D01*
X36692Y12440D01*
X36724Y12516D01*
X36735Y12518D01*
X38659D01*
D02*
G37*
G36*
X8465Y11024D02*
X3150D01*
X1772Y12402D01*
X1181D01*
Y13583D01*
X1969Y14370D01*
X3544D01*
X3574Y14297D01*
X3371Y14094D01*
X3336Y14042D01*
X3324Y13981D01*
X3324Y13981D01*
Y13681D01*
X3324Y13681D01*
X3336Y13620D01*
X3371Y13568D01*
X3698Y13241D01*
Y12787D01*
X3654Y12722D01*
X3637Y12638D01*
X3654Y12553D01*
X3702Y12482D01*
X3774Y12434D01*
X3858Y12417D01*
X3943Y12434D01*
X4014Y12482D01*
X4062Y12553D01*
X4079Y12638D01*
X4062Y12722D01*
X4019Y12787D01*
Y13307D01*
X4007Y13369D01*
X3972Y13421D01*
X3972Y13421D01*
X3826Y13566D01*
X3852Y13652D01*
X3864Y13654D01*
X3936Y13702D01*
X3984Y13774D01*
X3992Y13815D01*
X4095Y13918D01*
X4704D01*
X4745Y13891D01*
X4831Y13874D01*
X5248D01*
X5334Y13891D01*
X5407Y13939D01*
X5456Y14012D01*
X5473Y14098D01*
X5456Y14184D01*
X5407Y14257D01*
X5369Y14283D01*
X5365Y14298D01*
X5407Y14370D01*
X5709D01*
X6299Y13780D01*
X6299Y12402D01*
X6571D01*
X6587Y12391D01*
X6673Y12374D01*
X7091D01*
X7177Y12391D01*
X7193Y12402D01*
X7283D01*
Y12490D01*
X7298Y12512D01*
X7315Y12598D01*
X7298Y12684D01*
X7283Y12707D01*
Y12990D01*
X7298Y13012D01*
X7315Y13098D01*
X7298Y13184D01*
X7283Y13207D01*
Y13490D01*
X7298Y13512D01*
X7315Y13598D01*
X7298Y13684D01*
X7283Y13707D01*
Y13990D01*
X7298Y14012D01*
X7315Y14098D01*
X7298Y14184D01*
X7283Y14207D01*
Y15628D01*
X8465D01*
Y11024D01*
D02*
G37*
G36*
X13154Y12383D02*
X13161Y12374D01*
X13227Y12323D01*
X13304Y12292D01*
X13308Y12291D01*
X13622Y12102D01*
Y10732D01*
X12795Y10236D01*
X12586D01*
X12579Y10253D01*
X12492Y10366D01*
X12379Y10453D01*
X12248Y10508D01*
X12106Y10526D01*
X11965Y10508D01*
X11833Y10453D01*
X11720Y10366D01*
X11633Y10253D01*
X11626Y10236D01*
X11417D01*
X10433Y10512D01*
Y12008D01*
X10905Y12291D01*
X10909Y12292D01*
X10986Y12323D01*
X11051Y12374D01*
X11059Y12383D01*
X11417Y12598D01*
X12795D01*
X13154Y12383D01*
D02*
G37*
G36*
X13622Y12316D02*
X13519Y12258D01*
X13349Y12360D01*
X13348Y12360D01*
X13348Y12361D01*
X13336Y12364D01*
X13334Y12366D01*
X13267Y12393D01*
X13218Y12431D01*
X13218Y12432D01*
X13206Y12442D01*
X13195Y12452D01*
X12837Y12667D01*
X12831Y12669D01*
X12826Y12673D01*
X12816Y12675D01*
X12807Y12678D01*
X12801Y12678D01*
X12795Y12679D01*
X11417D01*
X11411Y12678D01*
X11406Y12678D01*
X11396Y12675D01*
X11387Y12673D01*
X11382Y12669D01*
X11376Y12667D01*
X11017Y12452D01*
X11006Y12442D01*
X10995Y12432D01*
X10994Y12431D01*
X10945Y12393D01*
X10878Y12366D01*
X10876Y12364D01*
X10865Y12361D01*
X10864Y12360D01*
X10864Y12360D01*
X10392Y12077D01*
X10384Y12070D01*
X10376Y12065D01*
X10373Y12060D01*
X10369Y12056D01*
X10364Y12047D01*
X10359Y12039D01*
X10358Y12033D01*
X10355Y12027D01*
X10355Y12018D01*
X10353Y12008D01*
Y10987D01*
X8658D01*
X8545Y11024D01*
Y15628D01*
X13622D01*
Y12316D01*
D02*
G37*
G36*
X5235Y15544D02*
X5235Y14764D01*
X5241Y14733D01*
X5246Y14725D01*
X5091Y14570D01*
X3913D01*
X3852Y14558D01*
X3800Y14523D01*
X3800Y14523D01*
X3721Y14444D01*
X3601Y14427D01*
X3575Y14444D01*
X3544Y14450D01*
X2317D01*
X2271Y14559D01*
X2419Y14707D01*
X2436Y14733D01*
X2442Y14764D01*
Y15628D01*
X5151D01*
X5235Y15544D01*
D02*
G37*
G36*
X2362Y14764D02*
X2049Y14450D01*
X1969D01*
X1969Y14450D01*
X1938Y14444D01*
X1912Y14427D01*
X1912Y14427D01*
X1124Y13639D01*
X1107Y13613D01*
X1101Y13583D01*
Y12402D01*
X120D01*
Y14490D01*
X1258Y15628D01*
X2362D01*
Y14764D01*
D02*
G37*
G36*
X7203Y14844D02*
Y14207D01*
X7205Y14199D01*
Y14191D01*
X7208Y14184D01*
X7209Y14176D01*
X7214Y14169D01*
X7217Y14162D01*
X7223Y14153D01*
X7233Y14098D01*
X7223Y14044D01*
X7217Y14035D01*
X7214Y14028D01*
X7209Y14021D01*
X7208Y14013D01*
X7205Y14006D01*
Y13998D01*
X7203Y13990D01*
Y13707D01*
X7205Y13699D01*
Y13691D01*
X7208Y13684D01*
X7209Y13676D01*
X7214Y13669D01*
X7217Y13662D01*
X7223Y13653D01*
X7233Y13598D01*
X7223Y13544D01*
X7217Y13535D01*
X7214Y13528D01*
X7209Y13521D01*
X7208Y13513D01*
X7205Y13506D01*
Y13498D01*
X7203Y13490D01*
Y13207D01*
X7205Y13199D01*
Y13191D01*
X7208Y13184D01*
X7209Y13176D01*
X7214Y13169D01*
X7217Y13162D01*
X7223Y13153D01*
X7233Y13098D01*
X7223Y13044D01*
X7217Y13035D01*
X7214Y13028D01*
X7209Y13021D01*
X7208Y13013D01*
X7205Y13006D01*
Y12998D01*
X7203Y12990D01*
Y12707D01*
X7205Y12699D01*
Y12691D01*
X7208Y12684D01*
X7209Y12676D01*
X7214Y12669D01*
X7217Y12662D01*
X7223Y12653D01*
X7233Y12598D01*
X7223Y12544D01*
X7217Y12535D01*
X7214Y12528D01*
X7209Y12521D01*
X7208Y12513D01*
X7205Y12506D01*
Y12498D01*
X7203Y12490D01*
Y12482D01*
X7193D01*
X7185Y12480D01*
X7177D01*
X7170Y12477D01*
X7162Y12476D01*
X7155Y12471D01*
X7148Y12468D01*
X7145Y12466D01*
X7083Y12454D01*
X6681D01*
X6619Y12466D01*
X6616Y12468D01*
X6608Y12471D01*
X6602Y12476D01*
X6594Y12477D01*
X6587Y12480D01*
X6579D01*
X6571Y12482D01*
X6380D01*
X6379Y13780D01*
X6380Y13780D01*
X6373Y13810D01*
X6356Y13836D01*
X6356Y13836D01*
X5765Y14427D01*
X5739Y14444D01*
X5709Y14450D01*
X5628D01*
X5315Y14764D01*
X5315Y15628D01*
X6420D01*
X7203Y14844D01*
D02*
G37*
G36*
X39250Y12884D02*
X39171Y12846D01*
X39135Y12874D01*
X39059Y12905D01*
X38976Y12916D01*
X38894Y12905D01*
X38818Y12874D01*
X38752Y12823D01*
X38701Y12757D01*
X38670Y12681D01*
X38659Y12598D01*
X36735D01*
X36724Y12681D01*
X36692Y12757D01*
X36642Y12823D01*
X36576Y12874D01*
X36500Y12905D01*
X36417Y12916D01*
X36335Y12905D01*
X36258Y12874D01*
X36193Y12823D01*
X36142Y12757D01*
X36110Y12681D01*
X36100Y12598D01*
X34176D01*
X34165Y12681D01*
X34133Y12757D01*
X34083Y12823D01*
X34017Y12874D01*
X33940Y12905D01*
X33858Y12916D01*
X33776Y12905D01*
X33699Y12874D01*
X33634Y12823D01*
X33583Y12757D01*
X33551Y12681D01*
X33541Y12598D01*
X31617D01*
X31606Y12681D01*
X31574Y12757D01*
X31524Y12823D01*
X31458Y12874D01*
X31381Y12905D01*
X31299Y12916D01*
X31217Y12905D01*
X31140Y12874D01*
X31075Y12823D01*
X31024Y12757D01*
X30992Y12681D01*
X30982Y12598D01*
X29058D01*
X29047Y12681D01*
X29015Y12757D01*
X28965Y12823D01*
X28899Y12874D01*
X28822Y12905D01*
X28740Y12916D01*
X28658Y12905D01*
X28581Y12874D01*
X28516Y12823D01*
X28465Y12757D01*
X28433Y12681D01*
X28422Y12598D01*
X26499D01*
X26488Y12681D01*
X26456Y12757D01*
X26406Y12823D01*
X26340Y12874D01*
X26263Y12905D01*
X26181Y12916D01*
X26099Y12905D01*
X26022Y12874D01*
X25956Y12823D01*
X25906Y12757D01*
X25874Y12681D01*
X25863Y12598D01*
X23940D01*
X23929Y12681D01*
X23897Y12757D01*
X23847Y12823D01*
X23781Y12874D01*
X23704Y12905D01*
X23622Y12916D01*
X23540Y12905D01*
X23463Y12874D01*
X23397Y12823D01*
X23347Y12757D01*
X23315Y12681D01*
X23304Y12598D01*
X21381D01*
X21370Y12681D01*
X21338Y12757D01*
X21288Y12823D01*
X21222Y12874D01*
X21145Y12905D01*
X21063Y12916D01*
X20981Y12905D01*
X20904Y12874D01*
X20838Y12823D01*
X20788Y12757D01*
X20756Y12681D01*
X20745Y12598D01*
X18822D01*
X18811Y12681D01*
X18779Y12757D01*
X18729Y12823D01*
X18663Y12874D01*
X18586Y12905D01*
X18504Y12916D01*
X18422Y12905D01*
X18345Y12874D01*
X18279Y12823D01*
X18229Y12757D01*
X18197Y12681D01*
X18186Y12598D01*
X16263D01*
X16252Y12681D01*
X16220Y12757D01*
X16170Y12823D01*
X16104Y12874D01*
X16027Y12905D01*
X15945Y12916D01*
X15863Y12905D01*
X15786Y12874D01*
X15720Y12823D01*
X15670Y12757D01*
X15638Y12681D01*
X15627Y12598D01*
X13976D01*
Y15628D01*
X39250D01*
Y12884D01*
D02*
G37*
G36*
X29134Y8642D02*
X29120Y8616D01*
X29068Y8445D01*
X29051Y8268D01*
X29068Y8090D01*
X29120Y7920D01*
X29134Y7894D01*
Y6773D01*
X28577D01*
X28206Y7143D01*
X28180Y7161D01*
X28150Y7167D01*
X26772D01*
X26741Y7161D01*
X26715Y7143D01*
X26715Y7143D01*
X26345Y6773D01*
X26018D01*
X25844Y6947D01*
X25818Y6964D01*
X25787Y6970D01*
X24096D01*
Y7894D01*
X24095Y7897D01*
X24096Y7901D01*
X24092Y7913D01*
X24090Y7924D01*
X24088Y7928D01*
X24087Y7931D01*
X24076Y7950D01*
X24029Y8106D01*
X24016Y8243D01*
Y8293D01*
X24029Y8429D01*
X24076Y8585D01*
X24087Y8604D01*
X24088Y8608D01*
X24090Y8611D01*
X24092Y8623D01*
X24096Y8634D01*
X24095Y8638D01*
X24096Y8642D01*
Y9646D01*
X25787D01*
X25984Y9843D01*
X26378D01*
X26772Y9449D01*
X27350D01*
X27461Y9434D01*
X27571Y9449D01*
X28150D01*
X28543Y9843D01*
X29134D01*
Y8642D01*
D02*
G37*
G36*
X24016Y8642D02*
X24002Y8616D01*
X23950Y8445D01*
X23933Y8268D01*
X23950Y8090D01*
X24002Y7920D01*
X24016Y7894D01*
Y6773D01*
X23458D01*
X23088Y7143D01*
X23062Y7161D01*
X23031Y7167D01*
X21654D01*
X21654Y7167D01*
X21623Y7161D01*
X21597Y7143D01*
X21597Y7143D01*
X21227Y6773D01*
X20899D01*
X20726Y6947D01*
X20700Y6964D01*
X20669Y6970D01*
X18978D01*
Y7894D01*
X18977Y7897D01*
X18978Y7901D01*
X18974Y7913D01*
X18972Y7924D01*
X18970Y7928D01*
X18968Y7931D01*
X18958Y7950D01*
X18911Y8106D01*
X18898Y8243D01*
Y8293D01*
X18911Y8429D01*
X18958Y8585D01*
X18968Y8604D01*
X18970Y8608D01*
X18972Y8611D01*
X18974Y8623D01*
X18978Y8634D01*
X18977Y8638D01*
X18978Y8642D01*
Y9646D01*
X20669D01*
X20866Y9843D01*
X21260D01*
X21654Y9449D01*
X22232D01*
X22343Y9434D01*
X22453Y9449D01*
X23031D01*
X23425Y9843D01*
X24016D01*
Y8642D01*
D02*
G37*
G36*
X18898Y8642D02*
X18884Y8616D01*
X18832Y8445D01*
X18815Y8268D01*
X18832Y8090D01*
X18884Y7920D01*
X18898Y7894D01*
Y6773D01*
X18340D01*
X17970Y7143D01*
X17944Y7161D01*
X17913Y7167D01*
X16535D01*
X16505Y7161D01*
X16479Y7143D01*
X16479Y7143D01*
X16108Y6773D01*
X15781D01*
X15608Y6947D01*
X15582Y6964D01*
X15551Y6970D01*
X13780D01*
Y9646D01*
X15551D01*
X15748Y9843D01*
X16142D01*
X16535Y9449D01*
X17114D01*
X17224Y9434D01*
X17335Y9449D01*
X17913D01*
X18307Y9843D01*
X18898D01*
Y8642D01*
D02*
G37*
G36*
X39250Y6773D02*
X38813D01*
X38443Y7143D01*
X38417Y7161D01*
X38386Y7167D01*
X37008D01*
X36977Y7161D01*
X36951Y7143D01*
X36951Y7143D01*
X36581Y6773D01*
X36254D01*
X36080Y6947D01*
X36054Y6964D01*
X36024Y6970D01*
X34332D01*
Y7894D01*
X34331Y7897D01*
X34332Y7901D01*
X34328Y7913D01*
X34326Y7924D01*
X34324Y7928D01*
X34323Y7931D01*
X34313Y7950D01*
X34265Y8106D01*
X34252Y8243D01*
Y8293D01*
X34265Y8429D01*
X34313Y8585D01*
X34323Y8604D01*
X34324Y8608D01*
X34326Y8611D01*
X34328Y8623D01*
X34332Y8634D01*
X34331Y8638D01*
X34332Y8642D01*
Y9646D01*
X36024D01*
X36220Y9843D01*
X36614D01*
X37008Y9449D01*
X37587D01*
X37697Y9434D01*
X37807Y9449D01*
X38386D01*
X38780Y9843D01*
X39250D01*
Y6773D01*
D02*
G37*
G36*
X13622Y10519D02*
Y8239D01*
X13603Y8216D01*
X13504Y8166D01*
X13468Y8181D01*
X13386Y8192D01*
X13304Y8181D01*
X13227Y8149D01*
X13161Y8099D01*
X13111Y8033D01*
X13103Y8015D01*
X12402D01*
X12348Y8004D01*
X12302Y7973D01*
X11909Y7580D01*
X11878Y7534D01*
X11867Y7480D01*
Y7044D01*
X11825Y7010D01*
X11749Y6978D01*
X11696Y7000D01*
X11614Y7011D01*
X11532Y7000D01*
X11455Y6968D01*
X11390Y6918D01*
X11339Y6852D01*
X11331Y6833D01*
X11178D01*
X11144Y6876D01*
X11112Y6952D01*
X11134Y7004D01*
X11144Y7087D01*
X11134Y7169D01*
X11102Y7245D01*
X11051Y7311D01*
X10986Y7362D01*
X10909Y7393D01*
X10827Y7404D01*
X10745Y7393D01*
X10726Y7386D01*
X8918Y9194D01*
X8873Y9224D01*
X8819Y9235D01*
X7929D01*
X7875Y9224D01*
X7830Y9194D01*
X7651Y9015D01*
X7623Y9027D01*
X7535Y9038D01*
X7448Y9027D01*
X7367Y8993D01*
X7334Y8968D01*
X7218Y9017D01*
X7216Y9019D01*
Y10091D01*
X7202Y10160D01*
X7163Y10218D01*
X7060Y10322D01*
X7105Y10431D01*
X10425D01*
X11396Y10159D01*
X11407Y10158D01*
X11417Y10156D01*
X11473D01*
X11568Y10038D01*
X11560Y9980D01*
X11579Y9839D01*
X11633Y9707D01*
X11720Y9594D01*
X11833Y9507D01*
X11965Y9453D01*
X12106Y9434D01*
X12248Y9453D01*
X12379Y9507D01*
X12492Y9594D01*
X12579Y9707D01*
X12634Y9839D01*
X12652Y9980D01*
X12645Y10038D01*
X12740Y10156D01*
X12795D01*
X12801Y10157D01*
X12807Y10157D01*
X12816Y10160D01*
X12826Y10162D01*
X12831Y10165D01*
X12837Y10167D01*
X13519Y10577D01*
X13622Y10519D01*
D02*
G37*
G36*
X34252Y8642D02*
X34238Y8616D01*
X34186Y8445D01*
X34169Y8268D01*
X34186Y8090D01*
X34238Y7920D01*
X34252Y7894D01*
Y6773D01*
X33695D01*
X33324Y7143D01*
X33298Y7161D01*
X33268Y7167D01*
X31890D01*
X31859Y7161D01*
X31833Y7143D01*
X31833Y7143D01*
X31463Y6773D01*
X31136D01*
X30962Y6947D01*
X30936Y6964D01*
X30906Y6970D01*
X29214D01*
Y7894D01*
X29213Y7897D01*
X29214Y7901D01*
X29210Y7913D01*
X29208Y7924D01*
X29206Y7928D01*
X29205Y7931D01*
X29195Y7950D01*
X29147Y8106D01*
X29134Y8243D01*
Y8293D01*
X29147Y8429D01*
X29195Y8585D01*
X29205Y8604D01*
X29206Y8608D01*
X29208Y8611D01*
X29210Y8623D01*
X29214Y8634D01*
X29213Y8638D01*
X29214Y8642D01*
Y9646D01*
X30906D01*
X31102Y9843D01*
X31496D01*
X31890Y9449D01*
X32469D01*
X32579Y9434D01*
X32689Y9449D01*
X33268D01*
X33661Y9843D01*
X34252D01*
Y8642D01*
D02*
G37*
%LPC*%
G36*
X1535Y8960D02*
X1448Y8948D01*
X1367Y8914D01*
X1297Y8861D01*
X1243Y8791D01*
X1209Y8709D01*
X1198Y8622D01*
X1209Y8535D01*
X1243Y8453D01*
X1297Y8383D01*
X1367Y8330D01*
X1448Y8296D01*
X1535Y8285D01*
X1623Y8296D01*
X1704Y8330D01*
X1774Y8383D01*
X1828Y8453D01*
X1861Y8535D01*
X1873Y8622D01*
X1861Y8709D01*
X1828Y8791D01*
X1774Y8861D01*
X1704Y8914D01*
X1623Y8948D01*
X1535Y8960D01*
D02*
G37*
G36*
Y2960D02*
X1448Y2948D01*
X1367Y2914D01*
X1297Y2861D01*
X1243Y2791D01*
X1209Y2709D01*
X1198Y2622D01*
X1209Y2535D01*
X1243Y2453D01*
X1297Y2383D01*
X1367Y2330D01*
X1448Y2296D01*
X1535Y2285D01*
X1623Y2296D01*
X1704Y2330D01*
X1774Y2383D01*
X1828Y2453D01*
X1861Y2535D01*
X1873Y2622D01*
X1861Y2709D01*
X1828Y2791D01*
X1774Y2861D01*
X1704Y2914D01*
X1623Y2948D01*
X1535Y2960D01*
D02*
G37*
G36*
X2768Y12819D02*
X2350D01*
X2264Y12802D01*
X2191Y12753D01*
X2143Y12681D01*
X2126Y12594D01*
X2143Y12508D01*
X2191Y12436D01*
X2264Y12387D01*
X2350Y12370D01*
X2768D01*
X2854Y12387D01*
X2927Y12436D01*
X2975Y12508D01*
X2993Y12594D01*
X2975Y12681D01*
X2927Y12753D01*
X2854Y12802D01*
X2768Y12819D01*
D02*
G37*
G36*
X2598Y8369D02*
X2501Y8357D01*
X2410Y8319D01*
X2332Y8259D01*
X2272Y8181D01*
X2234Y8090D01*
X2221Y7992D01*
X2234Y7894D01*
X2272Y7804D01*
X2332Y7725D01*
X2410Y7665D01*
X2501Y7628D01*
X2598Y7615D01*
X2696Y7628D01*
X2787Y7665D01*
X2865Y7725D01*
X2925Y7804D01*
X2963Y7894D01*
X2976Y7992D01*
X2963Y8090D01*
X2925Y8181D01*
X2865Y8259D01*
X2787Y8319D01*
X2696Y8357D01*
X2598Y8369D01*
D02*
G37*
%LPD*%
D14*
X5679Y5748D02*
X6024Y5404D01*
Y5157D02*
Y5404D01*
Y5157D02*
X6453Y4728D01*
X3650Y6861D02*
Y7701D01*
Y6861D02*
X4763Y5748D01*
X5679D01*
X6453Y4728D02*
X7251D01*
X7665Y4315D01*
X8028D01*
X3484Y13981D02*
X3913Y14409D01*
X5157D01*
X3858Y12638D02*
Y13307D01*
X3484Y13681D02*
X3858Y13307D01*
X3484Y13681D02*
Y13981D01*
X5157Y14409D02*
X5906Y15157D01*
D15*
X2449Y10709D02*
X3650Y9508D01*
Y7701D02*
Y9508D01*
X2559Y12594D02*
X2559Y12594D01*
X3780Y13858D02*
X4020Y14098D01*
X5039D01*
X6575Y10551D02*
Y10709D01*
Y10551D02*
X7035Y10091D01*
Y7701D02*
Y10091D01*
D16*
X7421Y3921D02*
X10827D01*
X10827Y3937D02*
X10846Y3957D01*
X11769D01*
X12205Y4392D01*
Y7087D01*
X12008Y4724D02*
Y7480D01*
X11614Y4331D02*
X12008Y4724D01*
Y7480D02*
X12402Y7874D01*
X12205Y7087D02*
X12598Y7480D01*
X9646Y4331D02*
X11614D01*
X12402Y7874D02*
X13386D01*
X8800Y4764D02*
X9213D01*
X9646Y4331D01*
X8528Y5315D02*
X8882Y4961D01*
X9294D01*
X5043Y8094D02*
X5854Y7283D01*
X5159Y7701D02*
X5773Y7087D01*
X4650Y7701D02*
X5159D01*
X5854Y7283D02*
X9266D01*
X5773Y7087D02*
X9184D01*
X4756Y8094D02*
X5043D01*
X11594Y5138D02*
X11614Y5118D01*
X10672Y5138D02*
X11594D01*
X10039Y5770D02*
X10672Y5138D01*
X10039Y5770D02*
Y6232D01*
X9184Y7087D02*
X10039Y6232D01*
X4150Y8701D02*
X4756Y8094D01*
X9266Y7283D02*
X10236Y6313D01*
Y6060D02*
Y6313D01*
Y6060D02*
X10785Y5512D01*
X10827D01*
X9035Y7701D02*
X9127D01*
X10433Y6395D01*
Y6142D02*
Y6395D01*
Y6142D02*
X10669Y5906D01*
X11614D01*
X8035Y7701D02*
X8479D01*
X8872Y8094D01*
X9262D01*
X10256Y7101D01*
Y6850D02*
Y7101D01*
Y6850D02*
X10807Y6299D01*
X10827D01*
X10692Y6693D02*
X11614D01*
X10453Y6932D02*
X10692Y6693D01*
X10453Y6932D02*
Y7182D01*
X8934Y8701D02*
X10453Y7182D01*
X8535Y8701D02*
X8934D01*
X7535D02*
X7929Y9094D01*
X8819D01*
X10827Y7087D01*
X11201Y1420D02*
Y1555D01*
X11614Y1969D01*
X7028Y969D02*
X7471D01*
X7864Y1362D01*
X9827D01*
X10827Y2362D01*
X10630Y2756D02*
X11614D01*
X9433Y1559D02*
X10630Y2756D01*
X6937Y1559D02*
X9433D01*
X6528Y1969D02*
X6937Y1559D01*
X10630Y3150D02*
X10827D01*
X9843Y2362D02*
X10630Y3150D01*
X6299Y2362D02*
X9843D01*
X6028Y2091D02*
X6299Y2362D01*
X6028Y969D02*
Y2091D01*
X10591Y3543D02*
X11614D01*
X9606Y2559D02*
X10591Y3543D01*
X6118Y2559D02*
X9606D01*
X5528Y1969D02*
X6118Y2559D01*
X10827Y3921D02*
Y3937D01*
X7028Y4315D02*
X7421Y3921D01*
X9028Y969D02*
X9201Y1142D01*
X10394D01*
X10827Y1575D01*
X9191Y575D02*
X9561Y945D01*
X10726D01*
X11201Y1420D01*
X9294Y4961D02*
X9688Y4567D01*
X10669D01*
X10827Y4724D01*
X6528Y5315D02*
X6898Y4945D01*
X7341D01*
X7404Y4882D01*
X8682D01*
X8800Y4764D01*
X8028Y969D02*
X8441D01*
X8835Y575D01*
X9191D01*
D17*
X4331Y3346D02*
D03*
X7323Y11614D02*
D03*
D18*
X2362Y3346D02*
D03*
X9291Y11614D02*
D03*
D19*
X7874Y15157D02*
D03*
X9252D02*
D03*
X1772D02*
D03*
X4528D02*
D03*
X5906D02*
D03*
X3150D02*
D03*
D20*
X12598Y6693D02*
D03*
X11614D02*
D03*
X12598Y14567D02*
D03*
X13386Y14173D02*
D03*
X12598Y13780D02*
D03*
X13386Y13386D02*
D03*
X12598Y12992D02*
D03*
X13386Y12598D02*
D03*
X12598Y12205D02*
D03*
X13386Y11811D02*
D03*
X12598Y11417D02*
D03*
X13386Y11024D02*
D03*
X12598Y10630D02*
D03*
X13386Y9449D02*
D03*
X12598Y9055D02*
D03*
X13386Y8661D02*
D03*
X12598Y8268D02*
D03*
X13386Y7874D02*
D03*
X12598Y7480D02*
D03*
X13386Y7087D02*
D03*
Y6299D02*
D03*
X12598Y5906D02*
D03*
X13386Y5512D02*
D03*
X12598Y5118D02*
D03*
X13386Y4724D02*
D03*
X12598Y4331D02*
D03*
X13386Y3937D02*
D03*
X12598Y3543D02*
D03*
X13386Y3150D02*
D03*
X12598Y2756D02*
D03*
X13386Y2362D02*
D03*
X12598Y1969D02*
D03*
X13386Y1575D02*
D03*
X11614Y14567D02*
D03*
X10827Y14173D02*
D03*
X11614Y13780D02*
D03*
X10827Y13386D02*
D03*
X11614Y12992D02*
D03*
X10827Y12598D02*
D03*
X11614Y12205D02*
D03*
X10827Y11811D02*
D03*
X11614Y11417D02*
D03*
X10827Y11024D02*
D03*
X11614Y10630D02*
D03*
X10827Y9449D02*
D03*
X11614Y9055D02*
D03*
X10827Y8661D02*
D03*
X11614Y8268D02*
D03*
X10827Y7874D02*
D03*
X11614Y7480D02*
D03*
X10827Y7087D02*
D03*
Y6299D02*
D03*
X11614Y5906D02*
D03*
X10827Y5512D02*
D03*
X11614Y5118D02*
D03*
X10827Y4724D02*
D03*
X11614Y4331D02*
D03*
X10827Y3937D02*
D03*
X11614Y3543D02*
D03*
X10827Y3150D02*
D03*
X11614Y2756D02*
D03*
X10827Y2362D02*
D03*
X11614Y1969D02*
D03*
X10827Y1575D02*
D03*
X17717Y14567D02*
D03*
X18504Y14173D02*
D03*
X17717Y13780D02*
D03*
X18504Y13386D02*
D03*
X17717Y12992D02*
D03*
X18504Y12598D02*
D03*
X17717Y12205D02*
D03*
X18504Y11811D02*
D03*
X17717Y11417D02*
D03*
X18504Y11024D02*
D03*
X17717Y10630D02*
D03*
X18504Y9449D02*
D03*
X17717Y9055D02*
D03*
X18504Y8661D02*
D03*
X17717Y8268D02*
D03*
X18504Y7874D02*
D03*
X17717Y7480D02*
D03*
X18504Y7087D02*
D03*
X17717Y6693D02*
D03*
X18504Y6299D02*
D03*
X17717Y5906D02*
D03*
X18504Y5512D02*
D03*
X17717Y5118D02*
D03*
X18504Y4724D02*
D03*
X17717Y4331D02*
D03*
X18504Y3937D02*
D03*
X17717Y3543D02*
D03*
X18504Y3150D02*
D03*
X17717Y2756D02*
D03*
X18504Y2362D02*
D03*
X17717Y1969D02*
D03*
X18504Y1575D02*
D03*
X16732Y14567D02*
D03*
X15945Y14173D02*
D03*
X16732Y13780D02*
D03*
X15945Y13386D02*
D03*
X16732Y12992D02*
D03*
X15945Y12598D02*
D03*
X16732Y12205D02*
D03*
X15945Y11811D02*
D03*
X16732Y11417D02*
D03*
X15945Y11024D02*
D03*
X16732Y10630D02*
D03*
X15945Y9449D02*
D03*
X16732Y9055D02*
D03*
X15945Y8661D02*
D03*
X16732Y8268D02*
D03*
X15945Y7874D02*
D03*
X16732Y7480D02*
D03*
X15945Y7087D02*
D03*
X16732Y6693D02*
D03*
X15945Y6299D02*
D03*
X16732Y5906D02*
D03*
X15945Y5512D02*
D03*
X16732Y5118D02*
D03*
X15945Y4724D02*
D03*
X16732Y4331D02*
D03*
X15945Y3937D02*
D03*
X16732Y3543D02*
D03*
X15945Y3150D02*
D03*
X16732Y2756D02*
D03*
X15945Y2362D02*
D03*
X16732Y1969D02*
D03*
X15945Y1575D02*
D03*
X22835Y14567D02*
D03*
X23622Y14173D02*
D03*
X22835Y13780D02*
D03*
X23622Y13386D02*
D03*
X22835Y12992D02*
D03*
X23622Y12598D02*
D03*
X22835Y12205D02*
D03*
X23622Y11811D02*
D03*
X22835Y11417D02*
D03*
X23622Y11024D02*
D03*
X22835Y10630D02*
D03*
X23622Y9449D02*
D03*
X22835Y9055D02*
D03*
X23622Y8661D02*
D03*
X22835Y8268D02*
D03*
X23622Y7874D02*
D03*
X22835Y7480D02*
D03*
X23622Y7087D02*
D03*
X22835Y6693D02*
D03*
X23622Y6299D02*
D03*
X22835Y5906D02*
D03*
X23622Y5512D02*
D03*
X22835Y5118D02*
D03*
X23622Y4724D02*
D03*
X22835Y4331D02*
D03*
X23622Y3937D02*
D03*
X22835Y3543D02*
D03*
X23622Y3150D02*
D03*
X22835Y2756D02*
D03*
X23622Y2362D02*
D03*
X22835Y1969D02*
D03*
X23622Y1575D02*
D03*
X21850Y14567D02*
D03*
X21063Y14173D02*
D03*
X21850Y13780D02*
D03*
X21063Y13386D02*
D03*
X21850Y12992D02*
D03*
X21063Y12598D02*
D03*
X21850Y12205D02*
D03*
X21063Y11811D02*
D03*
X21850Y11417D02*
D03*
X21063Y11024D02*
D03*
X21850Y10630D02*
D03*
X21063Y9449D02*
D03*
X21850Y9055D02*
D03*
X21063Y8661D02*
D03*
X21850Y8268D02*
D03*
X21063Y7874D02*
D03*
X21850Y7480D02*
D03*
X21063Y7087D02*
D03*
X21850Y6693D02*
D03*
X21063Y6299D02*
D03*
X21850Y5906D02*
D03*
X21063Y5512D02*
D03*
X21850Y5118D02*
D03*
X21063Y4724D02*
D03*
X21850Y4331D02*
D03*
X21063Y3937D02*
D03*
X21850Y3543D02*
D03*
X21063Y3150D02*
D03*
X21850Y2756D02*
D03*
X21063Y2362D02*
D03*
X21850Y1969D02*
D03*
X21063Y1575D02*
D03*
X27953Y14567D02*
D03*
X28740Y14173D02*
D03*
X27953Y13780D02*
D03*
X28740Y13386D02*
D03*
X27953Y12992D02*
D03*
X28740Y12598D02*
D03*
X27953Y12205D02*
D03*
X28740Y11811D02*
D03*
X27953Y11417D02*
D03*
X28740Y11024D02*
D03*
X27953Y10630D02*
D03*
X28740Y9449D02*
D03*
X27953Y9055D02*
D03*
X28740Y8661D02*
D03*
X27953Y8268D02*
D03*
X28740Y7874D02*
D03*
X27953Y7480D02*
D03*
X28740Y7087D02*
D03*
X27953Y6693D02*
D03*
X28740Y6299D02*
D03*
X27953Y5906D02*
D03*
X28740Y5512D02*
D03*
X27953Y5118D02*
D03*
X28740Y4724D02*
D03*
X27953Y4331D02*
D03*
X28740Y3937D02*
D03*
X27953Y3543D02*
D03*
X28740Y3150D02*
D03*
X27953Y2756D02*
D03*
X28740Y2362D02*
D03*
X27953Y1969D02*
D03*
X28740Y1575D02*
D03*
X26969Y14567D02*
D03*
X26181Y14173D02*
D03*
X26969Y13780D02*
D03*
X26181Y13386D02*
D03*
X26969Y12992D02*
D03*
X26181Y12598D02*
D03*
X26969Y12205D02*
D03*
X26181Y11811D02*
D03*
X26969Y11417D02*
D03*
X26181Y11024D02*
D03*
X26969Y10630D02*
D03*
X26181Y9449D02*
D03*
X26969Y9055D02*
D03*
X26181Y8661D02*
D03*
X26969Y8268D02*
D03*
X26181Y7874D02*
D03*
X26969Y7480D02*
D03*
X26181Y7087D02*
D03*
X26969Y6693D02*
D03*
X26181Y6299D02*
D03*
X26969Y5906D02*
D03*
X26181Y5512D02*
D03*
X26969Y5118D02*
D03*
X26181Y4724D02*
D03*
X26969Y4331D02*
D03*
X26181Y3937D02*
D03*
X26969Y3543D02*
D03*
X26181Y3150D02*
D03*
X26969Y2756D02*
D03*
X26181Y2362D02*
D03*
X26969Y1969D02*
D03*
X26181Y1575D02*
D03*
X33071Y14567D02*
D03*
X33858Y14173D02*
D03*
X33071Y13780D02*
D03*
X33858Y13386D02*
D03*
X33071Y12992D02*
D03*
X33858Y12598D02*
D03*
X33071Y12205D02*
D03*
X33858Y11811D02*
D03*
X33071Y11417D02*
D03*
X33858Y11024D02*
D03*
X33071Y10630D02*
D03*
X33858Y9449D02*
D03*
X33071Y9055D02*
D03*
X33858Y8661D02*
D03*
X33071Y8268D02*
D03*
X33858Y7874D02*
D03*
X33071Y7480D02*
D03*
X33858Y7087D02*
D03*
X33071Y6693D02*
D03*
X33858Y6299D02*
D03*
X33071Y5906D02*
D03*
X33858Y5512D02*
D03*
X33071Y5118D02*
D03*
X33858Y4724D02*
D03*
X33071Y4331D02*
D03*
X33858Y3937D02*
D03*
X33071Y3543D02*
D03*
X33858Y3150D02*
D03*
X33071Y2756D02*
D03*
X33858Y2362D02*
D03*
X33071Y1969D02*
D03*
X33858Y1575D02*
D03*
X32087Y14567D02*
D03*
X31299Y14173D02*
D03*
X32087Y13780D02*
D03*
X31299Y13386D02*
D03*
X32087Y12992D02*
D03*
X31299Y12598D02*
D03*
X32087Y12205D02*
D03*
X31299Y11811D02*
D03*
X32087Y11417D02*
D03*
X31299Y11024D02*
D03*
X32087Y10630D02*
D03*
X31299Y9449D02*
D03*
X32087Y9055D02*
D03*
X31299Y8661D02*
D03*
X32087Y8268D02*
D03*
X31299Y7874D02*
D03*
X32087Y7480D02*
D03*
X31299Y7087D02*
D03*
X32087Y6693D02*
D03*
X31299Y6299D02*
D03*
X32087Y5906D02*
D03*
X31299Y5512D02*
D03*
X32087Y5118D02*
D03*
X31299Y4724D02*
D03*
X32087Y4331D02*
D03*
X31299Y3937D02*
D03*
X32087Y3543D02*
D03*
X31299Y3150D02*
D03*
X32087Y2756D02*
D03*
X31299Y2362D02*
D03*
X32087Y1969D02*
D03*
X31299Y1575D02*
D03*
X38189Y14567D02*
D03*
X38976Y14173D02*
D03*
X38189Y13780D02*
D03*
X38976Y13386D02*
D03*
X38189Y12992D02*
D03*
X38976Y12598D02*
D03*
X38189Y12205D02*
D03*
X38976Y11811D02*
D03*
X38189Y11417D02*
D03*
X38976Y11024D02*
D03*
X38189Y10630D02*
D03*
X38976Y9449D02*
D03*
X38189Y9055D02*
D03*
X38976Y8661D02*
D03*
X38189Y8268D02*
D03*
X38976Y7874D02*
D03*
X38189Y7480D02*
D03*
X38976Y7087D02*
D03*
X38189Y6693D02*
D03*
X38976Y6299D02*
D03*
X38189Y5906D02*
D03*
X38976Y5512D02*
D03*
X38189Y5118D02*
D03*
X38976Y4724D02*
D03*
X38189Y4331D02*
D03*
X38976Y3937D02*
D03*
X38189Y3543D02*
D03*
X38976Y3150D02*
D03*
X38189Y2756D02*
D03*
X38976Y2362D02*
D03*
X38189Y1969D02*
D03*
X38976Y1575D02*
D03*
X37205Y14567D02*
D03*
X36417Y14173D02*
D03*
X37205Y13780D02*
D03*
X36417Y13386D02*
D03*
X37205Y12992D02*
D03*
X36417Y12598D02*
D03*
X37205Y12205D02*
D03*
X36417Y11811D02*
D03*
X37205Y11417D02*
D03*
X36417Y11024D02*
D03*
X37205Y10630D02*
D03*
X36417Y9449D02*
D03*
X37205Y9055D02*
D03*
X36417Y8661D02*
D03*
X37205Y8268D02*
D03*
X36417Y7874D02*
D03*
X37205Y7480D02*
D03*
X36417Y7087D02*
D03*
X37205Y6693D02*
D03*
X36417Y6299D02*
D03*
X37205Y5906D02*
D03*
X36417Y5512D02*
D03*
X37205Y5118D02*
D03*
X36417Y4724D02*
D03*
X37205Y4331D02*
D03*
X36417Y3937D02*
D03*
X37205Y3543D02*
D03*
X36417Y3150D02*
D03*
X37205Y2756D02*
D03*
X36417Y2362D02*
D03*
X37205Y1969D02*
D03*
X36417Y1575D02*
D03*
D21*
X14606Y2756D02*
D03*
Y5512D02*
D03*
Y8268D02*
D03*
X19724Y2756D02*
D03*
Y5512D02*
D03*
X19724Y8268D02*
D03*
X24843Y2756D02*
D03*
Y5512D02*
D03*
Y8268D02*
D03*
X29961Y2756D02*
D03*
X29961Y5512D02*
D03*
X29961Y8268D02*
D03*
X35079Y2756D02*
D03*
Y5512D02*
D03*
Y8268D02*
D03*
D22*
X1535Y6622D02*
D03*
Y5622D02*
D03*
Y4622D02*
D03*
Y3622D02*
D03*
Y2622D02*
D03*
Y11622D02*
D03*
Y10622D02*
D03*
Y9622D02*
D03*
Y8622D02*
D03*
X8028Y4315D02*
D03*
X7528Y5315D02*
D03*
X7028Y4315D02*
D03*
X6528Y5315D02*
D03*
X6028Y4315D02*
D03*
X5528Y5315D02*
D03*
X5028Y4315D02*
D03*
X4528Y5315D02*
D03*
X8528D02*
D03*
X9028Y4315D02*
D03*
X9035Y7701D02*
D03*
X8535Y8701D02*
D03*
X8035Y7701D02*
D03*
X7535Y8701D02*
D03*
X7035Y7701D02*
D03*
X6535Y8701D02*
D03*
X8028Y969D02*
D03*
X7528Y1969D02*
D03*
X7028Y969D02*
D03*
X6528Y1969D02*
D03*
X6028Y969D02*
D03*
X5528Y1969D02*
D03*
X5028Y969D02*
D03*
X4528Y1969D02*
D03*
X8528D02*
D03*
X9028Y969D02*
D03*
X3150Y8701D02*
D03*
X3650Y7701D02*
D03*
X4150Y8701D02*
D03*
X4650Y7701D02*
D03*
D23*
X3858Y12638D02*
D03*
X3504Y12315D02*
D03*
X2559Y12594D02*
D03*
X3780Y13858D02*
D03*
D24*
X14075Y3839D02*
D03*
X15256D02*
D03*
X14075Y1673D02*
D03*
X15256D02*
D03*
X14665Y3839D02*
D03*
Y1673D02*
D03*
X14075Y4429D02*
D03*
X14665D02*
D03*
X15256D02*
D03*
X14075Y6594D02*
D03*
X14665D02*
D03*
X15256D02*
D03*
X14075Y7185D02*
D03*
X14665D02*
D03*
X15256D02*
D03*
X14075Y9350D02*
D03*
X14665D02*
D03*
X15256D02*
D03*
X19193Y1673D02*
D03*
X19783D02*
D03*
X20374D02*
D03*
X19193Y3839D02*
D03*
X19783D02*
D03*
X20374D02*
D03*
X19193Y4429D02*
D03*
X19783D02*
D03*
X20374D02*
D03*
X19193Y6594D02*
D03*
X19783D02*
D03*
X20374D02*
D03*
X19193Y7185D02*
D03*
X19783D02*
D03*
X20374D02*
D03*
X19193Y9350D02*
D03*
X19783D02*
D03*
X20374D02*
D03*
X24311Y1673D02*
D03*
X24902D02*
D03*
X25492D02*
D03*
X24311Y3839D02*
D03*
X24902D02*
D03*
X25492D02*
D03*
X24311Y4429D02*
D03*
X24902D02*
D03*
X25492D02*
D03*
X24311Y6594D02*
D03*
X24902D02*
D03*
X25492D02*
D03*
X24311Y7185D02*
D03*
X24902D02*
D03*
X25492D02*
D03*
X24311Y9350D02*
D03*
X24902D02*
D03*
X25492D02*
D03*
X29429Y1673D02*
D03*
X30020D02*
D03*
X30610D02*
D03*
X29429Y3839D02*
D03*
X30020D02*
D03*
X30610D02*
D03*
X29429Y4429D02*
D03*
X30020D02*
D03*
X30610D02*
D03*
X29429Y6594D02*
D03*
X30020D02*
D03*
X30610D02*
D03*
X29429Y7185D02*
D03*
X30020D02*
D03*
X30610D02*
D03*
X29429Y9350D02*
D03*
X30020D02*
D03*
X30610D02*
D03*
X34547Y1673D02*
D03*
X35138D02*
D03*
X35728D02*
D03*
X34547Y3839D02*
D03*
X35138D02*
D03*
X35728D02*
D03*
X34547Y4429D02*
D03*
X35138D02*
D03*
X35728D02*
D03*
X34547Y6594D02*
D03*
X35138D02*
D03*
X35728D02*
D03*
X34547Y7185D02*
D03*
X35138D02*
D03*
X35728D02*
D03*
X34547Y9350D02*
D03*
X35138D02*
D03*
X35728D02*
D03*
X10236Y15354D02*
D03*
X7677Y10039D02*
D03*
X3937D02*
D03*
X6299D02*
D03*
X13189Y15354D02*
D03*
X12205D02*
D03*
X11220D02*
D03*
X8858Y14173D02*
D03*
Y13189D02*
D03*
Y12205D02*
D03*
X10039Y11220D02*
D03*
X5118Y8465D02*
D03*
X4331Y7087D02*
D03*
X10039Y5118D02*
D03*
X9055Y6496D02*
D03*
X5118Y6299D02*
D03*
X394Y394D02*
D03*
Y1575D02*
D03*
Y2756D02*
D03*
Y3937D02*
D03*
X1575Y394D02*
D03*
X2756D02*
D03*
X394Y11811D02*
D03*
Y10630D02*
D03*
X3150Y7283D02*
D03*
X1575D02*
D03*
X2756Y5906D02*
D03*
X886Y13287D02*
D03*
Y12795D02*
D03*
X394D02*
D03*
Y13287D02*
D03*
Y13780D02*
D03*
X886D02*
D03*
X394Y14272D02*
D03*
X984D02*
D03*
X689Y14665D02*
D03*
X1476Y14567D02*
D03*
X1083Y15059D02*
D03*
X6988Y12795D02*
D03*
X6594D02*
D03*
Y13287D02*
D03*
X6988D02*
D03*
X6594Y13780D02*
D03*
X6988D02*
D03*
Y14272D02*
D03*
X6594D02*
D03*
X6102Y14567D02*
D03*
X6594Y15059D02*
D03*
X6890Y14665D02*
D03*
X15354Y12205D02*
D03*
Y11417D02*
D03*
Y10630D02*
D03*
X14961Y11024D02*
D03*
X14567Y10630D02*
D03*
X14173Y11024D02*
D03*
X14961Y11811D02*
D03*
X14567Y12205D02*
D03*
Y11417D02*
D03*
X14173Y11811D02*
D03*
X20472Y12205D02*
D03*
Y11417D02*
D03*
Y10630D02*
D03*
X20079Y11024D02*
D03*
Y11811D02*
D03*
X19685Y12205D02*
D03*
Y11417D02*
D03*
Y10630D02*
D03*
X19291Y11024D02*
D03*
Y11811D02*
D03*
X25591Y12205D02*
D03*
Y11417D02*
D03*
Y10630D02*
D03*
X25197Y11024D02*
D03*
Y11811D02*
D03*
X24803Y12205D02*
D03*
Y11417D02*
D03*
Y10630D02*
D03*
X24409Y11024D02*
D03*
Y11811D02*
D03*
X30709Y12205D02*
D03*
Y11417D02*
D03*
Y10630D02*
D03*
X30315Y11024D02*
D03*
Y11811D02*
D03*
X29921Y12205D02*
D03*
Y11417D02*
D03*
Y10630D02*
D03*
X29528Y11024D02*
D03*
Y11811D02*
D03*
X35827Y12205D02*
D03*
Y11417D02*
D03*
Y10630D02*
D03*
X35433Y11024D02*
D03*
Y11811D02*
D03*
X35039Y12205D02*
D03*
Y11417D02*
D03*
Y10630D02*
D03*
X34646Y11024D02*
D03*
Y11811D02*
D03*
X35827Y12992D02*
D03*
Y13780D02*
D03*
Y14567D02*
D03*
X35433Y13386D02*
D03*
Y14173D02*
D03*
X35039Y14567D02*
D03*
Y13780D02*
D03*
Y12992D02*
D03*
X34646Y13386D02*
D03*
Y14173D02*
D03*
X30709Y12992D02*
D03*
Y13780D02*
D03*
Y14567D02*
D03*
X30315Y14173D02*
D03*
Y13386D02*
D03*
X29921Y13780D02*
D03*
Y12992D02*
D03*
X29528Y13386D02*
D03*
Y14173D02*
D03*
X29921Y14567D02*
D03*
X25591Y12992D02*
D03*
Y13780D02*
D03*
Y14567D02*
D03*
X25197Y14173D02*
D03*
Y13386D02*
D03*
X24803Y12992D02*
D03*
Y13780D02*
D03*
Y14567D02*
D03*
X24409Y14173D02*
D03*
Y13386D02*
D03*
X20472Y13780D02*
D03*
Y14567D02*
D03*
Y12992D02*
D03*
X20079Y13386D02*
D03*
Y14173D02*
D03*
X19685Y14567D02*
D03*
Y13780D02*
D03*
Y12992D02*
D03*
X19291Y13386D02*
D03*
Y14173D02*
D03*
X15354Y12992D02*
D03*
Y13780D02*
D03*
Y14567D02*
D03*
X14961Y14173D02*
D03*
Y13386D02*
D03*
X14567Y12992D02*
D03*
Y13780D02*
D03*
Y14567D02*
D03*
X14173Y14173D02*
D03*
Y13386D02*
D03*
X38976Y15354D02*
D03*
X37795D02*
D03*
X36614D02*
D03*
X35433D02*
D03*
X34252D02*
D03*
X33071D02*
D03*
X31890D02*
D03*
X30709D02*
D03*
X29528D02*
D03*
X28346D02*
D03*
X27165D02*
D03*
X25984D02*
D03*
X24803D02*
D03*
X23622D02*
D03*
X22441D02*
D03*
X21260D02*
D03*
X20079D02*
D03*
X18898D02*
D03*
X17717D02*
D03*
X16535D02*
D03*
X15354D02*
D03*
X14173D02*
D03*
D25*
X717Y12594D02*
D03*
Y13094D02*
D03*
Y13594D02*
D03*
Y14094D02*
D03*
X2559Y12594D02*
D03*
Y13094D02*
D03*
Y13594D02*
D03*
X6882Y14098D02*
D03*
Y13598D02*
D03*
Y13098D02*
D03*
Y12598D02*
D03*
X5039Y14098D02*
D03*
Y13598D02*
D03*
Y13098D02*
D03*
D26*
X2559Y14094D02*
D03*
X5039Y12598D02*
D03*
D27*
X14764Y13780D02*
D03*
X19882D02*
D03*
X25000D02*
D03*
X30118D02*
D03*
X35236D02*
D03*
X14764Y11417D02*
D03*
X19882D02*
D03*
X25000D02*
D03*
X30118D02*
D03*
X35236D02*
D03*
D28*
X1457Y12295D02*
Y12677D01*
X984Y11823D02*
X1457Y12295D01*
X984Y10173D02*
Y11823D01*
X669Y9858D02*
X984Y10173D01*
X669Y4488D02*
Y9858D01*
Y4488D02*
X1535Y3622D01*
X10512Y10709D02*
X10827Y11024D01*
X2449Y10709D02*
X10512D01*
X1535Y11622D02*
X2449Y10709D01*
X984Y10173D02*
X1535Y9622D01*
X13386Y13386D02*
X14173D01*
D29*
X5028Y4315D02*
Y4815D01*
X4528Y5315D02*
X5028Y4815D01*
X3220Y6622D02*
X4528Y5315D01*
X1535Y6622D02*
X3220D01*
X5028Y4043D02*
Y4315D01*
X4331Y3346D02*
X5028Y4043D01*
M02*
