G04 Layer_Physical_Order=2*
G04 Layer_Color=16711680*
%FSLAX24Y24*%
%MOIN*%
G70*
G01*
G75*
%ADD14C,0.0118*%
%ADD15C,0.0394*%
%ADD16C,0.0157*%
%ADD17C,0.0197*%
%ADD18R,0.0532X0.0532*%
%ADD19C,0.0532*%
%ADD20C,0.0945*%
%ADD21R,0.0532X0.0532*%
%ADD22C,0.1654*%
%ADD23C,0.0512*%
%ADD24C,0.0472*%
%ADD25C,0.0394*%
%ADD26C,0.0276*%
%ADD27O,0.0701X0.0283*%
%ADD28R,0.0701X0.0283*%
%ADD29R,0.1575X0.1811*%
%ADD30C,0.0630*%
G36*
X3541Y7211D02*
Y6990D01*
X3384Y6833D01*
X3071D01*
X3017Y6823D01*
X2972Y6792D01*
X2599Y6420D01*
X2392D01*
X2333Y6462D01*
X2286Y6524D01*
Y6790D01*
X2423Y6926D01*
X2627D01*
X2641Y6917D01*
X2694Y6907D01*
X2739D01*
X2793Y6917D01*
X2838Y6948D01*
X3210Y7320D01*
X3481D01*
X3541Y7211D01*
D02*
G37*
G36*
X38780Y6693D02*
X39250D01*
Y4411D01*
X38780D01*
X38749Y4405D01*
X38723Y4387D01*
X38723Y4387D01*
X38353Y4017D01*
X37041D01*
X36671Y4387D01*
X36645Y4405D01*
X36614Y4411D01*
X36220D01*
X36220Y4411D01*
X36190Y4405D01*
X36164Y4387D01*
X35990Y4214D01*
X34332D01*
Y4331D01*
X34326Y4361D01*
X34320Y4371D01*
X34326Y4380D01*
X34332Y4411D01*
Y5138D01*
X34331Y5142D01*
X34332Y5146D01*
X34328Y5157D01*
X34326Y5168D01*
X34324Y5172D01*
X34323Y5176D01*
X34313Y5194D01*
X34265Y5350D01*
X34252Y5487D01*
Y5537D01*
X34265Y5674D01*
X34313Y5829D01*
X34323Y5848D01*
X34324Y5852D01*
X34326Y5855D01*
X34328Y5867D01*
X34332Y5878D01*
X34331Y5882D01*
X34332Y5886D01*
Y6693D01*
X34326Y6724D01*
X34320Y6733D01*
X34326Y6742D01*
X34332Y6773D01*
Y6890D01*
X36024D01*
X36220Y6693D01*
X36614D01*
X37008Y7087D01*
X38386D01*
X38780Y6693D01*
D02*
G37*
G36*
X33661D02*
X34252D01*
Y5886D01*
X34238Y5860D01*
X34186Y5689D01*
X34169Y5512D01*
X34186Y5334D01*
X34238Y5164D01*
X34252Y5138D01*
Y4411D01*
X33661D01*
X33661Y4411D01*
X33631Y4405D01*
X33605Y4387D01*
X33605Y4387D01*
X33234Y4017D01*
X31923D01*
X31553Y4387D01*
X31527Y4405D01*
X31496Y4411D01*
X31102D01*
X31102Y4411D01*
X31072Y4405D01*
X31046Y4387D01*
X30872Y4214D01*
X29214D01*
Y4331D01*
X29208Y4361D01*
X29202Y4371D01*
X29208Y4380D01*
X29214Y4411D01*
Y5138D01*
X29213Y5142D01*
X29214Y5146D01*
X29210Y5157D01*
X29208Y5168D01*
X29206Y5172D01*
X29205Y5176D01*
X29195Y5194D01*
X29147Y5350D01*
X29134Y5487D01*
Y5537D01*
X29147Y5674D01*
X29195Y5829D01*
X29205Y5848D01*
X29206Y5852D01*
X29208Y5855D01*
X29210Y5867D01*
X29214Y5878D01*
X29213Y5882D01*
X29214Y5886D01*
Y6693D01*
X29208Y6724D01*
X29202Y6733D01*
X29208Y6742D01*
X29214Y6773D01*
Y6890D01*
X30906D01*
X31102Y6693D01*
X31496D01*
X31890Y7087D01*
X33268D01*
X33661Y6693D01*
D02*
G37*
G36*
X3541Y8758D02*
Y8602D01*
X3551Y8549D01*
X3582Y8503D01*
X3645Y8440D01*
X3606Y8312D01*
X3599Y8310D01*
X3561Y8347D01*
X3516Y8378D01*
X3462Y8389D01*
X3152D01*
X3098Y8378D01*
X3053Y8347D01*
X2700Y7995D01*
X2365D01*
X2360Y7994D01*
X2336Y8002D01*
X2261Y8062D01*
X2247Y8083D01*
Y8325D01*
X2462Y8541D01*
X2675D01*
X2728Y8551D01*
X2774Y8582D01*
X3087Y8895D01*
X3404D01*
X3541Y8758D01*
D02*
G37*
G36*
X18898Y8642D02*
X18884Y8616D01*
X18832Y8445D01*
X18815Y8268D01*
X18832Y8090D01*
X18884Y7920D01*
X18898Y7894D01*
Y6773D01*
X18340D01*
X17970Y7143D01*
X17944Y7161D01*
X17913Y7167D01*
X16535D01*
X16505Y7161D01*
X16479Y7143D01*
X16479Y7143D01*
X16108Y6773D01*
X15781D01*
X15608Y6947D01*
X15582Y6964D01*
X15551Y6970D01*
X13780D01*
Y9646D01*
X15551D01*
X15748Y9843D01*
X16142D01*
X16535Y9449D01*
X17114D01*
X17224Y9434D01*
X17335Y9449D01*
X17913D01*
X18307Y9843D01*
X18898D01*
Y8642D01*
D02*
G37*
G36*
X12191Y10558D02*
X12194Y10535D01*
X12227Y10453D01*
X12281Y10383D01*
X12351Y10330D01*
X12432Y10296D01*
X12456Y10293D01*
X12832Y9916D01*
Y8951D01*
X12714Y8895D01*
X12688Y8914D01*
X12607Y8948D01*
X12520Y8960D01*
X12432Y8948D01*
X12374Y8924D01*
X12204Y9094D01*
X10787Y10512D01*
X10473Y10825D01*
X10522Y10943D01*
X11805D01*
X12191Y10558D01*
D02*
G37*
G36*
X3973Y9113D02*
X4018Y9083D01*
X4056Y9075D01*
X4091Y9022D01*
X4116Y8954D01*
X4084Y8877D01*
X4072Y8780D01*
X4084Y8682D01*
X4108Y8624D01*
X4074Y8527D01*
X4048Y8493D01*
X3998Y8484D01*
X3822Y8661D01*
Y8816D01*
X3811Y8870D01*
X3780Y8916D01*
X3561Y9135D01*
X3516Y9165D01*
X3462Y9176D01*
X3116D01*
X3102Y9185D01*
X3049Y9196D01*
X2995Y9185D01*
X2949Y9154D01*
X2616Y8822D01*
X2404D01*
X2298Y8892D01*
X2286Y8909D01*
Y9152D01*
X2817Y9682D01*
X3404D01*
X3973Y9113D01*
D02*
G37*
G36*
X28543Y6693D02*
X29134D01*
Y5886D01*
X29120Y5860D01*
X29068Y5689D01*
X29051Y5512D01*
X29068Y5334D01*
X29120Y5164D01*
X29134Y5138D01*
Y4411D01*
X28543D01*
X28513Y4405D01*
X28487Y4387D01*
X28487Y4387D01*
X28116Y4017D01*
X26805D01*
X26435Y4387D01*
X26409Y4405D01*
X26378Y4411D01*
X25984D01*
X25984Y4411D01*
X25954Y4405D01*
X25927Y4387D01*
X25754Y4214D01*
X24096D01*
Y4331D01*
X24090Y4361D01*
X24084Y4371D01*
X24090Y4380D01*
X24096Y4411D01*
Y5138D01*
X24095Y5142D01*
X24096Y5146D01*
X24092Y5157D01*
X24090Y5168D01*
X24088Y5172D01*
X24087Y5176D01*
X24076Y5194D01*
X24029Y5350D01*
X24016Y5487D01*
Y5537D01*
X24029Y5674D01*
X24076Y5829D01*
X24087Y5848D01*
X24088Y5852D01*
X24090Y5855D01*
X24092Y5867D01*
X24096Y5878D01*
X24095Y5882D01*
X24096Y5886D01*
Y6693D01*
X24090Y6724D01*
X24084Y6733D01*
X24090Y6742D01*
X24096Y6773D01*
Y6890D01*
X25787D01*
X25984Y6693D01*
X26378D01*
X26772Y7087D01*
X28150D01*
X28543Y6693D01*
D02*
G37*
G36*
X29134Y3130D02*
X29120Y3104D01*
X29068Y2933D01*
X29051Y2756D01*
X29068Y2578D01*
X29120Y2408D01*
X29134Y2382D01*
Y1181D01*
X28543D01*
X28150Y1575D01*
X26772D01*
X26378Y1181D01*
X25984D01*
X25787Y1378D01*
X24096D01*
Y2382D01*
X24095Y2386D01*
X24096Y2390D01*
X24092Y2401D01*
X24090Y2412D01*
X24088Y2416D01*
X24087Y2420D01*
X24076Y2439D01*
X24029Y2594D01*
X24016Y2731D01*
Y2781D01*
X24029Y2918D01*
X24076Y3073D01*
X24087Y3092D01*
X24088Y3096D01*
X24090Y3099D01*
X24092Y3111D01*
X24096Y3122D01*
X24095Y3126D01*
X24096Y3130D01*
Y4134D01*
X25787D01*
X25984Y4331D01*
X26378D01*
X26772Y3937D01*
X28150D01*
X28543Y4331D01*
X29134D01*
Y3130D01*
D02*
G37*
G36*
X24016Y3130D02*
X24002Y3104D01*
X23950Y2933D01*
X23933Y2756D01*
X23950Y2578D01*
X24002Y2408D01*
X24016Y2382D01*
Y1181D01*
X23425D01*
X23031Y1575D01*
X21654D01*
X21260Y1181D01*
X20866D01*
X20669Y1378D01*
X18978D01*
Y2382D01*
X18977Y2386D01*
X18978Y2390D01*
X18974Y2401D01*
X18972Y2412D01*
X18970Y2416D01*
X18968Y2420D01*
X18958Y2439D01*
X18911Y2594D01*
X18898Y2731D01*
Y2781D01*
X18911Y2918D01*
X18958Y3073D01*
X18968Y3092D01*
X18970Y3096D01*
X18972Y3099D01*
X18974Y3111D01*
X18978Y3122D01*
X18977Y3126D01*
X18978Y3130D01*
Y4134D01*
X20669D01*
X20866Y4331D01*
X21260D01*
X21654Y3937D01*
X23031D01*
X23425Y4331D01*
X24016D01*
Y3130D01*
D02*
G37*
G36*
X18898D02*
X18884Y3104D01*
X18832Y2933D01*
X18815Y2756D01*
X18832Y2578D01*
X18884Y2408D01*
X18898Y2382D01*
Y1181D01*
X18307D01*
X17913Y1575D01*
X16535D01*
X16142Y1181D01*
X15748D01*
X15551Y1378D01*
X13780D01*
Y4134D01*
X15551D01*
X15748Y4331D01*
X16142D01*
X16535Y3937D01*
X17913D01*
X18307Y4331D01*
X18898D01*
Y3130D01*
D02*
G37*
G36*
X34252Y3130D02*
X34238Y3104D01*
X34186Y2933D01*
X34169Y2756D01*
X34186Y2578D01*
X34238Y2408D01*
X34252Y2382D01*
Y1181D01*
X33661D01*
X33268Y1575D01*
X31890D01*
X31496Y1181D01*
X31102D01*
X30906Y1378D01*
X29214D01*
Y2382D01*
X29213Y2386D01*
X29214Y2390D01*
X29210Y2401D01*
X29208Y2412D01*
X29206Y2416D01*
X29205Y2420D01*
X29195Y2439D01*
X29147Y2594D01*
X29134Y2731D01*
Y2781D01*
X29147Y2918D01*
X29195Y3073D01*
X29205Y3092D01*
X29206Y3096D01*
X29208Y3099D01*
X29210Y3111D01*
X29214Y3122D01*
X29213Y3126D01*
X29214Y3130D01*
Y4134D01*
X30906D01*
X31102Y4331D01*
X31496D01*
X31890Y3937D01*
X33268D01*
X33661Y4331D01*
X34252D01*
Y3130D01*
D02*
G37*
G36*
X23425Y6693D02*
X24016D01*
Y5886D01*
X24002Y5860D01*
X23950Y5689D01*
X23933Y5512D01*
X23950Y5334D01*
X24002Y5164D01*
X24016Y5138D01*
Y4411D01*
X23425D01*
X23394Y4405D01*
X23368Y4387D01*
X23368Y4387D01*
X22998Y4017D01*
X21687D01*
X21317Y4387D01*
X21291Y4405D01*
X21260Y4411D01*
X20866D01*
X20835Y4405D01*
X20809Y4387D01*
X20809Y4387D01*
X20636Y4214D01*
X18978D01*
Y4331D01*
X18972Y4361D01*
X18966Y4371D01*
X18972Y4380D01*
X18978Y4411D01*
Y5138D01*
X18977Y5142D01*
X18978Y5146D01*
X18974Y5157D01*
X18972Y5168D01*
X18970Y5172D01*
X18968Y5176D01*
X18958Y5194D01*
X18911Y5350D01*
X18898Y5487D01*
Y5537D01*
X18911Y5674D01*
X18958Y5829D01*
X18968Y5848D01*
X18970Y5852D01*
X18972Y5855D01*
X18974Y5867D01*
X18978Y5878D01*
X18977Y5882D01*
X18978Y5886D01*
Y6693D01*
X18972Y6724D01*
X18966Y6733D01*
X18972Y6742D01*
X18978Y6773D01*
Y6890D01*
X20669D01*
X20866Y6693D01*
X21260D01*
X21654Y7087D01*
X23031D01*
X23425Y6693D01*
D02*
G37*
G36*
X18307D02*
X18898D01*
Y5886D01*
X18884Y5860D01*
X18832Y5689D01*
X18815Y5512D01*
X18832Y5334D01*
X18884Y5164D01*
X18898Y5138D01*
Y4411D01*
X18307D01*
X18276Y4405D01*
X18250Y4387D01*
X18250Y4387D01*
X17880Y4017D01*
X16569D01*
X16199Y4387D01*
X16172Y4405D01*
X16142Y4411D01*
X15748D01*
X15748Y4411D01*
X15717Y4405D01*
X15691Y4387D01*
X15518Y4214D01*
X13780D01*
Y6890D01*
X15551D01*
X15748Y6693D01*
X16142D01*
X16535Y7087D01*
X17913D01*
X18307Y6693D01*
D02*
G37*
G36*
X39250Y1181D02*
X38780D01*
X38386Y1575D01*
X37008D01*
X36614Y1181D01*
X36220D01*
X36024Y1378D01*
X34332D01*
Y2382D01*
X34331Y2386D01*
X34332Y2390D01*
X34328Y2401D01*
X34326Y2412D01*
X34324Y2416D01*
X34323Y2420D01*
X34313Y2439D01*
X34265Y2594D01*
X34252Y2731D01*
Y2781D01*
X34265Y2918D01*
X34313Y3073D01*
X34323Y3092D01*
X34324Y3096D01*
X34326Y3099D01*
X34328Y3111D01*
X34332Y3122D01*
X34331Y3126D01*
X34332Y3130D01*
Y4134D01*
X36024D01*
X36220Y4331D01*
X36614D01*
X37008Y3937D01*
X38386D01*
X38780Y4331D01*
X39250D01*
Y1181D01*
D02*
G37*
G36*
X12008Y11024D02*
X6693D01*
X5315Y12402D01*
X4869D01*
X4805Y12457D01*
X4805Y13549D01*
X5625Y14370D01*
X7087D01*
X7117Y14297D01*
X6914Y14094D01*
X6879Y14042D01*
X6867Y13981D01*
X6867Y13981D01*
Y13681D01*
X6867Y13681D01*
X6879Y13620D01*
X6914Y13568D01*
X7241Y13241D01*
Y12787D01*
X7198Y12722D01*
X7181Y12638D01*
X7198Y12553D01*
X7245Y12482D01*
X7317Y12434D01*
X7402Y12417D01*
X7486Y12434D01*
X7558Y12482D01*
X7606Y12553D01*
X7622Y12638D01*
X7606Y12722D01*
X7562Y12787D01*
Y13307D01*
X7550Y13369D01*
X7515Y13421D01*
X7515Y13421D01*
X7369Y13566D01*
X7395Y13652D01*
X7407Y13654D01*
X7479Y13702D01*
X7527Y13774D01*
X7535Y13815D01*
X7638Y13918D01*
X8129D01*
X8170Y13891D01*
X8256Y13874D01*
X8673D01*
X8759Y13891D01*
X8832Y13939D01*
X8881Y14012D01*
X8898Y14098D01*
X8881Y14184D01*
X8853Y14227D01*
X8833Y14262D01*
X8855Y14337D01*
X8888Y14370D01*
X9138D01*
X9683Y13825D01*
Y12402D01*
X9690Y12371D01*
X9707Y12345D01*
X9733Y12327D01*
X9764Y12321D01*
X10827D01*
X10857Y12327D01*
X10884Y12345D01*
X10901Y12371D01*
X10907Y12402D01*
Y14764D01*
X10907Y14764D01*
X10901Y14794D01*
X10884Y14821D01*
X10884Y14821D01*
X10827Y14877D01*
Y15628D01*
X12008D01*
Y11024D01*
D02*
G37*
G36*
X38659Y12518D02*
X38670Y12516D01*
X38701Y12440D01*
X38752Y12374D01*
X38818Y12323D01*
X38894Y12292D01*
X38976Y12281D01*
X39059Y12292D01*
X39135Y12323D01*
X39171Y12351D01*
X39250Y12313D01*
Y10236D01*
X38177D01*
X38170Y10253D01*
X38083Y10366D01*
X37970Y10453D01*
X37838Y10508D01*
X37697Y10526D01*
X37556Y10508D01*
X37424Y10453D01*
X37311Y10366D01*
X37224Y10253D01*
X37217Y10236D01*
X33059D01*
X33052Y10253D01*
X32965Y10366D01*
X32852Y10453D01*
X32720Y10508D01*
X32579Y10526D01*
X32437Y10508D01*
X32306Y10453D01*
X32193Y10366D01*
X32106Y10253D01*
X32099Y10236D01*
X27941D01*
X27933Y10253D01*
X27847Y10366D01*
X27734Y10453D01*
X27602Y10508D01*
X27461Y10526D01*
X27319Y10508D01*
X27188Y10453D01*
X27075Y10366D01*
X26988Y10253D01*
X26981Y10236D01*
X22822D01*
X22815Y10253D01*
X22729Y10366D01*
X22616Y10453D01*
X22484Y10508D01*
X22343Y10526D01*
X22201Y10508D01*
X22070Y10453D01*
X21956Y10366D01*
X21870Y10253D01*
X21863Y10236D01*
X17704D01*
X17697Y10253D01*
X17610Y10366D01*
X17497Y10453D01*
X17366Y10508D01*
X17224Y10526D01*
X17083Y10508D01*
X16951Y10453D01*
X16838Y10366D01*
X16752Y10253D01*
X16744Y10236D01*
X13976D01*
Y12462D01*
X14032Y12518D01*
X15627D01*
X15638Y12516D01*
X15670Y12440D01*
X15720Y12374D01*
X15786Y12323D01*
X15863Y12292D01*
X15945Y12281D01*
X16027Y12292D01*
X16104Y12323D01*
X16170Y12374D01*
X16220Y12440D01*
X16252Y12516D01*
X16263Y12518D01*
X18186D01*
X18197Y12516D01*
X18229Y12440D01*
X18279Y12374D01*
X18345Y12323D01*
X18422Y12292D01*
X18504Y12281D01*
X18586Y12292D01*
X18663Y12323D01*
X18729Y12374D01*
X18779Y12440D01*
X18811Y12516D01*
X18822Y12518D01*
X20745D01*
X20756Y12516D01*
X20788Y12440D01*
X20838Y12374D01*
X20904Y12323D01*
X20981Y12292D01*
X21063Y12281D01*
X21145Y12292D01*
X21222Y12323D01*
X21288Y12374D01*
X21338Y12440D01*
X21370Y12516D01*
X21381Y12518D01*
X23304D01*
X23315Y12516D01*
X23347Y12440D01*
X23397Y12374D01*
X23463Y12323D01*
X23540Y12292D01*
X23622Y12281D01*
X23704Y12292D01*
X23781Y12323D01*
X23847Y12374D01*
X23897Y12440D01*
X23929Y12516D01*
X23940Y12518D01*
X25863D01*
X25874Y12516D01*
X25906Y12440D01*
X25956Y12374D01*
X26022Y12323D01*
X26099Y12292D01*
X26181Y12281D01*
X26263Y12292D01*
X26340Y12323D01*
X26406Y12374D01*
X26456Y12440D01*
X26488Y12516D01*
X26499Y12518D01*
X28422D01*
X28433Y12516D01*
X28465Y12440D01*
X28516Y12374D01*
X28581Y12323D01*
X28658Y12292D01*
X28740Y12281D01*
X28822Y12292D01*
X28899Y12323D01*
X28965Y12374D01*
X29015Y12440D01*
X29047Y12516D01*
X29058Y12518D01*
X30982D01*
X30992Y12516D01*
X31024Y12440D01*
X31075Y12374D01*
X31140Y12323D01*
X31217Y12292D01*
X31299Y12281D01*
X31381Y12292D01*
X31458Y12323D01*
X31524Y12374D01*
X31574Y12440D01*
X31606Y12516D01*
X31617Y12518D01*
X33541D01*
X33551Y12516D01*
X33583Y12440D01*
X33634Y12374D01*
X33699Y12323D01*
X33776Y12292D01*
X33858Y12281D01*
X33940Y12292D01*
X34017Y12323D01*
X34083Y12374D01*
X34133Y12440D01*
X34165Y12516D01*
X34176Y12518D01*
X36100D01*
X36110Y12516D01*
X36142Y12440D01*
X36193Y12374D01*
X36258Y12323D01*
X36335Y12292D01*
X36417Y12281D01*
X36500Y12292D01*
X36576Y12323D01*
X36642Y12374D01*
X36692Y12440D01*
X36724Y12516D01*
X36735Y12518D01*
X38659D01*
D02*
G37*
G36*
X4578Y15518D02*
X3605Y14545D01*
X3587Y14519D01*
X3581Y14488D01*
Y12677D01*
X3581Y12677D01*
X3587Y12646D01*
X3605Y12620D01*
X3605Y12620D01*
X3880Y12345D01*
X3906Y12327D01*
X3937Y12321D01*
X4669D01*
X4669Y12321D01*
X4699Y12327D01*
X4726Y12345D01*
X4834Y12331D01*
X4839Y12327D01*
X4842Y12327D01*
X4844Y12325D01*
X4857Y12324D01*
X4869Y12321D01*
X5282D01*
X5750Y11853D01*
X5701Y11735D01*
X3777D01*
X3702Y11809D01*
Y11929D01*
X3700Y11940D01*
X3699Y11951D01*
X3697Y11955D01*
X3696Y11960D01*
X3690Y11969D01*
X3685Y11979D01*
X3681Y11982D01*
X3679Y11986D01*
X3670Y11992D01*
X3661Y11999D01*
X2598Y12590D01*
X2594Y12591D01*
X2590Y12594D01*
X2579Y12596D01*
X2568Y12599D01*
X2564Y12599D01*
X2559Y12600D01*
X1378D01*
X1372Y12599D01*
X1367Y12599D01*
X1357Y12596D01*
X1347Y12594D01*
X1342Y12591D01*
X1337Y12589D01*
X471Y12077D01*
X463Y12070D01*
X455Y12065D01*
X452Y12060D01*
X448Y12056D01*
X443Y12047D01*
X438Y12039D01*
X437Y12033D01*
X434Y12028D01*
X433Y12018D01*
X432Y12008D01*
Y11820D01*
X430Y11811D01*
X432Y11802D01*
Y11033D01*
X430Y11024D01*
X432Y11015D01*
Y10827D01*
X433Y10817D01*
X434Y10807D01*
X437Y10802D01*
X438Y10796D01*
X443Y10788D01*
X448Y10779D01*
X452Y10775D01*
X455Y10770D01*
X463Y10764D01*
X471Y10758D01*
X1337Y10244D01*
X1342Y10242D01*
X1347Y10239D01*
X1357Y10237D01*
X1367Y10234D01*
X1372Y10234D01*
X1378Y10233D01*
X1440D01*
X1498Y10146D01*
X1499Y10115D01*
X1482Y9980D01*
X1500Y9839D01*
X1555Y9707D01*
X1641Y9594D01*
X1755Y9507D01*
X1886Y9453D01*
X2007Y9437D01*
X2041Y9381D01*
X2056Y9319D01*
X2046Y9309D01*
X2016Y9264D01*
X2005Y9210D01*
Y8759D01*
X1810Y8564D01*
X1780Y8519D01*
X1769Y8465D01*
Y8171D01*
X1632Y8034D01*
X1420D01*
X1366Y8023D01*
X1321Y7993D01*
X1062Y7735D01*
X1032Y7689D01*
X1021Y7635D01*
Y7519D01*
X876Y7374D01*
X830Y7393D01*
X748Y7404D01*
X666Y7393D01*
X589Y7362D01*
X523Y7311D01*
X473Y7245D01*
X441Y7169D01*
X430Y7087D01*
X441Y7004D01*
X473Y6928D01*
X523Y6862D01*
X589Y6812D01*
X666Y6780D01*
X748Y6769D01*
X830Y6780D01*
X907Y6812D01*
X973Y6862D01*
X1023Y6928D01*
X1055Y7004D01*
X1066Y7087D01*
X1056Y7157D01*
X1261Y7361D01*
X1291Y7407D01*
X1302Y7461D01*
Y7577D01*
X1478Y7753D01*
X1690D01*
X1797Y7683D01*
X1808Y7665D01*
Y7285D01*
X1533Y7010D01*
X1453Y7000D01*
X1377Y6968D01*
X1311Y6918D01*
X1260Y6852D01*
X1229Y6775D01*
X1218Y6693D01*
X1229Y6611D01*
X1242Y6578D01*
X1190Y6476D01*
X1169Y6459D01*
X1022D01*
X973Y6524D01*
X907Y6574D01*
X830Y6606D01*
X748Y6617D01*
X666Y6606D01*
X589Y6574D01*
X523Y6524D01*
X473Y6458D01*
X441Y6381D01*
X430Y6299D01*
X441Y6217D01*
X473Y6140D01*
X523Y6075D01*
X589Y6024D01*
X666Y5992D01*
X748Y5982D01*
X830Y5992D01*
X907Y6024D01*
X973Y6075D01*
X1023Y6140D01*
X1039Y6178D01*
X1199D01*
X1260Y6064D01*
X1229Y5988D01*
X1218Y5906D01*
X1229Y5823D01*
X1250Y5770D01*
X1219Y5695D01*
X1184Y5652D01*
X1031D01*
X1023Y5671D01*
X973Y5736D01*
X907Y5787D01*
X830Y5819D01*
X748Y5829D01*
X666Y5819D01*
X589Y5787D01*
X523Y5736D01*
X473Y5671D01*
X441Y5594D01*
X430Y5512D01*
X441Y5430D01*
X473Y5353D01*
X523Y5287D01*
X589Y5237D01*
X666Y5205D01*
X748Y5194D01*
X830Y5205D01*
X907Y5237D01*
X973Y5287D01*
X1023Y5353D01*
X1031Y5371D01*
X1184D01*
X1219Y5329D01*
X1250Y5253D01*
X1229Y5200D01*
X1218Y5118D01*
X1229Y5036D01*
X1250Y4983D01*
X1219Y4908D01*
X1184Y4865D01*
X1031D01*
X1023Y4883D01*
X973Y4949D01*
X907Y5000D01*
X830Y5031D01*
X748Y5042D01*
X666Y5031D01*
X589Y5000D01*
X523Y4949D01*
X473Y4883D01*
X441Y4807D01*
X430Y4724D01*
X441Y4646D01*
X441Y4642D01*
X361Y4528D01*
X120D01*
Y15628D01*
X4533D01*
X4578Y15518D01*
D02*
G37*
G36*
X5906Y14764D02*
X4724Y13583D01*
X4724Y12457D01*
X4669Y12402D01*
X3937D01*
X3661Y12677D01*
Y14488D01*
X4801Y15628D01*
X5906D01*
Y14764D01*
D02*
G37*
G36*
X8778Y15544D02*
X8778Y14764D01*
X8778Y14764D01*
X8784Y14733D01*
X8789Y14725D01*
X8634Y14570D01*
X7456D01*
X7395Y14558D01*
X7343Y14523D01*
X7343Y14523D01*
X7264Y14444D01*
X7144Y14427D01*
X7118Y14444D01*
X7087Y14450D01*
X5860D01*
X5815Y14559D01*
X5962Y14707D01*
X5980Y14733D01*
X5986Y14764D01*
Y15628D01*
X8694D01*
X8778Y15544D01*
D02*
G37*
G36*
X39250Y12884D02*
X39171Y12846D01*
X39135Y12874D01*
X39059Y12905D01*
X38976Y12916D01*
X38894Y12905D01*
X38818Y12874D01*
X38752Y12823D01*
X38701Y12757D01*
X38670Y12681D01*
X38659Y12598D01*
X36735D01*
X36724Y12681D01*
X36692Y12757D01*
X36642Y12823D01*
X36576Y12874D01*
X36500Y12905D01*
X36417Y12916D01*
X36335Y12905D01*
X36258Y12874D01*
X36193Y12823D01*
X36142Y12757D01*
X36110Y12681D01*
X36100Y12598D01*
X34176D01*
X34165Y12681D01*
X34133Y12757D01*
X34083Y12823D01*
X34017Y12874D01*
X33940Y12905D01*
X33858Y12916D01*
X33776Y12905D01*
X33699Y12874D01*
X33634Y12823D01*
X33583Y12757D01*
X33551Y12681D01*
X33541Y12598D01*
X31617D01*
X31606Y12681D01*
X31574Y12757D01*
X31524Y12823D01*
X31458Y12874D01*
X31381Y12905D01*
X31299Y12916D01*
X31217Y12905D01*
X31140Y12874D01*
X31075Y12823D01*
X31024Y12757D01*
X30992Y12681D01*
X30982Y12598D01*
X29058D01*
X29047Y12681D01*
X29015Y12757D01*
X28965Y12823D01*
X28899Y12874D01*
X28822Y12905D01*
X28740Y12916D01*
X28658Y12905D01*
X28581Y12874D01*
X28516Y12823D01*
X28465Y12757D01*
X28433Y12681D01*
X28422Y12598D01*
X26499D01*
X26488Y12681D01*
X26456Y12757D01*
X26406Y12823D01*
X26340Y12874D01*
X26263Y12905D01*
X26181Y12916D01*
X26099Y12905D01*
X26022Y12874D01*
X25956Y12823D01*
X25906Y12757D01*
X25874Y12681D01*
X25863Y12598D01*
X23940D01*
X23929Y12681D01*
X23897Y12757D01*
X23847Y12823D01*
X23781Y12874D01*
X23704Y12905D01*
X23622Y12916D01*
X23540Y12905D01*
X23463Y12874D01*
X23397Y12823D01*
X23347Y12757D01*
X23315Y12681D01*
X23304Y12598D01*
X21381D01*
X21370Y12681D01*
X21338Y12757D01*
X21288Y12823D01*
X21222Y12874D01*
X21145Y12905D01*
X21063Y12916D01*
X20981Y12905D01*
X20904Y12874D01*
X20838Y12823D01*
X20788Y12757D01*
X20756Y12681D01*
X20745Y12598D01*
X18822D01*
X18811Y12681D01*
X18779Y12757D01*
X18729Y12823D01*
X18663Y12874D01*
X18586Y12905D01*
X18504Y12916D01*
X18422Y12905D01*
X18345Y12874D01*
X18279Y12823D01*
X18229Y12757D01*
X18197Y12681D01*
X18186Y12598D01*
X16263D01*
X16252Y12681D01*
X16220Y12757D01*
X16170Y12823D01*
X16104Y12874D01*
X16027Y12905D01*
X15945Y12916D01*
X15863Y12905D01*
X15786Y12874D01*
X15720Y12823D01*
X15670Y12757D01*
X15638Y12681D01*
X15627Y12598D01*
X13976D01*
Y15628D01*
X39250D01*
Y12884D01*
D02*
G37*
G36*
X10827Y14764D02*
Y12402D01*
X9764D01*
Y13858D01*
X8858Y14764D01*
X8858Y15628D01*
X9963D01*
X10827Y14764D01*
D02*
G37*
G36*
X29134Y8642D02*
X29120Y8616D01*
X29068Y8445D01*
X29051Y8268D01*
X29068Y8090D01*
X29120Y7920D01*
X29134Y7894D01*
Y6773D01*
X28577D01*
X28206Y7143D01*
X28180Y7161D01*
X28150Y7167D01*
X26772D01*
X26741Y7161D01*
X26715Y7143D01*
X26715Y7143D01*
X26345Y6773D01*
X26018D01*
X25844Y6947D01*
X25818Y6964D01*
X25787Y6970D01*
X24096D01*
Y7894D01*
X24095Y7897D01*
X24096Y7901D01*
X24092Y7913D01*
X24090Y7924D01*
X24088Y7928D01*
X24087Y7931D01*
X24076Y7950D01*
X24029Y8106D01*
X24016Y8243D01*
Y8293D01*
X24029Y8429D01*
X24076Y8585D01*
X24087Y8604D01*
X24088Y8608D01*
X24090Y8611D01*
X24092Y8623D01*
X24096Y8634D01*
X24095Y8638D01*
X24096Y8642D01*
Y9646D01*
X25787D01*
X25984Y9843D01*
X26378D01*
X26772Y9449D01*
X27350D01*
X27461Y9434D01*
X27571Y9449D01*
X28150D01*
X28543Y9843D01*
X29134D01*
Y8642D01*
D02*
G37*
G36*
X34252Y8642D02*
X34238Y8616D01*
X34186Y8445D01*
X34169Y8268D01*
X34186Y8090D01*
X34238Y7920D01*
X34252Y7894D01*
Y6773D01*
X33695D01*
X33324Y7143D01*
X33298Y7161D01*
X33268Y7167D01*
X31890D01*
X31859Y7161D01*
X31833Y7143D01*
X31833Y7143D01*
X31463Y6773D01*
X31136D01*
X30962Y6947D01*
X30936Y6964D01*
X30906Y6970D01*
X29214D01*
Y7894D01*
X29213Y7897D01*
X29214Y7901D01*
X29210Y7913D01*
X29208Y7924D01*
X29206Y7928D01*
X29205Y7931D01*
X29195Y7950D01*
X29147Y8106D01*
X29134Y8243D01*
Y8293D01*
X29147Y8429D01*
X29195Y8585D01*
X29205Y8604D01*
X29206Y8608D01*
X29208Y8611D01*
X29210Y8623D01*
X29214Y8634D01*
X29213Y8638D01*
X29214Y8642D01*
Y9646D01*
X30906D01*
X31102Y9843D01*
X31496D01*
X31890Y9449D01*
X32469D01*
X32579Y9434D01*
X32689Y9449D01*
X33268D01*
X33661Y9843D01*
X34252D01*
Y8642D01*
D02*
G37*
G36*
X39250Y6773D02*
X38813D01*
X38443Y7143D01*
X38417Y7161D01*
X38386Y7167D01*
X37008D01*
X36977Y7161D01*
X36951Y7143D01*
X36951Y7143D01*
X36581Y6773D01*
X36254D01*
X36080Y6947D01*
X36054Y6964D01*
X36024Y6970D01*
X34332D01*
Y7894D01*
X34331Y7897D01*
X34332Y7901D01*
X34328Y7913D01*
X34326Y7924D01*
X34324Y7928D01*
X34323Y7931D01*
X34313Y7950D01*
X34265Y8106D01*
X34252Y8243D01*
Y8293D01*
X34265Y8429D01*
X34313Y8585D01*
X34323Y8604D01*
X34324Y8608D01*
X34326Y8611D01*
X34328Y8623D01*
X34332Y8634D01*
X34331Y8638D01*
X34332Y8642D01*
Y9646D01*
X36024D01*
X36220Y9843D01*
X36614D01*
X37008Y9449D01*
X37587D01*
X37697Y9434D01*
X37807Y9449D01*
X38386D01*
X38780Y9843D01*
X39250D01*
Y6773D01*
D02*
G37*
G36*
X24016Y8642D02*
X24002Y8616D01*
X23950Y8445D01*
X23933Y8268D01*
X23950Y8090D01*
X24002Y7920D01*
X24016Y7894D01*
Y6773D01*
X23458D01*
X23088Y7143D01*
X23062Y7161D01*
X23031Y7167D01*
X21654D01*
X21654Y7167D01*
X21623Y7161D01*
X21597Y7143D01*
X21597Y7143D01*
X21227Y6773D01*
X20899D01*
X20726Y6947D01*
X20700Y6964D01*
X20669Y6970D01*
X18978D01*
Y7894D01*
X18977Y7897D01*
X18978Y7901D01*
X18974Y7913D01*
X18972Y7924D01*
X18970Y7928D01*
X18968Y7931D01*
X18958Y7950D01*
X18911Y8106D01*
X18898Y8243D01*
Y8293D01*
X18911Y8429D01*
X18958Y8585D01*
X18968Y8604D01*
X18970Y8608D01*
X18972Y8611D01*
X18974Y8623D01*
X18978Y8634D01*
X18977Y8638D01*
X18978Y8642D01*
Y9646D01*
X20669D01*
X20866Y9843D01*
X21260D01*
X21654Y9449D01*
X22232D01*
X22343Y9434D01*
X22453Y9449D01*
X23031D01*
X23425Y9843D01*
X24016D01*
Y8642D01*
D02*
G37*
G36*
X13622Y120D02*
X10827D01*
X10827Y3169D01*
X10925Y3268D01*
X11013D01*
X11940Y2341D01*
X12022Y2278D01*
X12118Y2238D01*
X12220Y2225D01*
X12520D01*
X12622Y2238D01*
X12718Y2278D01*
X12800Y2341D01*
X12864Y2423D01*
X12903Y2519D01*
X12917Y2622D01*
X12903Y2725D01*
X12864Y2821D01*
X12800Y2903D01*
X12718Y2966D01*
X12622Y3006D01*
X12520Y3019D01*
X12385D01*
X11423Y3982D01*
X11340Y4045D01*
X11245Y4084D01*
X11142Y4098D01*
X9771D01*
X8925Y4944D01*
Y5421D01*
X8911Y5524D01*
X8871Y5620D01*
X8808Y5702D01*
X8308Y6202D01*
X8226Y6265D01*
X8130Y6305D01*
X8028Y6318D01*
X7925Y6305D01*
X7829Y6265D01*
X7747Y6202D01*
X7684Y6120D01*
X7644Y6024D01*
X7630Y5921D01*
X7644Y5818D01*
X7684Y5723D01*
X7747Y5640D01*
X8130Y5257D01*
Y4780D01*
X8144Y4677D01*
X8184Y4581D01*
X8247Y4499D01*
X9262Y3484D01*
Y3465D01*
X9148Y3346D01*
X3740Y3346D01*
Y4290D01*
X3818Y4367D01*
X7114D01*
X7168Y4378D01*
X7213Y4408D01*
X7412Y4607D01*
X7440Y4595D01*
X7528Y4584D01*
X7615Y4595D01*
X7696Y4629D01*
X7766Y4683D01*
X7820Y4752D01*
X7854Y4834D01*
X7865Y4921D01*
X7854Y5009D01*
X7820Y5090D01*
X7766Y5160D01*
X7696Y5214D01*
X7615Y5247D01*
X7528Y5259D01*
X7440Y5247D01*
X7359Y5214D01*
X7289Y5160D01*
X7235Y5090D01*
X7202Y5009D01*
X7190Y4921D01*
X7202Y4834D01*
X7213Y4806D01*
X7056Y4648D01*
X5889D01*
X5845Y4714D01*
X5826Y4766D01*
X5854Y4834D01*
X5865Y4921D01*
X5854Y5009D01*
X5820Y5090D01*
X5766Y5160D01*
X5696Y5214D01*
X5615Y5247D01*
X5528Y5259D01*
X5440Y5247D01*
X5359Y5214D01*
X5289Y5160D01*
X5235Y5090D01*
X5202Y5009D01*
X5190Y4921D01*
X5123Y4845D01*
X3914D01*
X3582Y5177D01*
X3562Y5221D01*
X3564Y5330D01*
X3582Y5353D01*
X3614Y5430D01*
X3625Y5512D01*
X3614Y5594D01*
X3582Y5671D01*
X3551Y5767D01*
X3595Y5837D01*
X3800Y6042D01*
X3831Y6088D01*
X3841Y6142D01*
Y6615D01*
X3977Y6751D01*
X4008Y6796D01*
X4018Y6850D01*
Y7242D01*
X4116Y7340D01*
X6407D01*
X6452Y7231D01*
X5914Y6692D01*
X5879Y6640D01*
X5867Y6579D01*
X5867Y6579D01*
Y6217D01*
X5859Y6214D01*
X5789Y6160D01*
X5735Y6090D01*
X5702Y6009D01*
X5690Y5921D01*
X5702Y5834D01*
X5735Y5752D01*
X5789Y5683D01*
X5859Y5629D01*
X5940Y5595D01*
X6028Y5584D01*
X6115Y5595D01*
X6196Y5629D01*
X6266Y5683D01*
X6320Y5752D01*
X6354Y5834D01*
X6365Y5921D01*
X6354Y6009D01*
X6320Y6090D01*
X6266Y6160D01*
X6196Y6214D01*
X6188Y6217D01*
Y6512D01*
X7173Y7497D01*
X10287D01*
X10287Y7497D01*
X10348Y7509D01*
X10400Y7544D01*
X10688Y7832D01*
X11063D01*
X11063Y7832D01*
X11124Y7844D01*
X11177Y7879D01*
X11846Y8548D01*
X11964D01*
X12087Y8425D01*
X12144Y8381D01*
X12212Y8354D01*
X12283Y8344D01*
X12332D01*
X12351Y8330D01*
X12432Y8296D01*
X12520Y8285D01*
X12607Y8296D01*
X12688Y8330D01*
X12714Y8349D01*
X12832Y8293D01*
Y6951D01*
X12714Y6895D01*
X12688Y6914D01*
X12607Y6948D01*
X12520Y6960D01*
X12432Y6948D01*
X12351Y6914D01*
X12281Y6861D01*
X12227Y6791D01*
X12194Y6709D01*
X12182Y6622D01*
X12194Y6535D01*
X12227Y6453D01*
X12281Y6383D01*
X12351Y6330D01*
X12432Y6296D01*
X12520Y6285D01*
X12607Y6296D01*
X12652Y6315D01*
X12719Y6215D01*
X12456Y5951D01*
X12432Y5948D01*
X12351Y5914D01*
X12281Y5861D01*
X12227Y5791D01*
X12194Y5709D01*
X12182Y5622D01*
X12194Y5535D01*
X12227Y5453D01*
X12281Y5383D01*
X12351Y5330D01*
X12432Y5296D01*
X12520Y5285D01*
X12607Y5296D01*
X12688Y5330D01*
X12758Y5383D01*
X12812Y5453D01*
X12846Y5535D01*
X12849Y5558D01*
X13307Y6016D01*
X13351Y6074D01*
X13379Y6141D01*
X13388Y6213D01*
Y10031D01*
X13379Y10103D01*
X13351Y10170D01*
X13307Y10228D01*
X12849Y10686D01*
X12846Y10709D01*
X12812Y10791D01*
X12758Y10861D01*
X12688Y10914D01*
X12607Y10948D01*
X12584Y10951D01*
X12320Y11215D01*
X12387Y11315D01*
X12432Y11296D01*
X12520Y11285D01*
X12607Y11296D01*
X12688Y11330D01*
X12758Y11383D01*
X12812Y11453D01*
X12846Y11535D01*
X12857Y11622D01*
X12846Y11709D01*
X12812Y11791D01*
X12758Y11861D01*
X12688Y11914D01*
X12607Y11948D01*
X12520Y11960D01*
X12432Y11948D01*
X12351Y11914D01*
X12281Y11861D01*
X12227Y11791D01*
X12206Y11740D01*
X12088Y11763D01*
Y15628D01*
X13622D01*
Y120D01*
D02*
G37*
G36*
X3622Y11929D02*
Y10787D01*
X2835Y10313D01*
X2454D01*
X2414Y10366D01*
X2301Y10453D01*
X2169Y10508D01*
X2028Y10526D01*
X1886Y10508D01*
X1755Y10453D01*
X1641Y10366D01*
X1601Y10313D01*
X1378D01*
X512Y10827D01*
Y12008D01*
X1378Y12520D01*
X2559D01*
X3622Y11929D01*
D02*
G37*
G36*
X6378Y10512D02*
X6436Y10468D01*
X6503Y10440D01*
X6575Y10431D01*
X10082D01*
X10280Y10232D01*
X9835Y9787D01*
X9800Y9735D01*
X9788Y9673D01*
X9788Y9673D01*
Y8784D01*
X9780Y8781D01*
X9710Y8727D01*
X9657Y8657D01*
X9623Y8576D01*
X9611Y8488D01*
X9593Y8468D01*
X9279D01*
X9220Y8586D01*
X9224Y8591D01*
X9262Y8682D01*
X9275Y8780D01*
X9262Y8877D01*
X9224Y8968D01*
X9164Y9046D01*
X9086Y9106D01*
X8995Y9144D01*
X8898Y9157D01*
X8800Y9144D01*
X8709Y9106D01*
X8631Y9046D01*
X8571Y8968D01*
X8533Y8877D01*
X8520Y8780D01*
X8533Y8682D01*
X8549Y8644D01*
X8489Y8531D01*
X8476Y8522D01*
X8410Y8514D01*
X7909Y9015D01*
X7857Y9050D01*
X7795Y9062D01*
X7795Y9062D01*
X7155D01*
X7131Y9180D01*
X7169Y9196D01*
X7239Y9250D01*
X7292Y9319D01*
X7326Y9401D01*
X7338Y9488D01*
X7326Y9576D01*
X7292Y9657D01*
X7239Y9727D01*
X7169Y9780D01*
X7087Y9814D01*
X7000Y9826D01*
X6913Y9814D01*
X6831Y9780D01*
X6761Y9727D01*
X6708Y9657D01*
X6674Y9576D01*
X6662Y9488D01*
X6674Y9401D01*
X6686Y9373D01*
X6572Y9259D01*
X6386D01*
X6316Y9377D01*
X6326Y9401D01*
X6338Y9488D01*
X6326Y9576D01*
X6292Y9657D01*
X6239Y9727D01*
X6169Y9780D01*
X6087Y9814D01*
X6000Y9826D01*
X5913Y9814D01*
X5831Y9780D01*
X5761Y9727D01*
X5708Y9657D01*
X5674Y9576D01*
X5662Y9488D01*
X5674Y9401D01*
X5686Y9373D01*
X5548Y9235D01*
X4861D01*
X4784Y9312D01*
X4739Y9342D01*
X4685Y9353D01*
X4130D01*
X3561Y9922D01*
X3516Y9953D01*
X3462Y9963D01*
X2758D01*
X2705Y9953D01*
X2688Y9941D01*
X2609Y9968D01*
X2605Y9971D01*
X2571Y10001D01*
X2556Y10115D01*
X2557Y10146D01*
X2615Y10233D01*
X2835D01*
X2841Y10234D01*
X2847Y10234D01*
X2856Y10237D01*
X2865Y10239D01*
X2870Y10243D01*
X2876Y10245D01*
X3663Y10719D01*
X3671Y10725D01*
X3679Y10731D01*
X3682Y10736D01*
X3687Y10740D01*
X3691Y10749D01*
X3696Y10757D01*
X3697Y10763D01*
X3700Y10768D01*
X3700Y10778D01*
X3702Y10787D01*
Y11179D01*
X5712D01*
X6378Y10512D01*
D02*
G37*
%LPC*%
G36*
X7028Y6259D02*
X6940Y6247D01*
X6859Y6214D01*
X6789Y6160D01*
X6735Y6090D01*
X6702Y6009D01*
X6690Y5921D01*
X6702Y5834D01*
X6735Y5752D01*
X6789Y5683D01*
X6859Y5629D01*
X6940Y5595D01*
X7028Y5584D01*
X7115Y5595D01*
X7196Y5629D01*
X7266Y5683D01*
X7320Y5752D01*
X7354Y5834D01*
X7365Y5921D01*
X7354Y6009D01*
X7320Y6090D01*
X7266Y6160D01*
X7196Y6214D01*
X7115Y6247D01*
X7028Y6259D01*
D02*
G37*
G36*
X10079Y6007D02*
X9981Y5994D01*
X9890Y5957D01*
X9812Y5897D01*
X9752Y5819D01*
X9714Y5728D01*
X9701Y5630D01*
X9714Y5532D01*
X9752Y5441D01*
X9812Y5363D01*
X9890Y5303D01*
X9981Y5266D01*
X10079Y5253D01*
X10176Y5266D01*
X10267Y5303D01*
X10345Y5363D01*
X10405Y5441D01*
X10443Y5532D01*
X10456Y5630D01*
X10443Y5728D01*
X10405Y5819D01*
X10345Y5897D01*
X10267Y5957D01*
X10176Y5994D01*
X10079Y6007D01*
D02*
G37*
G36*
X6311Y12819D02*
X5894D01*
X5808Y12802D01*
X5735Y12753D01*
X5686Y12681D01*
X5669Y12594D01*
X5686Y12508D01*
X5735Y12436D01*
X5808Y12387D01*
X5894Y12370D01*
X6311D01*
X6397Y12387D01*
X6470Y12436D01*
X6519Y12508D01*
X6536Y12594D01*
X6519Y12681D01*
X6470Y12753D01*
X6397Y12802D01*
X6311Y12819D01*
D02*
G37*
%LPD*%
D14*
X4606Y1063D02*
X7083D01*
X3720Y1949D02*
X4606Y1063D01*
X3169Y1949D02*
X3720D01*
X4058Y7480D02*
X6620D01*
X3878Y7300D02*
X4058Y7480D01*
X3878Y6850D02*
Y7300D01*
X3895Y7874D02*
X6457D01*
X3481Y7461D02*
X3895Y7874D01*
X3152Y7461D02*
X3481D01*
X3976Y7677D02*
X6538D01*
X3681Y7382D02*
X3976Y7677D01*
X3681Y6932D02*
Y7382D01*
X10449Y8404D02*
Y9488D01*
X10115Y8071D02*
X10449Y8404D01*
X6932Y8071D02*
X10115D01*
X10811Y8488D02*
X10949D01*
X10197Y7874D02*
X10811Y8488D01*
X7013Y7874D02*
X10197D01*
X6620Y7480D02*
X7013Y7874D01*
X3701Y6673D02*
X3878Y6850D01*
X3701Y6142D02*
Y6673D01*
X3445Y5886D02*
X3701Y6142D01*
X3029Y5886D02*
X3445D01*
X3442Y6693D02*
X3681Y6932D01*
X3071Y6693D02*
X3442D01*
X6538Y7677D02*
X6932Y8071D01*
X7071Y8488D02*
X7500D01*
X6457Y7874D02*
X7071Y8488D01*
X4803Y9094D02*
X5606D01*
X4685Y9213D02*
X4803Y9094D01*
X4072Y9213D02*
X4685D01*
X4723Y8291D02*
X5329Y8898D01*
X3992Y8291D02*
X4723D01*
X3681Y8602D02*
X3992Y8291D01*
X6106Y8094D02*
X6500Y8488D01*
X3462Y8248D02*
X3616Y8094D01*
X6106D01*
X3462Y9823D02*
X4072Y9213D01*
X2758Y9823D02*
X3462D01*
X2146Y9210D02*
X2758Y9823D01*
X5606Y9094D02*
X6000Y9488D01*
X6019Y8898D02*
X6239Y9118D01*
X5329Y8898D02*
X6019D01*
X3681Y8602D02*
Y8816D01*
X3462Y9035D02*
X3681Y8816D01*
X3068Y9035D02*
X3462D01*
X3049Y9055D02*
X3068Y9035D01*
X3091Y5098D02*
X3462D01*
X2717Y4724D02*
X3091Y5098D01*
X748Y4724D02*
X2717D01*
X5311Y4705D02*
X5528Y4921D01*
X3856Y4705D02*
X5311D01*
X3462Y5098D02*
X3856Y4705D01*
X3760Y4508D02*
X7114D01*
X3563Y4311D02*
X3760Y4508D01*
X3029Y4311D02*
X3563D01*
X2675Y3957D02*
X3029Y4311D01*
X6630Y9118D02*
X7000Y9488D01*
X6239Y9118D02*
X6630D01*
X2675Y5531D02*
X3029Y5886D01*
X2404Y5531D02*
X2675D01*
X1991Y5118D02*
X2404Y5531D01*
X1535Y5118D02*
X1991D01*
X2657Y6280D02*
X3071Y6693D01*
X2365Y6280D02*
X2657D01*
X2146Y6060D02*
X2365Y6280D01*
X2146Y5768D02*
Y6060D01*
X1890Y5512D02*
X2146Y5768D01*
X748Y5512D02*
X1890D01*
X2739Y7047D02*
X3152Y7461D01*
X2694Y7047D02*
X2739D01*
X2675Y7067D02*
X2694Y7047D01*
X2365Y7067D02*
X2675D01*
X2146Y6848D02*
X2365Y7067D01*
X2146Y6496D02*
Y6848D01*
X1555Y5906D02*
X2146Y6496D01*
X2758Y7854D02*
X3152Y8248D01*
X2365Y7854D02*
X2758D01*
X2146Y7635D02*
X2365Y7854D01*
X2146Y7146D02*
Y7635D01*
X1909Y6909D02*
X2146Y7146D01*
X1909Y6538D02*
Y6909D01*
X1690Y6319D02*
X1909Y6538D01*
X768Y6319D02*
X1690D01*
X2675Y8681D02*
X3049Y9055D01*
X2404Y8681D02*
X2675D01*
X2106Y8383D02*
X2404Y8681D01*
X2106Y8031D02*
Y8383D01*
X1949Y7874D02*
X2106Y8031D01*
X1949Y7227D02*
Y7874D01*
X1535Y6814D02*
X1949Y7227D01*
X2146Y8701D02*
Y9210D01*
X1909Y8465D02*
X2146Y8701D01*
X1909Y8113D02*
Y8465D01*
X1690Y7894D02*
X1909Y8113D01*
X1420Y7894D02*
X1690D01*
X1161Y7635D02*
X1420Y7894D01*
X1161Y7461D02*
Y7635D01*
X787Y7087D02*
X1161Y7461D01*
X7114Y4508D02*
X7528Y4921D01*
X2365Y3957D02*
X2675D01*
X1991Y4331D02*
X2365Y3957D01*
X1535Y4331D02*
X1991D01*
X748Y7087D02*
X787D01*
X1535Y6693D02*
Y6814D01*
X3152Y8248D02*
X3462D01*
X748Y6299D02*
X768Y6319D01*
X1535Y5906D02*
X1555D01*
X3386Y866D02*
X7886D01*
X2657Y1594D02*
X3386Y866D01*
X1909Y1594D02*
X2657D01*
X7886Y866D02*
X8539Y1520D01*
X7083Y1063D02*
X7539Y1520D01*
X2675Y3130D02*
X3068Y2736D01*
X2365Y3130D02*
X2675D01*
X1991Y2756D02*
X2365Y3130D01*
X2776Y2343D02*
X3169Y1949D01*
X768Y2343D02*
X2776D01*
X6596Y2520D02*
X7039D01*
X6202Y2126D02*
X6596Y2520D01*
X4786Y2126D02*
X6202D01*
X4175Y2736D02*
X4786Y2126D01*
X3068Y2736D02*
X4175D01*
X1535Y2756D02*
X1991D01*
X1535Y1969D02*
X1909Y1594D01*
X748Y2362D02*
X768Y2343D01*
D15*
X12008Y8898D02*
X12283Y8622D01*
X10591Y10315D02*
X12008Y8898D01*
X10197Y10709D02*
X10591Y10315D01*
X12283Y8622D02*
X12520D01*
X6575Y10709D02*
X10197D01*
X11181Y11961D02*
Y12559D01*
Y11961D02*
X12520Y10622D01*
X3307Y11811D02*
X3661Y11457D01*
X5827D01*
X6575Y10709D01*
X12520Y5622D02*
X13110Y6213D01*
Y10031D01*
X12520Y10622D02*
X13110Y10031D01*
D16*
X11968Y8898D02*
X12008D01*
X11063Y7992D02*
X11968Y8898D01*
X10621Y7992D02*
X11063D01*
X10287Y7657D02*
X10621Y7992D01*
X7106Y7657D02*
X10287D01*
X6028Y6579D02*
X7106Y7657D01*
X6028Y5921D02*
Y6579D01*
X9768Y8307D02*
X9949Y8488D01*
X8390Y8307D02*
X9768D01*
X7795Y8902D02*
X8390Y8307D01*
X6329Y8902D02*
X7795D01*
X9949Y9673D02*
X10591Y10315D01*
X9949Y8488D02*
Y9673D01*
X5915Y8488D02*
X6329Y8902D01*
X5500Y8488D02*
X5915D01*
X7028Y13981D02*
X7456Y14409D01*
X8701D01*
X7402Y12638D02*
Y13307D01*
X7028Y13681D02*
X7402Y13307D01*
X7028Y13681D02*
Y13981D01*
X8701Y14409D02*
X9449Y15157D01*
D17*
X6102Y12594D02*
X6102Y12594D01*
X7323Y13858D02*
X7563Y14098D01*
X8465D01*
D18*
X9606Y3701D02*
D03*
D19*
X7638Y3701D02*
D03*
X11181Y10591D02*
D03*
D20*
X11417Y15157D02*
D03*
X12795D02*
D03*
X5315D02*
D03*
X8071D02*
D03*
X9449D02*
D03*
X6693D02*
D03*
D21*
X11181Y12559D02*
D03*
D22*
X14606Y2756D02*
D03*
Y5512D02*
D03*
Y8268D02*
D03*
X19724Y2756D02*
D03*
Y5512D02*
D03*
X19724Y8268D02*
D03*
X24843Y2756D02*
D03*
Y5512D02*
D03*
Y8268D02*
D03*
X29961Y2756D02*
D03*
X29961Y5512D02*
D03*
X29961Y8268D02*
D03*
X35079Y2756D02*
D03*
Y5512D02*
D03*
Y8268D02*
D03*
D23*
X12520Y2622D02*
D03*
Y3622D02*
D03*
Y4622D02*
D03*
Y5622D02*
D03*
Y6622D02*
D03*
Y8622D02*
D03*
Y9622D02*
D03*
Y10622D02*
D03*
Y11622D02*
D03*
X7500Y8488D02*
D03*
X7000Y9488D02*
D03*
X6500Y8488D02*
D03*
X6000Y9488D02*
D03*
X5500Y8488D02*
D03*
X5000Y9488D02*
D03*
X9449D02*
D03*
X9949Y8488D02*
D03*
X10449Y9488D02*
D03*
X10949Y8488D02*
D03*
X6028Y5921D02*
D03*
X6528Y4921D02*
D03*
X7028Y5921D02*
D03*
X7528Y4921D02*
D03*
X8028Y5921D02*
D03*
X8528Y4921D02*
D03*
X9028Y5921D02*
D03*
X9528Y4921D02*
D03*
X5528D02*
D03*
X5028Y5921D02*
D03*
X8539Y1520D02*
D03*
X8039Y2520D02*
D03*
X7539Y1520D02*
D03*
X7039Y2520D02*
D03*
X6539Y1520D02*
D03*
X6039Y2520D02*
D03*
X5539Y1520D02*
D03*
X5039Y2520D02*
D03*
X9039D02*
D03*
X9539Y1520D02*
D03*
D24*
X17717Y6693D02*
D03*
X16732D02*
D03*
X17717Y14567D02*
D03*
X18504Y14173D02*
D03*
X17717Y13780D02*
D03*
X18504Y13386D02*
D03*
X17717Y12992D02*
D03*
X18504Y12598D02*
D03*
X17717Y12205D02*
D03*
X18504Y11811D02*
D03*
X17717Y11417D02*
D03*
X18504Y11024D02*
D03*
X17717Y10630D02*
D03*
X18504Y9449D02*
D03*
X17717Y9055D02*
D03*
X18504Y8661D02*
D03*
X17717Y8268D02*
D03*
X18504Y7874D02*
D03*
X17717Y7480D02*
D03*
X18504Y7087D02*
D03*
Y6299D02*
D03*
X17717Y5906D02*
D03*
X18504Y5512D02*
D03*
X17717Y5118D02*
D03*
X18504Y4724D02*
D03*
X17717Y4331D02*
D03*
X18504Y3937D02*
D03*
X17717Y3543D02*
D03*
X18504Y3150D02*
D03*
X17717Y2756D02*
D03*
X18504Y2362D02*
D03*
X17717Y1969D02*
D03*
X18504Y1575D02*
D03*
X16732Y14567D02*
D03*
X15945Y14173D02*
D03*
X16732Y13780D02*
D03*
X15945Y13386D02*
D03*
X16732Y12992D02*
D03*
X15945Y12598D02*
D03*
X16732Y12205D02*
D03*
X15945Y11811D02*
D03*
X16732Y11417D02*
D03*
X15945Y11024D02*
D03*
X16732Y10630D02*
D03*
X15945Y9449D02*
D03*
X16732Y9055D02*
D03*
X15945Y8661D02*
D03*
X16732Y8268D02*
D03*
X15945Y7874D02*
D03*
X16732Y7480D02*
D03*
X15945Y7087D02*
D03*
Y6299D02*
D03*
X16732Y5906D02*
D03*
X15945Y5512D02*
D03*
X16732Y5118D02*
D03*
X15945Y4724D02*
D03*
X16732Y4331D02*
D03*
X15945Y3937D02*
D03*
X16732Y3543D02*
D03*
X15945Y3150D02*
D03*
X16732Y2756D02*
D03*
X15945Y2362D02*
D03*
X16732Y1969D02*
D03*
X15945Y1575D02*
D03*
X22835Y6693D02*
D03*
X21850D02*
D03*
X22835Y14567D02*
D03*
X23622Y14173D02*
D03*
X22835Y13780D02*
D03*
X23622Y13386D02*
D03*
X22835Y12992D02*
D03*
X23622Y12598D02*
D03*
X22835Y12205D02*
D03*
X23622Y11811D02*
D03*
X22835Y11417D02*
D03*
X23622Y11024D02*
D03*
X22835Y10630D02*
D03*
X23622Y9449D02*
D03*
X22835Y9055D02*
D03*
X23622Y8661D02*
D03*
X22835Y8268D02*
D03*
X23622Y7874D02*
D03*
X22835Y7480D02*
D03*
X23622Y7087D02*
D03*
Y6299D02*
D03*
X22835Y5906D02*
D03*
X23622Y5512D02*
D03*
X22835Y5118D02*
D03*
X23622Y4724D02*
D03*
X22835Y4331D02*
D03*
X23622Y3937D02*
D03*
X22835Y3543D02*
D03*
X23622Y3150D02*
D03*
X22835Y2756D02*
D03*
X23622Y2362D02*
D03*
X22835Y1969D02*
D03*
X23622Y1575D02*
D03*
X21850Y14567D02*
D03*
X21063Y14173D02*
D03*
X21850Y13780D02*
D03*
X21063Y13386D02*
D03*
X21850Y12992D02*
D03*
X21063Y12598D02*
D03*
X21850Y12205D02*
D03*
X21063Y11811D02*
D03*
X21850Y11417D02*
D03*
X21063Y11024D02*
D03*
X21850Y10630D02*
D03*
X21063Y9449D02*
D03*
X21850Y9055D02*
D03*
X21063Y8661D02*
D03*
X21850Y8268D02*
D03*
X21063Y7874D02*
D03*
X21850Y7480D02*
D03*
X21063Y7087D02*
D03*
Y6299D02*
D03*
X21850Y5906D02*
D03*
X21063Y5512D02*
D03*
X21850Y5118D02*
D03*
X21063Y4724D02*
D03*
X21850Y4331D02*
D03*
X21063Y3937D02*
D03*
X21850Y3543D02*
D03*
X21063Y3150D02*
D03*
X21850Y2756D02*
D03*
X21063Y2362D02*
D03*
X21850Y1969D02*
D03*
X21063Y1575D02*
D03*
X27953Y6693D02*
D03*
X26969D02*
D03*
X27953Y14567D02*
D03*
X28740Y14173D02*
D03*
X27953Y13780D02*
D03*
X28740Y13386D02*
D03*
X27953Y12992D02*
D03*
X28740Y12598D02*
D03*
X27953Y12205D02*
D03*
X28740Y11811D02*
D03*
X27953Y11417D02*
D03*
X28740Y11024D02*
D03*
X27953Y10630D02*
D03*
X28740Y9449D02*
D03*
X27953Y9055D02*
D03*
X28740Y8661D02*
D03*
X27953Y8268D02*
D03*
X28740Y7874D02*
D03*
X27953Y7480D02*
D03*
X28740Y7087D02*
D03*
Y6299D02*
D03*
X27953Y5906D02*
D03*
X28740Y5512D02*
D03*
X27953Y5118D02*
D03*
X28740Y4724D02*
D03*
X27953Y4331D02*
D03*
X28740Y3937D02*
D03*
X27953Y3543D02*
D03*
X28740Y3150D02*
D03*
X27953Y2756D02*
D03*
X28740Y2362D02*
D03*
X27953Y1969D02*
D03*
X28740Y1575D02*
D03*
X26969Y14567D02*
D03*
X26181Y14173D02*
D03*
X26969Y13780D02*
D03*
X26181Y13386D02*
D03*
X26969Y12992D02*
D03*
X26181Y12598D02*
D03*
X26969Y12205D02*
D03*
X26181Y11811D02*
D03*
X26969Y11417D02*
D03*
X26181Y11024D02*
D03*
X26969Y10630D02*
D03*
X26181Y9449D02*
D03*
X26969Y9055D02*
D03*
X26181Y8661D02*
D03*
X26969Y8268D02*
D03*
X26181Y7874D02*
D03*
X26969Y7480D02*
D03*
X26181Y7087D02*
D03*
Y6299D02*
D03*
X26969Y5906D02*
D03*
X26181Y5512D02*
D03*
X26969Y5118D02*
D03*
X26181Y4724D02*
D03*
X26969Y4331D02*
D03*
X26181Y3937D02*
D03*
X26969Y3543D02*
D03*
X26181Y3150D02*
D03*
X26969Y2756D02*
D03*
X26181Y2362D02*
D03*
X26969Y1969D02*
D03*
X26181Y1575D02*
D03*
X33071Y6693D02*
D03*
X32087D02*
D03*
X33071Y14567D02*
D03*
X33858Y14173D02*
D03*
X33071Y13780D02*
D03*
X33858Y13386D02*
D03*
X33071Y12992D02*
D03*
X33858Y12598D02*
D03*
X33071Y12205D02*
D03*
X33858Y11811D02*
D03*
X33071Y11417D02*
D03*
X33858Y11024D02*
D03*
X33071Y10630D02*
D03*
X33858Y9449D02*
D03*
X33071Y9055D02*
D03*
X33858Y8661D02*
D03*
X33071Y8268D02*
D03*
X33858Y7874D02*
D03*
X33071Y7480D02*
D03*
X33858Y7087D02*
D03*
Y6299D02*
D03*
X33071Y5906D02*
D03*
X33858Y5512D02*
D03*
X33071Y5118D02*
D03*
X33858Y4724D02*
D03*
X33071Y4331D02*
D03*
X33858Y3937D02*
D03*
X33071Y3543D02*
D03*
X33858Y3150D02*
D03*
X33071Y2756D02*
D03*
X33858Y2362D02*
D03*
X33071Y1969D02*
D03*
X33858Y1575D02*
D03*
X32087Y14567D02*
D03*
X31299Y14173D02*
D03*
X32087Y13780D02*
D03*
X31299Y13386D02*
D03*
X32087Y12992D02*
D03*
X31299Y12598D02*
D03*
X32087Y12205D02*
D03*
X31299Y11811D02*
D03*
X32087Y11417D02*
D03*
X31299Y11024D02*
D03*
X32087Y10630D02*
D03*
X31299Y9449D02*
D03*
X32087Y9055D02*
D03*
X31299Y8661D02*
D03*
X32087Y8268D02*
D03*
X31299Y7874D02*
D03*
X32087Y7480D02*
D03*
X31299Y7087D02*
D03*
Y6299D02*
D03*
X32087Y5906D02*
D03*
X31299Y5512D02*
D03*
X32087Y5118D02*
D03*
X31299Y4724D02*
D03*
X32087Y4331D02*
D03*
X31299Y3937D02*
D03*
X32087Y3543D02*
D03*
X31299Y3150D02*
D03*
X32087Y2756D02*
D03*
X31299Y2362D02*
D03*
X32087Y1969D02*
D03*
X31299Y1575D02*
D03*
X38189Y6693D02*
D03*
X37205D02*
D03*
X38189Y14567D02*
D03*
X38976Y14173D02*
D03*
X38189Y13780D02*
D03*
X38976Y13386D02*
D03*
X38189Y12992D02*
D03*
X38976Y12598D02*
D03*
X38189Y12205D02*
D03*
X38976Y11811D02*
D03*
X38189Y11417D02*
D03*
X38976Y11024D02*
D03*
X38189Y10630D02*
D03*
X38976Y9449D02*
D03*
X38189Y9055D02*
D03*
X38976Y8661D02*
D03*
X38189Y8268D02*
D03*
X38976Y7874D02*
D03*
X38189Y7480D02*
D03*
X38976Y7087D02*
D03*
Y6299D02*
D03*
X38189Y5906D02*
D03*
X38976Y5512D02*
D03*
X38189Y5118D02*
D03*
X38976Y4724D02*
D03*
X38189Y4331D02*
D03*
X38976Y3937D02*
D03*
X38189Y3543D02*
D03*
X38976Y3150D02*
D03*
X38189Y2756D02*
D03*
X38976Y2362D02*
D03*
X38189Y1969D02*
D03*
X38976Y1575D02*
D03*
X37205Y14567D02*
D03*
X36417Y14173D02*
D03*
X37205Y13780D02*
D03*
X36417Y13386D02*
D03*
X37205Y12992D02*
D03*
X36417Y12598D02*
D03*
X37205Y12205D02*
D03*
X36417Y11811D02*
D03*
X37205Y11417D02*
D03*
X36417Y11024D02*
D03*
X37205Y10630D02*
D03*
X36417Y9449D02*
D03*
X37205Y9055D02*
D03*
X36417Y8661D02*
D03*
X37205Y8268D02*
D03*
X36417Y7874D02*
D03*
X37205Y7480D02*
D03*
X36417Y7087D02*
D03*
Y6299D02*
D03*
X37205Y5906D02*
D03*
X36417Y5512D02*
D03*
X37205Y5118D02*
D03*
X36417Y4724D02*
D03*
X37205Y4331D02*
D03*
X36417Y3937D02*
D03*
X37205Y3543D02*
D03*
X36417Y3150D02*
D03*
X37205Y2756D02*
D03*
X36417Y2362D02*
D03*
X37205Y1969D02*
D03*
X36417Y1575D02*
D03*
X2520Y6693D02*
D03*
X1535D02*
D03*
X2520Y14567D02*
D03*
X3307Y14173D02*
D03*
X2520Y13780D02*
D03*
X3307Y13386D02*
D03*
X2520Y12992D02*
D03*
X3307Y12598D02*
D03*
X2520Y12205D02*
D03*
X3307Y11811D02*
D03*
X2520Y11417D02*
D03*
X3307Y11024D02*
D03*
X2520Y10630D02*
D03*
X3307Y9449D02*
D03*
X2520Y9055D02*
D03*
X3307Y8661D02*
D03*
X2520Y8268D02*
D03*
X3307Y7874D02*
D03*
X2520Y7480D02*
D03*
X3307Y7087D02*
D03*
Y6299D02*
D03*
X2520Y5906D02*
D03*
X3307Y5512D02*
D03*
X2520Y5118D02*
D03*
X3307Y4724D02*
D03*
X2520Y4331D02*
D03*
X3307Y3937D02*
D03*
X2520Y3543D02*
D03*
X3307Y3150D02*
D03*
X2520Y2756D02*
D03*
X3307Y2362D02*
D03*
X2520Y1969D02*
D03*
X3307Y1575D02*
D03*
X1535Y14567D02*
D03*
X748Y14173D02*
D03*
X1535Y13780D02*
D03*
X748Y13386D02*
D03*
X1535Y12992D02*
D03*
X748Y12598D02*
D03*
X1535Y12205D02*
D03*
X748Y11811D02*
D03*
X1535Y11417D02*
D03*
X748Y11024D02*
D03*
X1535Y10630D02*
D03*
X748Y9449D02*
D03*
X1535Y9055D02*
D03*
X748Y8661D02*
D03*
X1535Y8268D02*
D03*
X748Y7874D02*
D03*
X1535Y7480D02*
D03*
X748Y7087D02*
D03*
Y6299D02*
D03*
X1535Y5906D02*
D03*
X748Y5512D02*
D03*
X1535Y5118D02*
D03*
X748Y4724D02*
D03*
X1535Y4331D02*
D03*
X748Y3937D02*
D03*
X1535Y3543D02*
D03*
X748Y3150D02*
D03*
X1535Y2756D02*
D03*
X748Y2362D02*
D03*
X1535Y1969D02*
D03*
X748Y1575D02*
D03*
D25*
X12795Y12402D02*
D03*
X13189Y12992D02*
D03*
X12402D02*
D03*
X12795Y13583D02*
D03*
X13189Y14173D02*
D03*
X12402D02*
D03*
X6496Y10039D02*
D03*
X4724Y10827D02*
D03*
X9843Y10236D02*
D03*
X3937Y15354D02*
D03*
X3346Y10236D02*
D03*
X4921Y12008D02*
D03*
X8268Y9252D02*
D03*
X5709Y6890D02*
D03*
X8465Y7087D02*
D03*
X13189Y11220D02*
D03*
X12402Y7677D02*
D03*
X11220Y2559D02*
D03*
X4134Y5315D02*
D03*
X5906Y3740D02*
D03*
X4134D02*
D03*
X14075Y3839D02*
D03*
X15256D02*
D03*
X14075Y1673D02*
D03*
X15256D02*
D03*
X14665Y3839D02*
D03*
Y1673D02*
D03*
X14075Y4429D02*
D03*
X14665D02*
D03*
X15256D02*
D03*
X14075Y6594D02*
D03*
X14665D02*
D03*
X15256D02*
D03*
X14075Y7185D02*
D03*
X14665D02*
D03*
X15256D02*
D03*
X14075Y9350D02*
D03*
X14665D02*
D03*
X15256D02*
D03*
X19193Y1673D02*
D03*
X19783D02*
D03*
X20374D02*
D03*
X19193Y3839D02*
D03*
X19783D02*
D03*
X20374D02*
D03*
X19193Y4429D02*
D03*
X19783D02*
D03*
X20374D02*
D03*
X19193Y6594D02*
D03*
X19783D02*
D03*
X20374D02*
D03*
X19193Y7185D02*
D03*
X19783D02*
D03*
X20374D02*
D03*
X19193Y9350D02*
D03*
X19783D02*
D03*
X20374D02*
D03*
X24311Y1673D02*
D03*
X24902D02*
D03*
X25492D02*
D03*
X24311Y3839D02*
D03*
X24902D02*
D03*
X25492D02*
D03*
X24311Y4429D02*
D03*
X24902D02*
D03*
X25492D02*
D03*
X24311Y6594D02*
D03*
X24902D02*
D03*
X25492D02*
D03*
X24311Y7185D02*
D03*
X24902D02*
D03*
X25492D02*
D03*
X24311Y9350D02*
D03*
X24902D02*
D03*
X25492D02*
D03*
X29429Y1673D02*
D03*
X30020D02*
D03*
X30610D02*
D03*
X29429Y3839D02*
D03*
X30020D02*
D03*
X30610D02*
D03*
X29429Y4429D02*
D03*
X30020D02*
D03*
X30610D02*
D03*
X29429Y6594D02*
D03*
X30020D02*
D03*
X30610D02*
D03*
X29429Y7185D02*
D03*
X30020D02*
D03*
X30610D02*
D03*
X29429Y9350D02*
D03*
X30020D02*
D03*
X30610D02*
D03*
X34547Y1673D02*
D03*
X35138D02*
D03*
X35728D02*
D03*
X34547Y3839D02*
D03*
X35138D02*
D03*
X35728D02*
D03*
X34547Y4429D02*
D03*
X35138D02*
D03*
X35728D02*
D03*
X34547Y6594D02*
D03*
X35138D02*
D03*
X35728D02*
D03*
X34547Y7185D02*
D03*
X35138D02*
D03*
X35728D02*
D03*
X34547Y9350D02*
D03*
X35138D02*
D03*
X35728D02*
D03*
X11220Y394D02*
D03*
X12205D02*
D03*
X13189D02*
D03*
X4429Y13287D02*
D03*
Y12795D02*
D03*
X3937D02*
D03*
Y13287D02*
D03*
Y13780D02*
D03*
X4429D02*
D03*
X3937Y14272D02*
D03*
X4528D02*
D03*
X4232Y14665D02*
D03*
X5020Y14567D02*
D03*
X4626Y15059D02*
D03*
X10532Y12795D02*
D03*
X10059D02*
D03*
Y13287D02*
D03*
X10532D02*
D03*
X10059Y13780D02*
D03*
X10532D02*
D03*
Y14272D02*
D03*
X10020D02*
D03*
X9646Y14567D02*
D03*
X10138Y15059D02*
D03*
X10433Y14665D02*
D03*
X15354Y12205D02*
D03*
Y11417D02*
D03*
Y10630D02*
D03*
X14961Y11024D02*
D03*
X14567Y10630D02*
D03*
X14173Y11024D02*
D03*
X14961Y11811D02*
D03*
X14567Y12205D02*
D03*
Y11417D02*
D03*
X14173Y11811D02*
D03*
X20472Y12205D02*
D03*
Y11417D02*
D03*
Y10630D02*
D03*
X20079Y11024D02*
D03*
Y11811D02*
D03*
X19685Y12205D02*
D03*
Y11417D02*
D03*
Y10630D02*
D03*
X19291Y11024D02*
D03*
Y11811D02*
D03*
X25591Y12205D02*
D03*
Y11417D02*
D03*
Y10630D02*
D03*
X25197Y11024D02*
D03*
Y11811D02*
D03*
X24803Y12205D02*
D03*
Y11417D02*
D03*
Y10630D02*
D03*
X24409Y11024D02*
D03*
Y11811D02*
D03*
X30709Y12205D02*
D03*
Y11417D02*
D03*
Y10630D02*
D03*
X30315Y11024D02*
D03*
Y11811D02*
D03*
X29921Y12205D02*
D03*
Y11417D02*
D03*
Y10630D02*
D03*
X29528Y11024D02*
D03*
Y11811D02*
D03*
X35827Y12205D02*
D03*
Y11417D02*
D03*
Y10630D02*
D03*
X35433Y11024D02*
D03*
Y11811D02*
D03*
X35039Y12205D02*
D03*
Y11417D02*
D03*
Y10630D02*
D03*
X34646Y11024D02*
D03*
Y11811D02*
D03*
X35827Y12992D02*
D03*
Y13780D02*
D03*
Y14567D02*
D03*
X35433Y13386D02*
D03*
Y14173D02*
D03*
X35039Y14567D02*
D03*
Y13780D02*
D03*
Y12992D02*
D03*
X34646Y13386D02*
D03*
Y14173D02*
D03*
X30709Y12992D02*
D03*
Y13780D02*
D03*
Y14567D02*
D03*
X30315Y14173D02*
D03*
Y13386D02*
D03*
X29921Y13780D02*
D03*
Y12992D02*
D03*
X29528Y13386D02*
D03*
Y14173D02*
D03*
X29921Y14567D02*
D03*
X25591Y12992D02*
D03*
Y13780D02*
D03*
Y14567D02*
D03*
X25197Y14173D02*
D03*
Y13386D02*
D03*
X24803Y12992D02*
D03*
Y13780D02*
D03*
Y14567D02*
D03*
X24409Y14173D02*
D03*
Y13386D02*
D03*
X20472Y13780D02*
D03*
Y14567D02*
D03*
Y12992D02*
D03*
X20079Y13386D02*
D03*
Y14173D02*
D03*
X19685Y14567D02*
D03*
Y13780D02*
D03*
Y12992D02*
D03*
X19291Y13386D02*
D03*
Y14173D02*
D03*
X15354Y12992D02*
D03*
Y13780D02*
D03*
Y14567D02*
D03*
X14961Y14173D02*
D03*
Y13386D02*
D03*
X14567Y12992D02*
D03*
Y13780D02*
D03*
Y14567D02*
D03*
X14173Y14173D02*
D03*
Y13386D02*
D03*
X38976Y15354D02*
D03*
X37795D02*
D03*
X36614D02*
D03*
X35433D02*
D03*
X34252D02*
D03*
X33071D02*
D03*
X31890D02*
D03*
X30709D02*
D03*
X29528D02*
D03*
X28346D02*
D03*
X27165D02*
D03*
X25984D02*
D03*
X24803D02*
D03*
X23622D02*
D03*
X22441D02*
D03*
X21260D02*
D03*
X20079D02*
D03*
X18898D02*
D03*
X17717D02*
D03*
X16535D02*
D03*
X15354D02*
D03*
X11713Y13189D02*
D03*
X11122Y13780D02*
D03*
X11713Y14370D02*
D03*
X11122D02*
D03*
X11713Y13780D02*
D03*
X11122Y13189D02*
D03*
X11713Y12598D02*
D03*
X394Y15354D02*
D03*
D26*
X7402Y12638D02*
D03*
X7047Y12315D02*
D03*
X6102Y12594D02*
D03*
X7323Y13858D02*
D03*
D27*
X4260Y12594D02*
D03*
Y13094D02*
D03*
Y13594D02*
D03*
Y14094D02*
D03*
X6102Y12594D02*
D03*
Y13094D02*
D03*
Y13594D02*
D03*
X10307Y14098D02*
D03*
Y13598D02*
D03*
Y13098D02*
D03*
Y12598D02*
D03*
X8465Y14098D02*
D03*
Y13598D02*
D03*
Y13098D02*
D03*
D28*
X6102Y14094D02*
D03*
X8465Y12598D02*
D03*
D29*
X14764Y13780D02*
D03*
X19882D02*
D03*
X25000D02*
D03*
X30118D02*
D03*
X35236D02*
D03*
X14764Y11417D02*
D03*
X19882D02*
D03*
X25000D02*
D03*
X30118D02*
D03*
X35236D02*
D03*
D30*
X9606Y3701D02*
X11142D01*
X12220Y2622D02*
X12520D01*
X11142Y3701D02*
X12220Y2622D01*
X8528Y4780D02*
X9606Y3701D01*
X8528Y4780D02*
Y4921D01*
X8028Y5921D02*
X8528Y5421D01*
Y4921D02*
Y5421D01*
M02*
