G04 Layer_Color=8388736*
%FSLAX24Y24*%
%MOIN*%
G70*
G01*
G75*
%ADD32O,0.0551X0.0315*%
%ADD33R,0.0551X0.0315*%
%ADD34R,0.0354X0.0433*%
%ADD35R,0.0394X0.0433*%
%ADD36R,0.0610X0.0610*%
%ADD37C,0.0610*%
%ADD38C,0.1024*%
%ADD39C,0.0551*%
%ADD40C,0.0079*%
%ADD41C,0.1732*%
%ADD42C,0.0591*%
D32*
X3260Y13307D02*
D03*
Y12933D02*
D03*
Y12559D02*
D03*
X4291Y13307D02*
D03*
Y12933D02*
D03*
D33*
Y12559D02*
D03*
D34*
X3209Y12008D02*
D03*
X2618D02*
D03*
D35*
X1457Y14016D02*
D03*
X906D02*
D03*
X6142Y14016D02*
D03*
X6693D02*
D03*
D36*
X4331Y3346D02*
D03*
X7323Y11614D02*
D03*
D37*
X2362Y3346D02*
D03*
X9291Y11614D02*
D03*
D38*
X7874Y15157D02*
D03*
X9252D02*
D03*
X1772D02*
D03*
X4528D02*
D03*
X5906D02*
D03*
X3150D02*
D03*
D39*
X12598Y6693D02*
D03*
X11614D02*
D03*
X12598Y14567D02*
D03*
X13386Y14173D02*
D03*
X12598Y13780D02*
D03*
X13386Y13386D02*
D03*
X12598Y12992D02*
D03*
X13386Y12598D02*
D03*
X12598Y12205D02*
D03*
X13386Y11811D02*
D03*
X12598Y11417D02*
D03*
X13386Y11024D02*
D03*
X12598Y10630D02*
D03*
X13386Y9449D02*
D03*
X12598Y9055D02*
D03*
X13386Y8661D02*
D03*
X12598Y8268D02*
D03*
X13386Y7874D02*
D03*
X12598Y7480D02*
D03*
X13386Y7087D02*
D03*
Y6299D02*
D03*
X12598Y5906D02*
D03*
X13386Y5512D02*
D03*
X12598Y5118D02*
D03*
X13386Y4724D02*
D03*
X12598Y4331D02*
D03*
X13386Y3937D02*
D03*
X12598Y3543D02*
D03*
X13386Y3150D02*
D03*
X12598Y2756D02*
D03*
X13386Y2362D02*
D03*
X12598Y1969D02*
D03*
X13386Y1575D02*
D03*
X11614Y14567D02*
D03*
X10827Y14173D02*
D03*
X11614Y13780D02*
D03*
X10827Y13386D02*
D03*
X11614Y12992D02*
D03*
X10827Y12598D02*
D03*
X11614Y12205D02*
D03*
X10827Y11811D02*
D03*
X11614Y11417D02*
D03*
X10827Y11024D02*
D03*
X11614Y10630D02*
D03*
X10827Y9449D02*
D03*
X11614Y9055D02*
D03*
X10827Y8661D02*
D03*
X11614Y8268D02*
D03*
X10827Y7874D02*
D03*
X11614Y7480D02*
D03*
X10827Y7087D02*
D03*
Y6299D02*
D03*
X11614Y5906D02*
D03*
X10827Y5512D02*
D03*
X11614Y5118D02*
D03*
X10827Y4724D02*
D03*
X11614Y4331D02*
D03*
X10827Y3937D02*
D03*
X11614Y3543D02*
D03*
X10827Y3150D02*
D03*
X11614Y2756D02*
D03*
X10827Y2362D02*
D03*
X11614Y1969D02*
D03*
X10827Y1575D02*
D03*
X17717Y14567D02*
D03*
X18504Y14173D02*
D03*
X17717Y13780D02*
D03*
X18504Y13386D02*
D03*
X17717Y12992D02*
D03*
X18504Y12598D02*
D03*
X17717Y12205D02*
D03*
X18504Y11811D02*
D03*
X17717Y11417D02*
D03*
X18504Y11024D02*
D03*
X17717Y10630D02*
D03*
X18504Y9449D02*
D03*
X17717Y9055D02*
D03*
X18504Y8661D02*
D03*
X17717Y8268D02*
D03*
X18504Y7874D02*
D03*
X17717Y7480D02*
D03*
X18504Y7087D02*
D03*
X17717Y6693D02*
D03*
X18504Y6299D02*
D03*
X17717Y5906D02*
D03*
X18504Y5512D02*
D03*
X17717Y5118D02*
D03*
X18504Y4724D02*
D03*
X17717Y4331D02*
D03*
X18504Y3937D02*
D03*
X17717Y3543D02*
D03*
X18504Y3150D02*
D03*
X17717Y2756D02*
D03*
X18504Y2362D02*
D03*
X17717Y1969D02*
D03*
X18504Y1575D02*
D03*
X16732Y14567D02*
D03*
X15945Y14173D02*
D03*
X16732Y13780D02*
D03*
X15945Y13386D02*
D03*
X16732Y12992D02*
D03*
X15945Y12598D02*
D03*
X16732Y12205D02*
D03*
X15945Y11811D02*
D03*
X16732Y11417D02*
D03*
X15945Y11024D02*
D03*
X16732Y10630D02*
D03*
X15945Y9449D02*
D03*
X16732Y9055D02*
D03*
X15945Y8661D02*
D03*
X16732Y8268D02*
D03*
X15945Y7874D02*
D03*
X16732Y7480D02*
D03*
X15945Y7087D02*
D03*
X16732Y6693D02*
D03*
X15945Y6299D02*
D03*
X16732Y5906D02*
D03*
X15945Y5512D02*
D03*
X16732Y5118D02*
D03*
X15945Y4724D02*
D03*
X16732Y4331D02*
D03*
X15945Y3937D02*
D03*
X16732Y3543D02*
D03*
X15945Y3150D02*
D03*
X16732Y2756D02*
D03*
X15945Y2362D02*
D03*
X16732Y1969D02*
D03*
X15945Y1575D02*
D03*
X22835Y14567D02*
D03*
X23622Y14173D02*
D03*
X22835Y13780D02*
D03*
X23622Y13386D02*
D03*
X22835Y12992D02*
D03*
X23622Y12598D02*
D03*
X22835Y12205D02*
D03*
X23622Y11811D02*
D03*
X22835Y11417D02*
D03*
X23622Y11024D02*
D03*
X22835Y10630D02*
D03*
X23622Y9449D02*
D03*
X22835Y9055D02*
D03*
X23622Y8661D02*
D03*
X22835Y8268D02*
D03*
X23622Y7874D02*
D03*
X22835Y7480D02*
D03*
X23622Y7087D02*
D03*
X22835Y6693D02*
D03*
X23622Y6299D02*
D03*
X22835Y5906D02*
D03*
X23622Y5512D02*
D03*
X22835Y5118D02*
D03*
X23622Y4724D02*
D03*
X22835Y4331D02*
D03*
X23622Y3937D02*
D03*
X22835Y3543D02*
D03*
X23622Y3150D02*
D03*
X22835Y2756D02*
D03*
X23622Y2362D02*
D03*
X22835Y1969D02*
D03*
X23622Y1575D02*
D03*
X21850Y14567D02*
D03*
X21063Y14173D02*
D03*
X21850Y13780D02*
D03*
X21063Y13386D02*
D03*
X21850Y12992D02*
D03*
X21063Y12598D02*
D03*
X21850Y12205D02*
D03*
X21063Y11811D02*
D03*
X21850Y11417D02*
D03*
X21063Y11024D02*
D03*
X21850Y10630D02*
D03*
X21063Y9449D02*
D03*
X21850Y9055D02*
D03*
X21063Y8661D02*
D03*
X21850Y8268D02*
D03*
X21063Y7874D02*
D03*
X21850Y7480D02*
D03*
X21063Y7087D02*
D03*
X21850Y6693D02*
D03*
X21063Y6299D02*
D03*
X21850Y5906D02*
D03*
X21063Y5512D02*
D03*
X21850Y5118D02*
D03*
X21063Y4724D02*
D03*
X21850Y4331D02*
D03*
X21063Y3937D02*
D03*
X21850Y3543D02*
D03*
X21063Y3150D02*
D03*
X21850Y2756D02*
D03*
X21063Y2362D02*
D03*
X21850Y1969D02*
D03*
X21063Y1575D02*
D03*
X27953Y14567D02*
D03*
X28740Y14173D02*
D03*
X27953Y13780D02*
D03*
X28740Y13386D02*
D03*
X27953Y12992D02*
D03*
X28740Y12598D02*
D03*
X27953Y12205D02*
D03*
X28740Y11811D02*
D03*
X27953Y11417D02*
D03*
X28740Y11024D02*
D03*
X27953Y10630D02*
D03*
X28740Y9449D02*
D03*
X27953Y9055D02*
D03*
X28740Y8661D02*
D03*
X27953Y8268D02*
D03*
X28740Y7874D02*
D03*
X27953Y7480D02*
D03*
X28740Y7087D02*
D03*
X27953Y6693D02*
D03*
X28740Y6299D02*
D03*
X27953Y5906D02*
D03*
X28740Y5512D02*
D03*
X27953Y5118D02*
D03*
X28740Y4724D02*
D03*
X27953Y4331D02*
D03*
X28740Y3937D02*
D03*
X27953Y3543D02*
D03*
X28740Y3150D02*
D03*
X27953Y2756D02*
D03*
X28740Y2362D02*
D03*
X27953Y1969D02*
D03*
X28740Y1575D02*
D03*
X26969Y14567D02*
D03*
X26181Y14173D02*
D03*
X26969Y13780D02*
D03*
X26181Y13386D02*
D03*
X26969Y12992D02*
D03*
X26181Y12598D02*
D03*
X26969Y12205D02*
D03*
X26181Y11811D02*
D03*
X26969Y11417D02*
D03*
X26181Y11024D02*
D03*
X26969Y10630D02*
D03*
X26181Y9449D02*
D03*
X26969Y9055D02*
D03*
X26181Y8661D02*
D03*
X26969Y8268D02*
D03*
X26181Y7874D02*
D03*
X26969Y7480D02*
D03*
X26181Y7087D02*
D03*
X26969Y6693D02*
D03*
X26181Y6299D02*
D03*
X26969Y5906D02*
D03*
X26181Y5512D02*
D03*
X26969Y5118D02*
D03*
X26181Y4724D02*
D03*
X26969Y4331D02*
D03*
X26181Y3937D02*
D03*
X26969Y3543D02*
D03*
X26181Y3150D02*
D03*
X26969Y2756D02*
D03*
X26181Y2362D02*
D03*
X26969Y1969D02*
D03*
X26181Y1575D02*
D03*
X33071Y14567D02*
D03*
X33858Y14173D02*
D03*
X33071Y13780D02*
D03*
X33858Y13386D02*
D03*
X33071Y12992D02*
D03*
X33858Y12598D02*
D03*
X33071Y12205D02*
D03*
X33858Y11811D02*
D03*
X33071Y11417D02*
D03*
X33858Y11024D02*
D03*
X33071Y10630D02*
D03*
X33858Y9449D02*
D03*
X33071Y9055D02*
D03*
X33858Y8661D02*
D03*
X33071Y8268D02*
D03*
X33858Y7874D02*
D03*
X33071Y7480D02*
D03*
X33858Y7087D02*
D03*
X33071Y6693D02*
D03*
X33858Y6299D02*
D03*
X33071Y5906D02*
D03*
X33858Y5512D02*
D03*
X33071Y5118D02*
D03*
X33858Y4724D02*
D03*
X33071Y4331D02*
D03*
X33858Y3937D02*
D03*
X33071Y3543D02*
D03*
X33858Y3150D02*
D03*
X33071Y2756D02*
D03*
X33858Y2362D02*
D03*
X33071Y1969D02*
D03*
X33858Y1575D02*
D03*
X32087Y14567D02*
D03*
X31299Y14173D02*
D03*
X32087Y13780D02*
D03*
X31299Y13386D02*
D03*
X32087Y12992D02*
D03*
X31299Y12598D02*
D03*
X32087Y12205D02*
D03*
X31299Y11811D02*
D03*
X32087Y11417D02*
D03*
X31299Y11024D02*
D03*
X32087Y10630D02*
D03*
X31299Y9449D02*
D03*
X32087Y9055D02*
D03*
X31299Y8661D02*
D03*
X32087Y8268D02*
D03*
X31299Y7874D02*
D03*
X32087Y7480D02*
D03*
X31299Y7087D02*
D03*
X32087Y6693D02*
D03*
X31299Y6299D02*
D03*
X32087Y5906D02*
D03*
X31299Y5512D02*
D03*
X32087Y5118D02*
D03*
X31299Y4724D02*
D03*
X32087Y4331D02*
D03*
X31299Y3937D02*
D03*
X32087Y3543D02*
D03*
X31299Y3150D02*
D03*
X32087Y2756D02*
D03*
X31299Y2362D02*
D03*
X32087Y1969D02*
D03*
X31299Y1575D02*
D03*
X38189Y14567D02*
D03*
X38976Y14173D02*
D03*
X38189Y13780D02*
D03*
X38976Y13386D02*
D03*
X38189Y12992D02*
D03*
X38976Y12598D02*
D03*
X38189Y12205D02*
D03*
X38976Y11811D02*
D03*
X38189Y11417D02*
D03*
X38976Y11024D02*
D03*
X38189Y10630D02*
D03*
X38976Y9449D02*
D03*
X38189Y9055D02*
D03*
X38976Y8661D02*
D03*
X38189Y8268D02*
D03*
X38976Y7874D02*
D03*
X38189Y7480D02*
D03*
X38976Y7087D02*
D03*
X38189Y6693D02*
D03*
X38976Y6299D02*
D03*
X38189Y5906D02*
D03*
X38976Y5512D02*
D03*
X38189Y5118D02*
D03*
X38976Y4724D02*
D03*
X38189Y4331D02*
D03*
X38976Y3937D02*
D03*
X38189Y3543D02*
D03*
X38976Y3150D02*
D03*
X38189Y2756D02*
D03*
X38976Y2362D02*
D03*
X38189Y1969D02*
D03*
X38976Y1575D02*
D03*
X37205Y14567D02*
D03*
X36417Y14173D02*
D03*
X37205Y13780D02*
D03*
X36417Y13386D02*
D03*
X37205Y12992D02*
D03*
X36417Y12598D02*
D03*
X37205Y12205D02*
D03*
X36417Y11811D02*
D03*
X37205Y11417D02*
D03*
X36417Y11024D02*
D03*
X37205Y10630D02*
D03*
X36417Y9449D02*
D03*
X37205Y9055D02*
D03*
X36417Y8661D02*
D03*
X37205Y8268D02*
D03*
X36417Y7874D02*
D03*
X37205Y7480D02*
D03*
X36417Y7087D02*
D03*
X37205Y6693D02*
D03*
X36417Y6299D02*
D03*
X37205Y5906D02*
D03*
X36417Y5512D02*
D03*
X37205Y5118D02*
D03*
X36417Y4724D02*
D03*
X37205Y4331D02*
D03*
X36417Y3937D02*
D03*
X37205Y3543D02*
D03*
X36417Y3150D02*
D03*
X37205Y2756D02*
D03*
X36417Y2362D02*
D03*
X37205Y1969D02*
D03*
X36417Y1575D02*
D03*
D40*
X12106Y9980D02*
D03*
Y866D02*
D03*
X17224Y9980D02*
D03*
Y866D02*
D03*
X22343Y9980D02*
D03*
Y866D02*
D03*
X27461Y9980D02*
D03*
Y866D02*
D03*
X32579Y9980D02*
D03*
Y866D02*
D03*
X37697Y9980D02*
D03*
Y866D02*
D03*
X3976Y4606D02*
D03*
X5984Y7992D02*
D03*
X3976Y1260D02*
D03*
X2598Y7992D02*
D03*
D41*
X14606Y2756D02*
D03*
Y5512D02*
D03*
Y8268D02*
D03*
X19724Y2756D02*
D03*
Y5512D02*
D03*
X19724Y8268D02*
D03*
X24843Y2756D02*
D03*
Y5512D02*
D03*
Y8268D02*
D03*
X29961Y2756D02*
D03*
X29961Y5512D02*
D03*
X29961Y8268D02*
D03*
X35079Y2756D02*
D03*
Y5512D02*
D03*
Y8268D02*
D03*
D42*
X1535Y6622D02*
D03*
Y5622D02*
D03*
Y4622D02*
D03*
Y3622D02*
D03*
Y2622D02*
D03*
Y11622D02*
D03*
Y10622D02*
D03*
Y9622D02*
D03*
Y8622D02*
D03*
X8028Y4315D02*
D03*
X7528Y5315D02*
D03*
X7028Y4315D02*
D03*
X6528Y5315D02*
D03*
X6028Y4315D02*
D03*
X5528Y5315D02*
D03*
X5028Y4315D02*
D03*
X4528Y5315D02*
D03*
X8528D02*
D03*
X9028Y4315D02*
D03*
X9035Y7701D02*
D03*
X8535Y8701D02*
D03*
X8035Y7701D02*
D03*
X7535Y8701D02*
D03*
X7035Y7701D02*
D03*
X6535Y8701D02*
D03*
X8028Y969D02*
D03*
X7528Y1969D02*
D03*
X7028Y969D02*
D03*
X6528Y1969D02*
D03*
X6028Y969D02*
D03*
X5528Y1969D02*
D03*
X5028Y969D02*
D03*
X4528Y1969D02*
D03*
X8528D02*
D03*
X9028Y969D02*
D03*
X3150Y8701D02*
D03*
X3650Y7701D02*
D03*
X4150Y8701D02*
D03*
X4650Y7701D02*
D03*
M02*
