G04 Layer_Color=65535*
%FSLAX24Y24*%
%MOIN*%
G70*
G01*
G75*
%ADD30C,0.0079*%
%ADD31C,0.0098*%
D30*
X4010Y3770D02*
G03*
X2630Y3674I-664J-423D01*
G01*
Y3019D02*
G03*
X4010Y2923I716J327D01*
G01*
X7643Y11191D02*
G03*
X9023Y11287I664J423D01*
G01*
Y11942D02*
G03*
X7643Y12037I-716J-327D01*
G01*
X3726Y12372D02*
X3825D01*
X3726D02*
Y13494D01*
X3825D01*
Y12372D02*
Y13494D01*
X2835Y11870D02*
X2992D01*
X2835Y12146D02*
X2992D01*
X1850Y14055D02*
X2008D01*
X1929D01*
Y14527D01*
X1850Y14449D01*
X2244Y14134D02*
X2323Y14055D01*
X2480D01*
X2559Y14134D01*
Y14449D01*
X2480Y14527D01*
X2323D01*
X2244Y14449D01*
Y14370D01*
X2323Y14291D01*
X2559D01*
X2716Y14527D02*
Y14213D01*
X2874Y14055D01*
X3031Y14213D01*
Y14527D01*
X4567Y14055D02*
X4724D01*
X4646D01*
Y14527D01*
X4567Y14449D01*
X5275Y14527D02*
X5118Y14449D01*
X4961Y14291D01*
Y14134D01*
X5039Y14055D01*
X5197D01*
X5275Y14134D01*
Y14213D01*
X5197Y14291D01*
X4961D01*
X5433Y14527D02*
Y14213D01*
X5590Y14055D01*
X5748Y14213D01*
Y14527D01*
X7598Y14055D02*
Y14527D01*
X7835D01*
X7913Y14449D01*
Y14291D01*
X7835Y14213D01*
X7598D01*
X8386Y14449D02*
X8307Y14527D01*
X8149D01*
X8071Y14449D01*
Y14134D01*
X8149Y14055D01*
X8307D01*
X8386Y14134D01*
X8583Y11614D02*
X8898D01*
X8740Y11772D02*
Y11457D01*
X3465Y3307D02*
X3779D01*
X3622Y3464D02*
Y3150D01*
X3661Y14685D02*
X3976D01*
X9646Y14646D02*
X9961D01*
D31*
X1142Y1640D02*
X1352Y1220D01*
X1562Y1640D01*
X1771Y1745D02*
X1876Y1850D01*
X2086D01*
X2191Y1745D01*
Y1325D01*
X2086Y1220D01*
X1876D01*
X1771Y1325D01*
Y1745D01*
X2401Y1220D02*
Y1325D01*
X2506D01*
Y1220D01*
X2401D01*
X2926D02*
X3136D01*
X3031D01*
Y1850D01*
X2926Y1745D01*
M02*
